<svg width="635" height="410" viewBox="0 0 635 410" fill="none" xmlns="http://www.w3.org/2000/svg">
<g clip-path="url(#clip0_122_287)">
<rect x="1.98621" y="0.722921" width="442.15" height="146.403" transform="matrix(0.99863 0.052336 0.798635 0.601815 -96.605 73.0472)" stroke="#EAE7ED" stroke-opacity="0.85" stroke-width="2.21026"/>
<rect x="1.98621" y="0.722921" width="508.658" height="146.403" transform="matrix(0.99863 0.052336 0.798635 0.601815 -102.573 114.285)" stroke="#EAE7ED" stroke-opacity="0.85" stroke-width="2.21026"/>
<rect x="1.98621" y="0.722921" width="508.983" height="146.403" transform="matrix(0.99863 0.052336 0.798635 0.601815 -43.5539 158.987)" stroke="#EAE7ED" stroke-opacity="0.85" stroke-width="2.21026"/>
<rect x="1.98621" y="0.722921" width="442.605" height="146.403" transform="matrix(0.99863 0.052336 0.798635 0.601815 81.8807 206.996)" stroke="#EAE7ED" stroke-opacity="0.85" stroke-width="2.21026"/>
<rect x="1.98621" y="0.722921" width="444.327" height="146.403" transform="matrix(0.99863 0.052336 0.798635 0.601815 139.574 251.628)" stroke="#EAE7ED" stroke-opacity="0.85" stroke-width="2.21026"/>
<rect x="0.221019" y="-0.607245" width="445.029" height="146.403" transform="matrix(-0.798635 -0.601815 0.99863 0.052336 320.46 385.955)" stroke="#EAE7ED" stroke-opacity="0.85" stroke-width="2.21026"/>
<mask id="path-7-inside-1_122_287" fill="white">
<path d="M467.865 394.175L-10.0093 34.0712L138.4 41.849L616.274 401.953L467.865 394.175Z"/>
</mask>
<path d="M136.193 41.7333L614.067 401.837L618.482 402.069L140.607 41.9647L136.193 41.7333Z" fill="#EAE7ED" fill-opacity="0.85" mask="url(#path-7-inside-1_122_287)"/>
<rect x="0.221019" y="-0.607245" width="596.153" height="146.403" transform="matrix(-0.798635 -0.601815 0.99863 0.052336 617.279 401.511)" stroke="#EAE7ED" stroke-opacity="0.85" stroke-width="2.21026"/>
<path d="M357.973 369L304.441 321.455L454 328.167L333.69 238.112L181.371 230.84L87 143.022L367.907 155.327L243.734 58" stroke="url(#paint0_linear_122_287)" stroke-width="2.21026"/>
<path d="M452.365 327.951C446.171 317.342 384.399 312.48 354.287 311.375L554.315 318.005C490.435 315.888 458.818 319.995 452.365 327.951Z" fill="#521027"/>
<g style="mix-blend-mode:darken">
<rect width="266.406" height="73.7144" rx="36.8572" transform="matrix(0.999391 0.0348995 -0.121869 0.992546 328.763 236.226)" fill="#161515"/>
</g>
<rect x="0.969774" y="1.13546" width="264.196" height="71.5041" rx="35.7521" transform="matrix(0.999391 0.0348995 -0.121869 0.992546 328.902 237.494)" stroke="url(#paint1_linear_122_287)" stroke-width="2.21026"/>
<g filter="url(#filter0_df_122_287)">
<rect x="0.969774" y="1.13546" width="264.196" height="71.5041" rx="35.7521" transform="matrix(0.999391 0.0348995 -0.121869 0.992546 328.902 237.494)" stroke="url(#paint2_linear_122_287)" stroke-width="2.21026" shape-rendering="crispEdges"/>
</g>
<path d="M401.386 272.79C401.402 272.105 401.174 271.565 400.704 271.169C400.234 270.773 399.556 270.559 398.67 270.528C398.068 270.507 397.549 270.574 397.114 270.729C396.679 270.878 396.333 271.095 396.076 271.381C395.824 271.667 395.675 271.996 395.63 272.368C395.58 272.678 395.612 272.951 395.726 273.187C395.845 273.423 396.022 273.63 396.257 273.808C396.492 273.981 396.77 274.135 397.09 274.271C397.41 274.401 397.756 274.515 398.126 274.613L399.647 275.04C400.387 275.235 401.058 275.485 401.659 275.79C402.261 276.094 402.769 276.46 403.184 276.888C403.599 277.316 403.9 277.813 404.087 278.381C404.28 278.948 404.335 279.593 404.252 280.315C404.116 281.375 403.73 282.285 403.095 283.044C402.467 283.798 401.621 284.372 400.557 284.765C399.5 285.153 398.262 285.322 396.842 285.272C395.434 285.223 394.234 284.966 393.242 284.501C392.255 284.036 391.521 283.373 391.04 282.512C390.564 281.646 390.389 280.59 390.513 279.342L394.082 279.467C394.051 280.049 394.159 280.54 394.406 280.939C394.66 281.333 395.025 281.638 395.5 281.853C395.982 282.062 396.541 282.178 397.177 282.2C397.802 282.222 398.355 282.151 398.837 281.986C399.325 281.822 399.716 281.584 400.011 281.271C400.306 280.959 400.479 280.594 400.531 280.176C400.578 279.787 400.502 279.456 400.302 279.183C400.107 278.91 399.8 278.673 399.38 278.471C398.965 278.27 398.45 278.082 397.832 277.907L395.991 277.367C394.564 276.961 393.471 276.365 392.712 275.579C391.953 274.794 391.655 273.761 391.818 272.481C391.941 271.432 392.335 270.525 392.999 269.761C393.668 268.997 394.53 268.413 395.583 268.008C396.637 267.603 397.799 267.423 399.071 267.467C400.366 267.512 401.469 267.772 402.38 268.245C403.297 268.719 403.977 269.357 404.421 270.16C404.864 270.963 405.031 271.881 404.921 272.913L401.386 272.79ZM414.611 272.597L414.278 275.304L406.4 275.029L406.732 272.322L414.611 272.597ZM408.903 269.272L412.531 269.398L411.044 281.512C411.003 281.845 411.023 282.106 411.102 282.296C411.182 282.48 411.308 282.611 411.481 282.691C411.659 282.771 411.871 282.815 412.115 282.824C412.285 282.83 412.457 282.821 412.631 282.799C412.806 282.771 412.939 282.751 413.032 282.737L413.274 285.438C413.085 285.488 412.822 285.544 412.483 285.606C412.144 285.674 411.738 285.707 411.265 285.708C410.386 285.711 409.634 285.569 409.007 285.281C408.387 284.993 407.929 284.564 407.634 283.993C407.34 283.422 407.247 282.71 407.357 281.859L408.903 269.272ZM421.119 286.129C419.795 286.082 418.686 285.763 417.789 285.171C416.898 284.574 416.254 283.764 415.854 282.742C415.456 281.714 415.338 280.535 415.502 279.204C415.667 277.862 416.072 276.698 416.718 275.712C417.364 274.721 418.201 273.963 419.229 273.438C420.264 272.908 421.443 272.666 422.766 272.712C424.089 272.758 425.196 273.08 426.086 273.678C426.983 274.27 427.63 275.08 428.029 276.107C428.428 277.129 428.545 278.311 428.38 279.654C428.217 280.985 427.812 282.146 427.166 283.137C426.52 284.122 425.68 284.88 424.645 285.411C423.617 285.935 422.442 286.175 421.119 286.129ZM421.478 283.338C422.08 283.359 422.604 283.207 423.048 282.883C423.494 282.553 423.855 282.095 424.132 281.51C424.415 280.925 424.603 280.255 424.695 279.5C424.788 278.744 424.766 278.066 424.629 277.467C424.497 276.867 424.25 276.389 423.89 276.031C423.529 275.673 423.047 275.483 422.445 275.462C421.838 275.441 421.306 275.595 420.849 275.925C420.398 276.254 420.031 276.712 419.748 277.296C419.471 277.881 419.286 278.552 419.193 279.307C419.1 280.063 419.12 280.741 419.251 281.34C419.389 281.939 419.641 282.418 420.007 282.776C420.38 283.129 420.871 283.316 421.478 283.338ZM429.35 291.054L431.544 273.189L435.121 273.314L434.853 275.496L435.015 275.502C435.217 275.158 435.49 274.81 435.836 274.46C436.187 274.104 436.622 273.813 437.14 273.588C437.665 273.357 438.293 273.254 439.026 273.28C439.98 273.313 440.829 273.592 441.575 274.117C442.321 274.635 442.874 275.4 443.235 276.409C443.597 277.413 443.686 278.659 443.503 280.148C443.325 281.597 442.939 282.813 442.345 283.794C441.758 284.771 441.03 285.501 440.16 285.986C439.297 286.466 438.369 286.688 437.375 286.654C436.671 286.629 436.086 286.493 435.621 286.244C435.161 285.996 434.796 285.691 434.527 285.331C434.258 284.965 434.063 284.598 433.943 284.232L433.832 284.228L432.979 291.181L429.35 291.054ZM434.298 279.809C434.203 280.582 434.228 281.26 434.373 281.842C434.518 282.425 434.776 282.884 435.145 283.22C435.515 283.55 435.993 283.725 436.577 283.746C437.168 283.767 437.687 283.623 438.136 283.316C438.585 283.003 438.95 282.563 439.23 281.995C439.517 281.422 439.707 280.757 439.8 280.001C439.892 279.251 439.868 278.588 439.728 278.011C439.588 277.434 439.333 276.978 438.964 276.642C438.594 276.306 438.112 276.128 437.515 276.107C436.925 276.087 436.406 276.224 435.959 276.52C435.518 276.816 435.154 277.245 434.869 277.807C434.583 278.369 434.393 279.037 434.298 279.809ZM453.753 287.013L449.801 286.875L457.95 269.761L462.702 269.927L466.589 287.461L462.636 287.323L459.908 273.805L459.772 273.801L453.753 287.013ZM454.342 280.195L463.677 280.521L463.326 283.38L453.991 283.054L454.342 280.195ZM472.806 287.891C471.812 287.856 470.943 287.571 470.199 287.035C469.462 286.494 468.918 285.719 468.569 284.71C468.226 283.696 468.143 282.464 468.321 281.014C468.504 279.526 468.897 278.296 469.501 277.326C470.106 276.35 470.838 275.631 471.699 275.169C472.567 274.7 473.48 274.483 474.44 274.517C475.172 274.542 475.767 274.688 476.225 274.953C476.689 275.213 477.05 275.531 477.305 275.908C477.568 276.28 477.757 276.643 477.873 276.998L477.984 277.002L478.784 270.489L482.403 270.615L480.276 287.939L476.699 287.815L476.954 285.734L476.801 285.728C476.586 286.083 476.301 286.433 475.945 286.777C475.596 287.116 475.16 287.393 474.637 287.607C474.121 287.821 473.51 287.916 472.806 287.891ZM474.308 285.063C474.893 285.084 475.406 284.943 475.848 284.642C476.296 284.334 476.664 283.897 476.95 283.329C477.242 282.762 477.436 282.092 477.531 281.319C477.626 280.546 477.6 279.872 477.454 279.294C477.308 278.717 477.05 278.267 476.679 277.942C476.309 277.618 475.831 277.445 475.246 277.425C474.65 277.404 474.127 277.547 473.679 277.854C473.231 278.162 472.867 278.596 472.587 279.158C472.307 279.721 472.12 280.377 472.028 281.127C471.936 281.883 471.959 282.555 472.097 283.143C472.242 283.726 472.497 284.187 472.86 284.529C473.229 284.864 473.712 285.043 474.308 285.063ZM495.285 279.136L491.939 279.223C491.916 278.939 491.826 278.681 491.666 278.448C491.507 278.211 491.282 278.019 490.992 277.873C490.709 277.721 490.357 277.638 489.937 277.624C489.374 277.604 488.886 277.706 488.471 277.929C488.056 278.147 487.825 278.45 487.777 278.839C487.739 279.15 487.832 279.416 488.055 279.639C488.279 279.862 488.686 280.049 489.278 280.2L491.588 280.757C492.828 281.06 493.725 281.511 494.279 282.108C494.833 282.705 495.052 283.471 494.937 284.408C494.833 285.259 494.488 285.998 493.904 286.623C493.326 287.248 492.577 287.726 491.658 288.057C490.746 288.382 489.722 288.524 488.586 288.485C486.854 288.424 485.518 288.018 484.578 287.266C483.645 286.508 483.166 285.506 483.143 284.259L486.734 284.198C486.778 284.726 486.99 285.135 487.37 285.426C487.752 285.711 488.266 285.865 488.913 285.888C489.549 285.91 490.075 285.807 490.491 285.578C490.913 285.343 491.151 285.031 491.205 284.643C491.239 284.315 491.133 284.043 490.886 283.824C490.64 283.601 490.24 283.422 489.686 283.29L487.475 282.762C486.229 282.464 485.331 281.991 484.784 281.343C484.242 280.695 484.03 279.887 484.149 278.917C484.252 278.082 484.567 277.371 485.096 276.783C485.63 276.196 486.331 275.753 487.2 275.455C488.075 275.157 489.072 275.028 490.191 275.067C491.843 275.124 493.101 275.517 493.964 276.243C494.833 276.97 495.273 277.934 495.285 279.136ZM498.822 288.808C498.26 288.788 497.801 288.574 497.446 288.165C497.098 287.751 496.958 287.265 497.027 286.706C497.095 286.154 497.352 285.687 497.798 285.306C498.249 284.925 498.756 284.745 499.318 284.764C499.863 284.784 500.316 284.998 500.676 285.407C501.037 285.816 501.183 286.296 501.115 286.849C501.07 287.221 500.931 287.559 500.7 287.863C500.475 288.161 500.198 288.397 499.869 288.573C499.54 288.742 499.191 288.821 498.822 288.808Z" fill="#EAE7ED"/>
<path d="M181.558 232.173C176.253 223.332 123.354 219.28 97.5679 218.359L268.863 223.885C214.159 222.12 187.083 225.543 181.558 232.173Z" fill="#4E191A"/>
<g style="mix-blend-mode:darken">
<rect width="351.698" height="63.6384" rx="31.8192" transform="matrix(0.999745 0.0225907 -0.186426 0.982469 80.1459 154.262)" fill="#161515"/>
</g>
<rect x="0.898822" y="1.11072" width="349.487" height="61.4282" rx="30.7141" transform="matrix(0.999745 0.0225907 -0.186426 0.982469 80.3532 155.366)" stroke="url(#paint3_linear_122_287)" stroke-width="2.21026"/>
<g filter="url(#filter1_df_122_287)">
<rect x="0.898822" y="1.11072" width="349.487" height="61.4282" rx="30.7141" transform="matrix(0.999745 0.0225907 -0.186426 0.982469 80.3531 155.366)" stroke="url(#paint4_linear_122_287)" stroke-width="2.21026" shape-rendering="crispEdges"/>
</g>
<path d="M128.257 185.861C128.263 185.29 128.067 184.842 127.671 184.518C127.274 184.193 126.707 184.023 125.968 184.007C125.467 183.997 125.035 184.058 124.674 184.192C124.314 184.321 124.028 184.506 123.817 184.747C123.61 184.988 123.49 185.264 123.456 185.574C123.418 185.833 123.448 186.06 123.546 186.256C123.648 186.451 123.797 186.622 123.995 186.768C124.193 186.909 124.426 187.034 124.694 187.144C124.963 187.248 125.252 187.339 125.561 187.417L126.834 187.755C127.453 187.91 128.015 188.111 128.519 188.357C129.024 188.604 129.451 188.903 129.802 189.255C130.153 189.607 130.409 190.018 130.572 190.488C130.739 190.959 130.792 191.496 130.731 192.098C130.63 192.983 130.319 193.745 129.798 194.385C129.283 195.021 128.585 195.508 127.703 195.848C126.827 196.184 125.797 196.339 124.613 196.313C123.439 196.288 122.436 196.088 121.604 195.712C120.777 195.335 120.158 194.792 119.747 194.08C119.341 193.364 119.183 192.485 119.272 191.444L122.248 191.507C122.228 191.993 122.323 192.401 122.534 192.731C122.75 193.056 123.057 193.306 123.456 193.479C123.86 193.648 124.327 193.738 124.857 193.75C125.378 193.761 125.838 193.695 126.238 193.553C126.643 193.41 126.966 193.207 127.208 192.943C127.451 192.68 127.591 192.374 127.629 192.025C127.664 191.7 127.597 191.425 127.427 191.2C127.261 190.975 127.003 190.781 126.65 190.617C126.303 190.454 125.871 190.304 125.354 190.165L123.814 189.736C122.62 189.414 121.703 188.929 121.061 188.284C120.42 187.638 120.16 186.781 120.281 185.712C120.372 184.837 120.689 184.077 121.234 183.433C121.783 182.788 122.495 182.292 123.368 181.942C124.241 181.593 125.208 181.429 126.268 181.452C127.347 181.475 128.269 181.678 129.034 182.063C129.804 182.447 130.378 182.971 130.756 183.635C131.134 184.299 131.284 185.061 131.204 185.923L128.257 185.861ZM139.275 185.55L139.029 187.809L132.461 187.67L132.707 185.41L139.275 185.55ZM134.481 182.844L137.506 182.908L136.404 193.018C136.374 193.296 136.393 193.514 136.461 193.671C136.53 193.823 136.637 193.932 136.782 193.996C136.931 194.061 137.108 194.095 137.311 194.099C137.453 194.102 137.597 194.094 137.741 194.073C137.886 194.048 137.998 194.029 138.075 194.016L138.307 196.265C138.15 196.309 137.931 196.358 137.65 196.414C137.368 196.474 137.03 196.507 136.636 196.512C135.904 196.525 135.275 196.415 134.75 196.182C134.23 195.949 133.844 195.597 133.591 195.124C133.339 194.652 133.254 194.06 133.336 193.35L134.481 182.844ZM144.851 196.751C143.748 196.727 142.82 196.474 142.066 195.991C141.317 195.503 140.771 194.836 140.427 193.989C140.083 193.137 139.971 192.155 140.092 191.045C140.215 189.924 140.539 188.95 141.066 188.121C141.593 187.288 142.282 186.647 143.133 186.198C143.989 185.744 144.968 185.529 146.071 185.553C147.174 185.576 148.1 185.832 148.849 186.319C149.603 186.802 150.152 187.47 150.495 188.322C150.84 189.169 150.951 190.152 150.829 191.273C150.708 192.384 150.384 193.356 149.856 194.189C149.329 195.018 148.638 195.659 147.782 196.112C146.931 196.561 145.954 196.774 144.851 196.751ZM145.119 194.421C145.621 194.432 146.056 194.299 146.422 194.024C146.79 193.744 147.086 193.359 147.31 192.868C147.539 192.378 147.688 191.817 147.756 191.186C147.825 190.555 147.799 189.991 147.678 189.493C147.561 188.995 147.35 188.599 147.045 188.305C146.741 188.011 146.337 187.858 145.836 187.848C145.329 187.837 144.887 187.971 144.511 188.251C144.138 188.531 143.838 188.916 143.609 189.407C143.385 189.897 143.238 190.458 143.169 191.089C143.101 191.719 143.125 192.284 143.241 192.782C143.362 193.28 143.578 193.676 143.887 193.97C144.202 194.26 144.613 194.41 145.119 194.421ZM151.766 200.762L153.391 185.85L156.373 185.913L156.175 187.735L156.31 187.738C156.474 187.449 156.698 187.156 156.982 186.86C157.271 186.56 157.63 186.313 158.059 186.119C158.493 185.92 159.016 185.828 159.627 185.841C160.422 185.858 161.133 186.08 161.76 186.509C162.388 186.933 162.857 187.563 163.17 188.4C163.482 189.232 163.571 190.27 163.435 191.512C163.304 192.722 162.996 193.739 162.512 194.564C162.034 195.384 161.435 196.001 160.716 196.415C160.003 196.825 159.232 197.021 158.403 197.003C157.816 196.991 157.327 196.884 156.937 196.682C156.551 196.48 156.243 196.231 156.015 195.933C155.787 195.631 155.62 195.328 155.516 195.024L155.424 195.022L154.791 200.826L151.766 200.762ZM155.761 191.335C155.691 191.98 155.72 192.544 155.847 193.028C155.975 193.512 156.194 193.892 156.506 194.168C156.818 194.438 157.218 194.579 157.705 194.589C158.198 194.6 158.629 194.474 158.999 194.213C159.37 193.948 159.669 193.577 159.896 193.1C160.129 192.619 160.279 192.063 160.348 191.433C160.416 190.807 160.389 190.254 160.265 189.775C160.142 189.296 159.925 188.918 159.613 188.643C159.301 188.367 158.897 188.224 158.4 188.214C157.908 188.203 157.477 188.324 157.108 188.575C156.744 188.827 156.446 189.189 156.214 189.66C155.982 190.132 155.831 190.69 155.761 191.335ZM178.559 186.93C178.564 186.359 178.368 185.911 177.972 185.587C177.575 185.262 177.008 185.092 176.27 185.076C175.768 185.066 175.336 185.127 174.975 185.261C174.615 185.39 174.329 185.575 174.118 185.816C173.911 186.057 173.791 186.333 173.757 186.643C173.72 186.902 173.749 187.129 173.847 187.325C173.949 187.52 174.099 187.691 174.296 187.837C174.494 187.978 174.727 188.103 174.996 188.213C175.264 188.317 175.553 188.408 175.863 188.486L177.135 188.824C177.754 188.979 178.316 189.18 178.82 189.426C179.325 189.673 179.753 189.972 180.103 190.324C180.454 190.676 180.711 191.087 180.873 191.557C181.04 192.028 181.093 192.565 181.032 193.167C180.931 194.052 180.62 194.814 180.1 195.454C179.584 196.09 178.886 196.577 178.004 196.917C177.128 197.253 176.098 197.408 174.915 197.382C173.741 197.357 172.738 197.157 171.906 196.781C171.078 196.404 170.459 195.861 170.048 195.149C169.642 194.433 169.484 193.554 169.573 192.513L172.549 192.576C172.529 193.062 172.625 193.47 172.835 193.8C173.051 194.125 173.359 194.375 173.757 194.548C174.161 194.717 174.628 194.807 175.158 194.819C175.679 194.83 176.139 194.764 176.539 194.622C176.944 194.479 177.267 194.276 177.509 194.012C177.752 193.749 177.892 193.443 177.93 193.094C177.965 192.769 177.898 192.494 177.728 192.269C177.563 192.044 177.304 191.85 176.951 191.686C176.604 191.523 176.172 191.373 175.656 191.234L174.115 190.805C172.921 190.483 172.004 189.998 171.363 189.353C170.721 188.707 170.461 187.85 170.582 186.781C170.673 185.906 170.991 185.146 171.535 184.502C172.085 183.857 172.796 183.361 173.669 183.011C174.542 182.662 175.509 182.498 176.569 182.521C177.649 182.544 178.571 182.747 179.335 183.132C180.105 183.516 180.679 184.04 181.057 184.704C181.436 185.368 181.585 186.13 181.505 186.992L178.559 186.93ZM186.301 191.135L185.618 197.405L182.593 197.34L184.169 182.88L187.108 182.943L186.506 188.471L186.634 188.474C186.95 187.839 187.402 187.346 187.99 186.996C188.58 186.64 189.288 186.471 190.117 186.489C190.874 186.505 191.517 186.684 192.044 187.025C192.577 187.362 192.966 187.84 193.212 188.458C193.463 189.072 193.54 189.803 193.443 190.65L192.69 197.555L189.665 197.491L190.359 191.122C190.437 190.454 190.323 189.93 190.018 189.551C189.718 189.172 189.26 188.976 188.644 188.963C188.233 188.954 187.859 189.033 187.523 189.201C187.191 189.368 186.917 189.617 186.701 189.947C186.49 190.273 186.357 190.669 186.301 191.135ZM198.159 197.876C197.463 197.862 196.856 197.728 196.338 197.477C195.82 197.22 195.428 196.851 195.163 196.369C194.903 195.882 194.812 195.281 194.89 194.566C194.955 193.963 195.122 193.46 195.389 193.055C195.656 192.65 195.995 192.327 196.405 192.086C196.816 191.844 197.272 191.665 197.773 191.549C198.28 191.432 198.805 191.354 199.351 191.313C199.992 191.261 200.51 191.21 200.904 191.162C201.299 191.109 201.591 191.026 201.778 190.912C201.966 190.798 202.073 190.626 202.098 190.395L202.103 190.353C202.151 189.905 202.047 189.556 201.79 189.306C201.537 189.055 201.153 188.924 200.637 188.913C200.092 188.902 199.646 189.012 199.298 189.246C198.951 189.474 198.705 189.766 198.562 190.122L195.789 189.836C196.003 189.18 196.344 188.617 196.813 188.145C197.283 187.669 197.86 187.309 198.547 187.064C199.238 186.815 200.019 186.699 200.89 186.718C201.496 186.731 202.068 186.813 202.607 186.966C203.15 187.12 203.621 187.349 204.019 187.655C204.423 187.96 204.724 188.349 204.924 188.82C205.125 189.287 205.19 189.843 205.12 190.488L204.323 197.802L201.454 197.741L201.618 196.237L201.533 196.236C201.321 196.571 201.054 196.865 200.732 197.117C200.411 197.365 200.037 197.558 199.609 197.695C199.182 197.827 198.698 197.888 198.159 197.876ZM199.251 195.819C199.696 195.828 200.098 195.75 200.458 195.583C200.819 195.411 201.112 195.177 201.339 194.88C201.566 194.583 201.7 194.243 201.742 193.862L201.867 192.711C201.766 192.77 201.629 192.824 201.458 192.872C201.292 192.916 201.105 192.957 200.897 192.995C200.689 193.028 200.482 193.059 200.275 193.088C200.068 193.112 199.881 193.134 199.712 193.154C199.352 193.198 199.033 193.274 198.755 193.381C198.478 193.488 198.255 193.637 198.087 193.827C197.92 194.012 197.821 194.246 197.79 194.528C197.746 194.938 197.861 195.254 198.135 195.477C198.415 195.695 198.787 195.809 199.251 195.819ZM206.67 197.852L207.851 187.007L210.784 187.069L210.578 188.962L210.691 188.964C210.963 188.295 211.353 187.794 211.859 187.46C212.365 187.122 212.924 186.959 213.535 186.972C213.686 186.975 213.848 186.988 214.021 187.011C214.195 187.033 214.346 187.063 214.475 187.098L214.184 189.767C214.046 189.722 213.854 189.68 213.607 189.642C213.359 189.603 213.132 189.582 212.923 189.578C212.478 189.568 212.07 189.656 211.699 189.842C211.333 190.023 211.03 190.28 210.789 190.615C210.553 190.95 210.411 191.338 210.363 191.781L209.695 197.916L206.67 197.852ZM214.852 198.026L216.033 187.181L219.058 187.245L217.876 198.09L214.852 198.026ZM217.705 185.815C217.255 185.806 216.886 185.649 216.596 185.346C216.312 185.038 216.192 184.674 216.238 184.256C216.283 183.841 216.48 183.489 216.83 183.2C217.184 182.905 217.587 182.763 218.036 182.772C218.486 182.782 218.853 182.941 219.137 183.249C219.427 183.552 219.549 183.911 219.504 184.325C219.459 184.744 219.258 185.101 218.904 185.395C218.554 185.685 218.155 185.825 217.705 185.815ZM224.007 191.936L223.324 198.206L220.3 198.142L221.481 187.297L224.364 187.358L224.155 189.271L224.283 189.274C224.593 188.649 225.052 188.158 225.661 187.803C226.269 187.443 226.978 187.272 227.788 187.289C228.545 187.305 229.187 187.484 229.715 187.826C230.242 188.167 230.629 188.647 230.875 189.266C231.121 189.879 231.198 190.608 231.106 191.45L230.354 198.355L227.329 198.291L228.023 191.923C228.1 191.259 227.986 190.738 227.681 190.358C227.376 189.974 226.921 189.776 226.315 189.763C225.908 189.755 225.539 189.834 225.208 190.002C224.881 190.169 224.612 190.418 224.4 190.749C224.194 191.075 224.063 191.47 224.007 191.936ZM237.184 202.803C236.204 202.782 235.379 202.63 234.707 202.347C234.04 202.069 233.525 201.697 233.163 201.232C232.801 200.766 232.59 200.248 232.529 199.675L235.367 199.361C235.429 199.579 235.542 199.784 235.706 199.977C235.87 200.169 236.097 200.325 236.388 200.444C236.683 200.568 237.05 200.635 237.491 200.644C238.149 200.658 238.708 200.51 239.169 200.199C239.634 199.893 239.907 199.368 239.988 198.624L240.204 196.64L240.076 196.637C239.911 196.936 239.681 197.216 239.387 197.479C239.093 197.741 238.728 197.953 238.293 198.114C237.858 198.274 237.352 198.348 236.774 198.336C235.955 198.319 235.23 198.115 234.599 197.724C233.973 197.328 233.504 196.736 233.191 195.946C232.884 195.151 232.796 194.154 232.926 192.954C233.06 191.725 233.373 190.703 233.865 189.888C234.357 189.073 234.96 188.468 235.672 188.073C236.388 187.677 237.147 187.488 237.947 187.505C238.558 187.518 239.058 187.633 239.447 187.848C239.837 188.06 240.14 188.321 240.358 188.632C240.581 188.939 240.745 189.24 240.85 189.534L240.964 189.537L241.162 187.715L244.166 187.779L242.973 198.73C242.872 199.652 242.561 200.419 242.039 201.031C241.517 201.643 240.836 202.095 239.998 202.389C239.163 202.687 238.226 202.825 237.184 202.803ZM237.979 196.097C238.466 196.108 238.891 195.996 239.254 195.763C239.621 195.526 239.919 195.183 240.148 194.735C240.383 194.282 240.535 193.738 240.604 193.103C240.673 192.467 240.643 191.915 240.514 191.445C240.385 190.97 240.165 190.6 239.852 190.334C239.54 190.068 239.139 189.93 238.652 189.919C238.155 189.909 237.721 190.034 237.351 190.295C236.982 190.551 236.684 190.913 236.457 191.38C236.231 191.847 236.084 192.389 236.017 193.005C235.949 193.631 235.977 194.175 236.103 194.635C236.233 195.091 236.453 195.447 236.762 195.703C237.076 195.955 237.482 196.087 237.979 196.097ZM250.076 198.775L251.652 184.315L257.389 184.437C258.492 184.46 259.409 184.689 260.139 185.125C260.871 185.556 261.399 186.145 261.726 186.892C262.058 187.635 262.172 188.487 262.067 189.447C261.962 190.408 261.662 191.25 261.165 191.976C260.669 192.701 260.003 193.26 259.168 193.653C258.337 194.046 257.363 194.23 256.246 194.207L252.589 194.129L252.856 191.679L256.016 191.746C256.608 191.759 257.106 191.668 257.512 191.474C257.923 191.275 258.242 190.996 258.471 190.638C258.705 190.275 258.848 189.855 258.9 189.38C258.952 188.9 258.901 188.479 258.746 188.117C258.596 187.751 258.338 187.464 257.971 187.258C257.605 187.048 257.124 186.936 256.527 186.923L254.454 186.879L253.151 198.84L250.076 198.775ZM267.737 199.362C266.615 199.338 265.674 199.092 264.914 198.623C264.159 198.149 263.609 197.491 263.265 196.649C262.92 195.802 262.81 194.806 262.935 193.662C263.057 192.547 263.381 191.572 263.908 190.739C264.436 189.906 265.12 189.262 265.962 188.808C266.809 188.354 267.767 188.139 268.837 188.162C269.556 188.177 270.213 188.307 270.808 188.55C271.409 188.79 271.916 189.142 272.33 189.609C272.749 190.075 273.051 190.657 273.236 191.355C273.421 192.048 273.464 192.855 273.363 193.778L273.273 194.604L264.064 194.408L264.267 192.544L270.629 192.679C270.676 192.246 270.623 191.861 270.47 191.523C270.317 191.184 270.083 190.917 269.768 190.722C269.457 190.522 269.082 190.417 268.642 190.408C268.183 190.398 267.764 190.495 267.386 190.7C267.013 190.899 266.708 191.174 266.471 191.522C266.234 191.867 266.09 192.253 266.038 192.681L265.845 194.453C265.787 194.99 265.836 195.455 265.992 195.85C266.153 196.245 266.406 196.553 266.753 196.772C267.099 196.992 267.525 197.107 268.032 197.118C268.368 197.125 268.681 197.085 268.97 196.996C269.26 196.908 269.514 196.772 269.733 196.588C269.953 196.404 270.129 196.177 270.263 195.906L273.041 196.149C272.826 196.814 272.471 197.392 271.977 197.881C271.487 198.366 270.882 198.74 270.161 199.003C269.445 199.262 268.637 199.381 267.737 199.362ZM274.74 199.299L275.922 188.454L278.854 188.516L278.648 190.408L278.762 190.411C279.034 189.742 279.423 189.241 279.929 188.907C280.436 188.569 280.994 188.406 281.605 188.419C281.757 188.422 281.919 188.435 282.092 188.458C282.265 188.48 282.416 188.509 282.545 188.545L282.254 191.214C282.117 191.168 281.925 191.127 281.677 191.088C281.43 191.05 281.202 191.029 280.994 191.024C280.549 191.015 280.141 191.103 279.769 191.288C279.403 191.469 279.1 191.727 278.86 192.062C278.624 192.396 278.482 192.785 278.434 193.227L277.765 199.363L274.74 199.299ZM292.841 191.913L290.054 192.024C290.032 191.787 289.953 191.573 289.818 191.382C289.682 191.185 289.493 191.028 289.25 190.91C289.012 190.787 288.718 190.721 288.367 190.714C287.899 190.704 287.493 190.794 287.149 190.985C286.806 191.171 286.617 191.427 286.582 191.752C286.553 192.011 286.634 192.232 286.823 192.415C287.011 192.598 287.353 192.749 287.848 192.868L289.779 193.306C290.816 193.545 291.568 193.91 292.037 194.401C292.505 194.892 292.697 195.529 292.611 196.31C292.534 197.021 292.255 197.64 291.776 198.168C291.301 198.695 290.682 199.102 289.92 199.388C289.164 199.669 288.312 199.799 287.365 199.779C285.922 199.749 284.804 199.425 284.012 198.809C283.226 198.189 282.816 197.359 282.782 196.32L285.774 196.228C285.816 196.668 285.997 197.007 286.318 197.245C286.639 197.478 287.069 197.6 287.609 197.612C288.139 197.623 288.576 197.531 288.92 197.335C289.269 197.135 289.464 196.873 289.504 196.548C289.529 196.275 289.437 196.049 289.229 195.87C289.021 195.686 288.686 195.542 288.223 195.438L286.375 195.024C285.333 194.789 284.58 194.405 284.116 193.872C283.657 193.338 283.471 192.667 283.56 191.857C283.635 191.161 283.89 190.565 284.324 190.069C284.762 189.573 285.342 189.197 286.063 188.938C286.788 188.68 287.617 188.561 288.55 188.581C289.927 188.61 290.98 188.922 291.707 189.518C292.44 190.114 292.818 190.912 292.841 191.913ZM299.055 200.028C297.952 200.004 297.023 199.751 296.269 199.268C295.521 198.78 294.974 198.113 294.63 197.266C294.286 196.414 294.175 195.433 294.296 194.322C294.418 193.201 294.742 192.227 295.269 191.398C295.796 190.565 296.486 189.924 297.336 189.475C298.192 189.021 299.172 188.806 300.275 188.83C301.378 188.853 302.304 189.109 303.052 189.597C303.806 190.08 304.355 190.747 304.699 191.599C305.043 192.446 305.154 193.43 305.032 194.55C304.911 195.661 304.587 196.633 304.06 197.466C303.533 198.295 302.841 198.936 301.985 199.389C301.135 199.838 300.158 200.051 299.055 200.028ZM299.323 197.698C299.825 197.709 300.259 197.576 300.626 197.301C300.993 197.021 301.289 196.636 301.513 196.145C301.742 195.655 301.891 195.094 301.96 194.463C302.029 193.833 302.002 193.268 301.881 192.77C301.764 192.273 301.554 191.876 301.249 191.582C300.944 191.288 300.541 191.135 300.039 191.125C299.532 191.114 299.091 191.249 298.714 191.528C298.342 191.808 298.041 192.193 297.812 192.684C297.588 193.175 297.442 193.735 297.373 194.366C297.304 194.997 297.328 195.561 297.445 196.059C297.566 196.557 297.781 196.953 298.091 197.247C298.406 197.537 298.816 197.687 299.323 197.698ZM310.121 193.766L309.438 200.036L306.413 199.972L307.594 189.127L310.477 189.188L310.269 191.102L310.397 191.104C310.707 190.479 311.166 189.988 311.774 189.633C312.382 189.273 313.092 189.102 313.901 189.119C314.658 189.135 315.301 189.314 315.828 189.656C316.356 189.997 316.742 190.477 316.988 191.096C317.234 191.71 317.312 192.438 317.22 193.28L316.467 200.186L313.443 200.121L314.136 193.753C314.213 193.089 314.099 192.568 313.794 192.188C313.49 191.805 313.035 191.606 312.429 191.593C312.022 191.585 311.652 191.664 311.321 191.832C310.994 191.999 310.725 192.248 310.514 192.579C310.307 192.905 310.176 193.3 310.121 193.766ZM321.939 200.507C321.243 200.492 320.636 200.359 320.118 200.107C319.6 199.851 319.209 199.482 318.944 199C318.683 198.513 318.592 197.912 318.67 197.196C318.736 196.594 318.902 196.09 319.169 195.685C319.436 195.281 319.775 194.958 320.186 194.716C320.597 194.475 321.053 194.296 321.554 194.179C322.06 194.063 322.586 193.984 323.131 193.944C323.773 193.891 324.291 193.841 324.685 193.793C325.08 193.74 325.371 193.656 325.559 193.542C325.747 193.429 325.854 193.256 325.879 193.026L325.883 192.983C325.932 192.536 325.828 192.187 325.57 191.936C325.318 191.686 324.933 191.555 324.418 191.544C323.873 191.532 323.427 191.643 323.079 191.876C322.731 192.105 322.486 192.397 322.343 192.752L319.57 192.467C319.784 191.811 320.125 191.247 320.594 190.776C321.063 190.3 321.641 189.94 322.327 189.695C323.019 189.445 323.8 189.33 324.671 189.348C325.277 189.361 325.849 189.444 326.388 189.597C326.931 189.75 327.402 189.98 327.8 190.285C328.203 190.591 328.505 190.98 328.705 191.451C328.906 191.918 328.971 192.473 328.901 193.118L328.104 200.433L325.235 200.372L325.399 198.868L325.314 198.866C325.102 199.201 324.835 199.495 324.513 199.748C324.192 199.996 323.817 200.188 323.39 200.326C322.962 200.458 322.479 200.518 321.939 200.507ZM323.032 198.45C323.477 198.459 323.879 198.38 324.239 198.213C324.599 198.042 324.893 197.807 325.12 197.51C325.347 197.213 325.481 196.874 325.522 196.493L325.648 195.342C325.546 195.401 325.41 195.455 325.239 195.503C325.073 195.547 324.886 195.588 324.677 195.626C324.47 195.659 324.262 195.69 324.055 195.719C323.849 195.742 323.661 195.764 323.493 195.784C323.132 195.829 322.813 195.904 322.536 196.012C322.258 196.119 322.036 196.268 321.868 196.458C321.701 196.643 321.602 196.877 321.571 197.159C321.526 197.568 321.641 197.885 321.916 198.107C322.196 198.326 322.568 198.44 323.032 198.45ZM335.051 186.087L333.475 200.547L330.45 200.483L332.026 186.023L335.051 186.087ZM340.526 200.697L341.708 189.852L344.733 189.916L343.551 200.761L340.526 200.697ZM343.38 188.486C342.93 188.477 342.56 188.32 342.271 188.017C341.986 187.709 341.867 187.345 341.913 186.926C341.958 186.512 342.155 186.16 342.505 185.87C342.859 185.576 343.261 185.434 343.711 185.443C344.161 185.453 344.528 185.611 344.812 185.919C345.102 186.223 345.224 186.582 345.179 186.996C345.133 187.415 344.933 187.771 344.578 188.066C344.229 188.356 343.829 188.496 343.38 188.486ZM349.682 194.607L348.999 200.877L345.974 200.813L347.156 189.968L350.039 190.029L349.83 191.942L349.958 191.945C350.268 191.319 350.727 190.829 351.335 190.474C351.944 190.114 352.653 189.943 353.462 189.96C354.22 189.976 354.862 190.155 355.39 190.496C355.917 190.838 356.304 191.318 356.549 191.937C356.796 192.55 356.873 193.279 356.781 194.121L356.029 201.026L353.004 200.962L353.698 194.593C353.775 193.93 353.661 193.408 353.356 193.029C353.051 192.645 352.596 192.447 351.99 192.434C351.583 192.425 351.214 192.505 350.882 192.672C350.556 192.84 350.287 193.089 350.075 193.42C349.869 193.745 349.738 194.141 349.682 194.607ZM365.46 190.357L365.213 192.616L358.482 192.473L358.728 190.214L365.46 190.357ZM359.087 201.091L360.354 189.463C360.44 188.677 360.665 188.028 361.029 187.517C361.398 187.006 361.866 186.626 362.434 186.379C363.002 186.131 363.629 186.015 364.315 186.03C364.779 186.039 365.199 186.084 365.575 186.163C365.955 186.241 366.237 186.311 366.42 186.372L365.635 188.619C365.52 188.579 365.377 188.541 365.206 188.504C365.039 188.468 364.866 188.447 364.686 188.444C364.241 188.434 363.919 188.531 363.722 188.735C363.525 188.933 363.406 189.216 363.366 189.583L362.105 201.155L359.087 201.091ZM370.64 201.549C369.537 201.526 368.609 201.272 367.855 200.789C367.106 200.302 366.56 199.634 366.215 198.787C365.872 197.935 365.76 196.954 365.881 195.843C366.003 194.723 366.328 193.748 366.855 192.92C367.382 192.087 368.071 191.445 368.922 190.996C369.778 190.543 370.757 190.328 371.86 190.351C372.963 190.375 373.889 190.63 374.638 191.118C375.392 191.601 375.941 192.268 376.284 193.12C376.629 193.967 376.74 194.951 376.618 196.071C376.497 197.182 376.172 198.154 375.645 198.987C375.118 199.816 374.427 200.457 373.571 200.911C372.72 201.36 371.743 201.573 370.64 201.549ZM370.908 199.219C371.41 199.23 371.844 199.098 372.211 198.823C372.579 198.543 372.874 198.157 373.099 197.667C373.328 197.176 373.477 196.615 373.545 195.985C373.614 195.354 373.588 194.79 373.466 194.292C373.35 193.794 373.139 193.398 372.834 193.104C372.529 192.809 372.126 192.657 371.624 192.646C371.118 192.635 370.676 192.77 370.299 193.05C369.927 193.33 369.627 193.715 369.398 194.205C369.173 194.696 369.027 195.257 368.958 195.887C368.89 196.518 368.913 197.082 369.03 197.58C369.151 198.078 369.367 198.474 369.676 198.769C369.991 199.058 370.402 199.209 370.908 199.219ZM379.746 201.714C379.278 201.704 378.893 201.531 378.593 201.194C378.298 200.853 378.176 200.45 378.227 199.984C378.277 199.522 378.486 199.13 378.853 198.808C379.225 198.486 379.645 198.329 380.114 198.339C380.569 198.349 380.948 198.522 381.253 198.859C381.558 199.196 381.685 199.595 381.635 200.056C381.601 200.367 381.49 200.65 381.301 200.905C381.117 201.156 380.889 201.356 380.616 201.506C380.344 201.652 380.054 201.721 379.746 201.714Z" fill="#EAE7ED"/>
<ellipse cx="7.7359" cy="2.76282" rx="7.7359" ry="2.76282" transform="matrix(0.996195 0.0871557 0.358368 0.93358 347.408 364.421)" fill="#4D1227"/>
<g filter="url(#filter2_df_122_287)">
<ellipse cx="7.7359" cy="2.76282" rx="7.7359" ry="2.76282" transform="matrix(0.996195 0.0871557 0.358368 0.93358 347.408 364.421)" fill="#4D1227"/>
</g>
<path d="M247.873 62.3078C243.972 55.9423 205.066 53.0248 186.1 52.3617L312.085 56.3402C271.851 55.0696 251.937 57.5337 247.873 62.3078Z" fill="#272727"/>
<g style="mix-blend-mode:darken">
<rect width="167.917" height="46.4624" rx="23.2312" transform="matrix(0.999391 0.0348995 -0.121869 0.992546 169.66 5.94629)" fill="#161515"/>
</g>
<rect x="0.969774" y="1.13546" width="165.707" height="44.2522" rx="22.1261" transform="matrix(0.999391 0.0348995 -0.121869 0.992546 169.799 6.73597)" stroke="url(#paint5_linear_122_287)" stroke-width="2.21026"/>
<path d="M208.579 29.6203C208.59 29.1158 208.423 28.7177 208.076 28.426C207.73 28.1344 207.23 27.9771 206.577 27.9543C206.134 27.9389 205.752 27.9881 205.431 28.1021C205.111 28.2119 204.856 28.372 204.666 28.5824C204.481 28.7929 204.371 29.0352 204.338 29.3095C204.301 29.5377 204.325 29.7388 204.409 29.9128C204.496 30.0869 204.627 30.2396 204.8 30.3709C204.973 30.4979 205.178 30.6115 205.413 30.7115C205.649 30.8074 205.904 30.8914 206.176 30.9635L207.297 31.278C207.843 31.4222 208.337 31.6064 208.78 31.8305C209.223 32.0546 209.597 32.3243 209.903 32.6396C210.209 32.9549 210.431 33.3215 210.569 33.7394C210.711 34.1574 210.751 34.6325 210.69 35.1644C210.59 35.9454 210.306 36.6156 209.838 37.1751C209.375 37.7306 208.752 38.1532 207.968 38.443C207.189 38.7288 206.277 38.8534 205.231 38.8169C204.194 38.7806 203.309 38.5912 202.578 38.2485C201.852 37.906 201.311 37.4177 200.956 36.7836C200.606 36.1455 200.476 35.3669 200.568 34.4479L203.198 34.5398C203.174 34.9687 203.254 35.3304 203.436 35.6247C203.623 35.9149 203.892 36.1392 204.242 36.2975C204.597 36.4518 205.009 36.5371 205.478 36.5534C205.938 36.5695 206.345 36.517 206.701 36.3959C207.06 36.2749 207.348 36.0993 207.566 35.869C207.783 35.6388 207.911 35.3699 207.948 35.0624C207.984 34.7757 207.927 34.5318 207.78 34.3305C207.636 34.1294 207.41 33.9546 207.101 33.8061C206.795 33.6577 206.415 33.5192 205.96 33.3907L204.604 32.9928C203.552 32.6932 202.747 32.2541 202.188 31.6754C201.629 31.0967 201.409 30.3359 201.529 29.3929C201.62 28.6199 201.91 27.952 202.399 27.3891C202.893 26.8263 203.527 26.3957 204.304 26.0974C205.08 25.799 205.936 25.6662 206.873 25.6989C207.827 25.7322 208.64 25.9233 209.311 26.2722C209.987 26.6213 210.488 27.0915 210.814 27.6829C211.141 28.2744 211.264 28.9504 211.183 29.7112L208.579 29.6203ZM218.322 29.4786L218.077 31.4729L212.272 31.2702L212.517 29.2759L218.322 29.4786ZM214.117 27.0284L216.79 27.1218L215.694 36.0465C215.664 36.2916 215.678 36.484 215.737 36.6238C215.796 36.7594 215.889 36.8565 216.016 36.9152C216.148 36.974 216.303 37.0066 216.483 37.0129C216.609 37.0172 216.735 37.0112 216.863 36.9949C216.992 36.9743 217.091 36.959 217.159 36.9488L217.337 38.9392C217.198 38.976 217.004 39.0173 216.754 39.0628C216.505 39.1125 216.205 39.1375 215.857 39.1378C215.209 39.1403 214.655 39.0354 214.194 38.8232C213.737 38.6111 213.399 38.2947 213.182 37.874C212.965 37.4533 212.897 36.9294 212.978 36.3021L214.117 27.0284ZM223.117 39.4477C222.142 39.4137 221.324 39.1786 220.663 38.7424C220.007 38.3022 219.532 37.7056 219.238 36.9526C218.945 36.1954 218.858 35.3266 218.978 34.346C219.1 33.3572 219.398 32.4997 219.874 31.7735C220.35 31.0432 220.967 30.4848 221.725 30.0981C222.487 29.7075 223.355 29.5292 224.33 29.5632C225.305 29.5973 226.12 29.8344 226.776 30.2745C227.437 30.7107 227.914 31.3074 228.208 32.0645C228.502 32.8176 228.588 33.6885 228.467 34.6774C228.346 35.6579 228.048 36.5133 227.572 37.2436C227.096 37.9697 226.477 38.5281 225.715 38.9188C224.957 39.3054 224.091 39.4817 223.117 39.4477ZM223.382 37.3915C223.825 37.407 224.211 37.2952 224.538 37.0563C224.866 36.8132 225.133 36.4762 225.337 36.0452C225.545 35.6143 225.683 35.1205 225.752 34.5638C225.82 34.007 225.804 33.5078 225.703 33.0661C225.606 32.6246 225.424 32.2719 225.158 32.0081C224.892 31.7443 224.538 31.6046 224.094 31.5892C223.646 31.5735 223.254 31.6871 222.918 31.9299C222.586 32.1728 222.315 32.5097 222.107 32.9406C221.903 33.3716 221.766 33.8655 221.698 34.4222C221.63 34.979 221.644 35.4781 221.741 35.9196C221.842 36.3613 222.028 36.7141 222.298 36.9781C222.573 37.238 222.934 37.3758 223.382 37.3915ZM229.181 43.0769L230.797 29.9142L233.433 30.0063L233.236 31.6142L233.355 31.6184C233.504 31.3649 233.705 31.109 233.959 30.8509C234.219 30.5887 234.539 30.3745 234.921 30.2084C235.307 30.0383 235.77 29.9627 236.31 29.9816C237.013 30.0061 237.639 30.2116 238.188 30.5979C238.737 30.9802 239.145 31.5431 239.411 32.2868C239.677 33.0263 239.743 33.9445 239.609 35.0414C239.477 36.1092 239.193 37.0048 238.756 37.728C238.323 38.4473 237.786 38.9856 237.146 39.343C236.51 39.6963 235.826 39.8602 235.094 39.8347C234.575 39.8165 234.144 39.716 233.801 39.5329C233.462 39.35 233.193 39.1257 232.995 38.8601C232.797 38.5903 232.654 38.3203 232.565 38.0501L232.483 38.0473L231.854 43.1703L229.181 43.0769ZM232.826 34.792C232.757 35.3613 232.775 35.8606 232.882 36.2899C232.989 36.7193 233.178 37.0576 233.451 37.3049C233.723 37.5481 234.075 37.6773 234.506 37.6923C234.941 37.7075 235.324 37.6019 235.654 37.3756C235.985 37.1452 236.254 36.8207 236.46 36.4023C236.672 35.9799 236.812 35.4904 236.88 34.9336C236.948 34.381 236.93 33.8922 236.827 33.4671C236.724 33.0421 236.536 32.7059 236.264 32.4585C235.992 32.2112 235.636 32.0799 235.197 32.0645C234.762 32.0493 234.38 32.1507 234.05 32.3687C233.725 32.5869 233.458 32.903 233.247 33.3171C233.037 33.7312 232.896 34.2228 232.826 34.792ZM244.945 40.0222L246.512 27.2584L249.229 27.3532L247.935 37.8921L253.445 38.0845L253.172 40.3095L244.945 40.0222ZM259.253 40.7096C258.278 40.6756 257.46 40.4405 256.8 40.0043C256.144 39.5641 255.669 38.9675 255.375 38.2145C255.081 37.4573 254.994 36.5885 255.115 35.6079C255.236 34.6191 255.535 33.7616 256.011 33.0354C256.487 32.3052 257.104 31.7467 257.861 31.36C258.623 30.9694 259.492 30.7911 260.467 30.8251C261.441 30.8592 262.257 31.0963 262.913 31.5365C263.573 31.9726 264.051 32.5693 264.344 33.3265C264.638 34.0795 264.725 34.9504 264.603 35.9393C264.483 36.9198 264.184 37.7752 263.708 38.5055C263.233 39.2317 262.614 39.79 261.851 40.1807C261.094 40.5673 260.228 40.7436 259.253 40.7096ZM259.518 38.6534C259.961 38.6689 260.347 38.5571 260.675 38.3182C261.003 38.0751 261.269 37.7381 261.473 37.3071C261.682 36.8762 261.82 36.3824 261.888 35.8257C261.957 35.2689 261.94 34.7697 261.839 34.3281C261.742 33.8865 261.56 33.5339 261.295 33.27C261.029 33.0062 260.674 32.8666 260.23 32.8511C259.783 32.8354 259.391 32.949 259.054 33.1918C258.722 33.4347 258.452 33.7716 258.243 34.2025C258.039 34.6335 257.903 35.1274 257.834 35.6841C257.766 36.2409 257.78 36.74 257.877 37.1815C257.979 37.6232 258.164 37.976 258.434 38.24C258.709 38.5 259.07 38.6377 259.518 38.6534ZM269.636 44.6899C268.77 44.6597 268.042 44.5153 267.451 44.2569C266.865 44.0027 266.415 43.6678 266.1 43.2521C265.786 42.8363 265.605 42.3752 265.558 41.8686L268.071 41.6247C268.123 41.8184 268.22 42.0012 268.363 42.1731C268.505 42.345 268.705 42.4855 268.96 42.5946C269.219 42.7079 269.543 42.7714 269.932 42.785C270.514 42.8053 271.01 42.6808 271.422 42.4114C271.836 42.1463 272.084 41.6855 272.165 41.0291L272.38 39.2778L272.267 39.2738C272.117 39.5357 271.911 39.7809 271.647 40.0095C271.384 40.2382 271.059 40.4209 270.672 40.5576C270.286 40.6943 269.837 40.7538 269.327 40.7359C268.603 40.7107 267.965 40.5215 267.411 40.1683C266.863 39.8112 266.455 39.2816 266.189 38.5796C265.927 37.8736 265.861 36.9909 265.991 35.9314C266.124 34.847 266.413 33.9474 266.858 33.2327C267.303 32.518 267.842 31.9902 268.476 31.6494C269.115 31.3086 269.788 31.1506 270.495 31.1753C271.034 31.1942 271.475 31.3013 271.816 31.4969C272.158 31.6882 272.424 31.9228 272.612 32.2006C272.806 32.4744 272.947 32.7423 273.037 33.0041L273.137 33.0076L273.335 31.3997L275.989 31.4924L274.802 41.1587C274.702 41.9731 274.418 42.6475 273.949 43.1819C273.48 43.7163 272.873 44.1082 272.128 44.3576C271.387 44.6113 270.556 44.7221 269.636 44.6899ZM270.419 38.7712C270.85 38.7862 271.227 38.693 271.55 38.4914C271.878 38.2859 272.146 37.9865 272.353 37.5932C272.566 37.1958 272.707 36.7167 272.776 36.1558C272.845 35.5949 272.825 35.106 272.716 34.6891C272.608 34.2681 272.418 33.938 272.145 33.699C271.872 33.46 271.52 33.3329 271.089 33.3179C270.649 33.3025 270.265 33.408 269.934 33.6343C269.604 33.8565 269.337 34.1726 269.131 34.5827C268.925 34.9928 268.789 35.47 268.722 36.0143C268.654 36.5669 268.673 37.0474 268.778 37.4558C268.888 37.8602 269.078 38.1777 269.348 38.4083C269.623 38.6349 269.98 38.7558 270.419 38.7712ZM276.941 41.1395L278.116 31.5667L280.79 31.66L279.614 41.2329L276.941 41.1395ZM279.611 30.3795C279.213 30.3657 278.888 30.2229 278.636 29.9512C278.388 29.6755 278.287 29.3527 278.333 28.983C278.378 28.6173 278.556 28.3085 278.869 28.0566C279.186 27.8006 279.543 27.6795 279.941 27.6934C280.338 27.7073 280.661 27.8521 280.908 28.1278C281.161 28.3995 281.264 28.7181 281.219 29.0838C281.174 29.4535 280.993 29.7664 280.676 30.0224C280.363 30.2744 280.008 30.3934 279.611 30.3795ZM285.108 35.8667L284.429 41.401L281.756 41.3076L282.931 31.7348L285.479 31.8238L285.271 33.5127L285.384 33.5167C285.666 32.9674 286.078 32.5394 286.62 32.2329C287.162 31.9222 287.791 31.7793 288.506 31.8043C289.176 31.8277 289.741 31.9935 290.204 32.3017C290.666 32.6099 291.002 33.0389 291.211 33.5887C291.422 34.1343 291.481 34.779 291.39 35.5227L290.641 41.618L287.968 41.5246L288.658 35.903C288.735 35.3173 288.64 34.855 288.375 34.5161C288.11 34.1731 287.71 33.9922 287.175 33.9735C286.815 33.9609 286.488 34.0267 286.193 34.1708C285.902 34.315 285.661 34.5319 285.47 34.8215C285.284 35.1071 285.163 35.4555 285.108 35.8667ZM301.609 35.1285L299.143 35.1926C299.126 34.9834 299.059 34.7933 298.942 34.6223C298.825 34.4471 298.659 34.3057 298.446 34.1981C298.237 34.0865 297.977 34.0253 297.668 34.0145C297.254 34 296.894 34.075 296.588 34.2396C296.282 34.4 296.112 34.6236 296.077 34.9103C296.049 35.1388 296.117 35.3352 296.282 35.4995C296.446 35.6638 296.747 35.8016 297.183 35.9128L298.884 36.3227C299.798 36.5466 300.459 36.8784 300.867 37.3183C301.275 37.7582 301.437 38.323 301.352 39.0127C301.275 39.6401 301.021 40.1841 300.591 40.6447C300.165 41.1055 299.613 41.4576 298.936 41.7011C298.264 41.9405 297.509 42.0456 296.673 42.0163C295.397 41.9718 294.412 41.6724 293.72 41.1183C293.032 40.5602 292.68 39.8218 292.662 38.9032L295.308 38.8579C295.34 39.2471 295.497 39.5488 295.777 39.7631C296.058 39.9732 296.437 40.0866 296.914 40.1032C297.382 40.1196 297.77 40.0434 298.076 39.8747C298.387 39.7019 298.563 39.4723 298.602 39.1858C298.627 38.9446 298.549 38.7437 298.367 38.583C298.186 38.4181 297.891 38.2868 297.483 38.189L295.854 37.8004C294.936 37.5806 294.275 37.2321 293.871 36.7548C293.472 36.2777 293.316 35.6818 293.404 34.9672C293.479 34.3522 293.712 33.8283 294.101 33.3954C294.495 32.9627 295.011 32.6365 295.652 32.4168C296.296 32.1973 297.031 32.102 297.855 32.1308C299.072 32.1733 299.999 32.4623 300.635 32.9977C301.275 33.5333 301.6 34.2436 301.609 35.1285ZM304.214 42.2546C303.8 42.2402 303.462 42.0823 303.201 41.7811C302.944 41.4759 302.841 41.1176 302.892 40.7063C302.942 40.2991 303.131 39.9552 303.459 39.6746C303.792 39.3941 304.166 39.2611 304.58 39.2756C304.981 39.2896 305.315 39.4473 305.58 39.7487C305.846 40.05 305.954 40.4043 305.904 40.8115C305.87 41.0857 305.768 41.3346 305.598 41.5581C305.432 41.7777 305.228 41.9521 304.985 42.0813C304.743 42.2064 304.486 42.2641 304.214 42.2546Z" fill="#272727"/>
</g>
<defs>
<filter id="filter0_df_122_287" x="291.946" y="211.154" width="330.895" height="144.033" filterUnits="userSpaceOnUse" color-interpolation-filters="sRGB">
<feFlood flood-opacity="0" result="BackgroundImageFix"/>
<feColorMatrix in="SourceAlpha" type="matrix" values="0 0 0 0 0 0 0 0 0 0 0 0 0 0 0 0 0 0 127 0" result="hardAlpha"/>
<feOffset dy="4.42051"/>
<feGaussianBlur stdDeviation="16.0244"/>
<feComposite in2="hardAlpha" operator="out"/>
<feColorMatrix type="matrix" values="0 0 0 0 0.760784 0 0 0 0 0.278431 0 0 0 0 0.45098 0 0 0 1 0"/>
<feBlend mode="normal" in2="BackgroundImageFix" result="effect1_dropShadow_122_287"/>
<feBlend mode="normal" in="SourceGraphic" in2="effect1_dropShadow_122_287" result="shape"/>
<feGaussianBlur stdDeviation="7.18333" result="effect2_foregroundBlur_122_287"/>
</filter>
<filter id="filter1_df_122_287" x="41.6111" y="128.449" width="416.814" height="133.144" filterUnits="userSpaceOnUse" color-interpolation-filters="sRGB">
<feFlood flood-opacity="0" result="BackgroundImageFix"/>
<feColorMatrix in="SourceAlpha" type="matrix" values="0 0 0 0 0 0 0 0 0 0 0 0 0 0 0 0 0 0 127 0" result="hardAlpha"/>
<feOffset dy="4.42051"/>
<feGaussianBlur stdDeviation="16.0244"/>
<feComposite in2="hardAlpha" operator="out"/>
<feColorMatrix type="matrix" values="0 0 0 0 0.760784 0 0 0 0 0.278431 0 0 0 0 0.45098 0 0 0 1 0"/>
<feBlend mode="normal" in2="BackgroundImageFix" result="effect1_dropShadow_122_287"/>
<feBlend mode="normal" in="SourceGraphic" in2="effect1_dropShadow_122_287" result="shape"/>
<feGaussianBlur stdDeviation="7.18333" result="effect2_foregroundBlur_122_287"/>
</filter>
<filter id="filter2_df_122_287" x="316.285" y="337.379" width="79.6387" height="69.4307" filterUnits="userSpaceOnUse" color-interpolation-filters="sRGB">
<feFlood flood-opacity="0" result="BackgroundImageFix"/>
<feColorMatrix in="SourceAlpha" type="matrix" values="0 0 0 0 0 0 0 0 0 0 0 0 0 0 0 0 0 0 127 0" result="hardAlpha"/>
<feOffset dy="4.42051"/>
<feGaussianBlur stdDeviation="16.0244"/>
<feComposite in2="hardAlpha" operator="out"/>
<feColorMatrix type="matrix" values="0 0 0 0 0.760784 0 0 0 0 0.278431 0 0 0 0 0.45098 0 0 0 1 0"/>
<feBlend mode="normal" in2="BackgroundImageFix" result="effect1_dropShadow_122_287"/>
<feBlend mode="normal" in="SourceGraphic" in2="effect1_dropShadow_122_287" result="shape"/>
<feGaussianBlur stdDeviation="7.18333" result="effect2_foregroundBlur_122_287"/>
</filter>
<linearGradient id="paint0_linear_122_287" x1="270.5" y1="58" x2="270.5" y2="369" gradientUnits="userSpaceOnUse">
<stop offset="0.208333" stop-color="#272727"/>
<stop offset="0.46875" stop-color="#D1824B"/>
<stop offset="1" stop-color="#C34675"/>
</linearGradient>
<linearGradient id="paint1_linear_122_287" x1="133.203" y1="0" x2="133.203" y2="73.7144" gradientUnits="userSpaceOnUse">
<stop stop-color="#C44874"/>
<stop offset="1" stop-color="#500F26"/>
</linearGradient>
<linearGradient id="paint2_linear_122_287" x1="133.203" y1="0" x2="133.203" y2="73.7144" gradientUnits="userSpaceOnUse">
<stop stop-color="#C44874"/>
<stop offset="1" stop-color="#500F26"/>
</linearGradient>
<linearGradient id="paint3_linear_122_287" x1="175.849" y1="0" x2="175.849" y2="63.6384" gradientUnits="userSpaceOnUse">
<stop stop-color="#C96163"/>
<stop offset="1" stop-color="#4A1617"/>
</linearGradient>
<linearGradient id="paint4_linear_122_287" x1="175.849" y1="0" x2="175.849" y2="63.6384" gradientUnits="userSpaceOnUse">
<stop stop-color="#C96163"/>
<stop offset="1" stop-color="#4A1617"/>
</linearGradient>
<linearGradient id="paint5_linear_122_287" x1="83.9584" y1="0" x2="83.9584" y2="46.4624" gradientUnits="userSpaceOnUse">
<stop stop-color="#272727"/>
<stop offset="1" stop-color="#272727"/>
</linearGradient>
<clipPath id="clip0_122_287">
<rect width="635" height="410" fill="white"/>
</clipPath>
</defs>
</svg>
