<svg width="635" height="410" viewBox="0 0 635 410" fill="none" xmlns="http://www.w3.org/2000/svg">
<g clip-path="url(#clip0_122_394)">
<rect x="1.98621" y="0.722921" width="442.15" height="146.403" transform="matrix(0.99863 0.052336 0.798635 0.601815 -96.6051 73.0472)" stroke="#EAE7ED" stroke-opacity="0.85" stroke-width="2.21026"/>
<rect x="1.98621" y="0.722921" width="508.658" height="146.403" transform="matrix(0.99863 0.052336 0.798635 0.601815 -102.573 114.285)" stroke="#EAE7ED" stroke-opacity="0.85" stroke-width="2.21026"/>
<rect x="1.98621" y="0.722921" width="508.983" height="146.403" transform="matrix(0.99863 0.052336 0.798635 0.601815 -43.5539 158.987)" stroke="#EAE7ED" stroke-opacity="0.85" stroke-width="2.21026"/>
<rect x="1.98621" y="0.722921" width="442.605" height="146.403" transform="matrix(0.99863 0.052336 0.798635 0.601815 81.8807 206.996)" stroke="#EAE7ED" stroke-opacity="0.85" stroke-width="2.21026"/>
<rect x="1.98621" y="0.722921" width="444.327" height="146.403" transform="matrix(0.99863 0.052336 0.798635 0.601815 139.574 251.628)" stroke="#EAE7ED" stroke-opacity="0.85" stroke-width="2.21026"/>
<rect x="0.221019" y="-0.607245" width="445.029" height="146.403" transform="matrix(-0.798635 -0.601815 0.99863 0.052336 320.459 385.955)" stroke="#EAE7ED" stroke-opacity="0.85" stroke-width="2.21026"/>
<mask id="path-7-inside-1_122_394" fill="white">
<path d="M467.865 394.175L-10.0093 34.0712L138.4 41.849L616.275 401.953L467.865 394.175Z"/>
</mask>
<path d="M136.193 41.7333L614.067 401.837L618.482 402.069L140.607 41.9647L136.193 41.7333Z" fill="#EAE7ED" fill-opacity="0.85" mask="url(#path-7-inside-1_122_394)"/>
<rect x="0.221019" y="-0.607245" width="596.153" height="146.403" transform="matrix(-0.798635 -0.601815 0.99863 0.052336 617.279 401.511)" stroke="#EAE7ED" stroke-opacity="0.85" stroke-width="2.21026"/>
<path d="M357.973 369L304.441 321.455L454 328.167L333.69 238.112L181.371 230.84L87 143.022L367.907 155.327L243.734 58" stroke="url(#paint0_linear_122_394)" stroke-width="2.21026"/>
<path d="M452.365 327.951C446.171 317.342 384.399 312.48 354.287 311.375L554.315 318.005C490.435 315.888 458.818 319.995 452.365 327.951Z" fill="#521027"/>
<g style="mix-blend-mode:darken">
<rect width="266.406" height="73.7144" rx="36.8572" transform="matrix(0.999391 0.0348995 -0.121869 0.992546 328.763 236.226)" fill="#161515"/>
</g>
<rect x="0.969774" y="1.13546" width="264.196" height="71.5041" rx="35.7521" transform="matrix(0.999391 0.0348995 -0.121869 0.992546 328.902 237.494)" stroke="url(#paint1_linear_122_394)" stroke-width="2.21026"/>
<g filter="url(#filter0_df_122_394)">
<rect x="0.969774" y="1.13546" width="264.196" height="71.5041" rx="35.7521" transform="matrix(0.999391 0.0348995 -0.121869 0.992546 328.902 237.494)" stroke="url(#paint2_linear_122_394)" stroke-width="2.21026" shape-rendering="crispEdges"/>
</g>
<path d="M401.386 272.79C401.402 272.105 401.175 271.565 400.704 271.169C400.234 270.773 399.556 270.559 398.67 270.528C398.068 270.507 397.549 270.574 397.114 270.729C396.68 270.878 396.334 271.095 396.076 271.381C395.824 271.667 395.676 271.996 395.63 272.368C395.58 272.678 395.612 272.951 395.726 273.187C395.845 273.423 396.022 273.63 396.257 273.808C396.492 273.981 396.77 274.135 397.09 274.271C397.41 274.401 397.756 274.515 398.126 274.613L399.647 275.04C400.387 275.235 401.058 275.485 401.659 275.79C402.261 276.094 402.769 276.46 403.184 276.888C403.599 277.316 403.9 277.813 404.087 278.381C404.28 278.948 404.335 279.593 404.252 280.315C404.116 281.375 403.73 282.285 403.095 283.044C402.467 283.798 401.621 284.372 400.557 284.765C399.5 285.153 398.262 285.322 396.843 285.272C395.434 285.223 394.234 284.966 393.242 284.501C392.255 284.036 391.521 283.373 391.04 282.512C390.564 281.646 390.389 280.59 390.514 279.342L394.082 279.467C394.051 280.049 394.159 280.54 394.406 280.939C394.66 281.333 395.025 281.638 395.5 281.853C395.982 282.062 396.541 282.178 397.177 282.2C397.802 282.222 398.355 282.151 398.837 281.986C399.325 281.822 399.716 281.584 400.011 281.271C400.306 280.959 400.479 280.594 400.531 280.176C400.578 279.787 400.502 279.456 400.302 279.183C400.107 278.91 399.8 278.673 399.38 278.471C398.965 278.27 398.45 278.082 397.832 277.907L395.991 277.367C394.564 276.961 393.471 276.365 392.712 275.579C391.953 274.794 391.655 273.761 391.818 272.481C391.941 271.432 392.335 270.525 392.999 269.761C393.668 268.997 394.53 268.413 395.583 268.008C396.637 267.603 397.8 267.423 399.071 267.467C400.366 267.512 401.469 267.772 402.38 268.245C403.297 268.719 403.978 269.357 404.421 270.16C404.864 270.963 405.031 271.881 404.921 272.913L401.386 272.79ZM414.611 272.597L414.279 275.304L406.4 275.029L406.732 272.322L414.611 272.597ZM408.903 269.272L412.532 269.398L411.044 281.512C411.003 281.845 411.023 282.106 411.102 282.296C411.182 282.48 411.308 282.611 411.481 282.691C411.659 282.771 411.871 282.815 412.115 282.824C412.285 282.83 412.457 282.821 412.631 282.799C412.806 282.771 412.939 282.751 413.032 282.737L413.274 285.438C413.085 285.488 412.822 285.544 412.483 285.606C412.144 285.674 411.738 285.707 411.265 285.708C410.386 285.711 409.634 285.569 409.007 285.281C408.387 284.993 407.929 284.564 407.634 283.993C407.34 283.422 407.247 282.71 407.358 281.859L408.903 269.272ZM421.119 286.129C419.796 286.082 418.686 285.763 417.789 285.171C416.898 284.574 416.254 283.764 415.855 282.742C415.456 281.714 415.339 280.535 415.502 279.204C415.667 277.862 416.072 276.698 416.718 275.712C417.364 274.721 418.201 273.963 419.229 273.438C420.264 272.908 421.443 272.666 422.766 272.712C424.089 272.758 425.196 273.08 426.086 273.678C426.983 274.27 427.63 275.08 428.029 276.107C428.428 277.129 428.545 278.311 428.38 279.654C428.217 280.985 427.812 282.146 427.166 283.137C426.52 284.122 425.68 284.88 424.645 285.411C423.617 285.935 422.442 286.175 421.119 286.129ZM421.478 283.338C422.08 283.359 422.604 283.207 423.048 282.883C423.494 282.553 423.855 282.095 424.132 281.51C424.415 280.925 424.603 280.255 424.695 279.5C424.788 278.744 424.766 278.066 424.629 277.467C424.497 276.867 424.251 276.389 423.89 276.031C423.529 275.673 423.047 275.483 422.445 275.462C421.838 275.441 421.306 275.595 420.849 275.925C420.398 276.254 420.031 276.712 419.748 277.296C419.471 277.881 419.286 278.552 419.193 279.307C419.1 280.063 419.12 280.741 419.252 281.34C419.389 281.939 419.641 282.418 420.008 282.776C420.381 283.129 420.871 283.316 421.478 283.338ZM429.35 291.054L431.544 273.189L435.121 273.314L434.853 275.496L435.015 275.502C435.217 275.158 435.49 274.81 435.836 274.46C436.187 274.104 436.622 273.813 437.14 273.588C437.665 273.357 438.293 273.254 439.026 273.28C439.98 273.313 440.83 273.592 441.575 274.117C442.321 274.635 442.874 275.4 443.235 276.409C443.597 277.413 443.686 278.659 443.503 280.148C443.325 281.597 442.939 282.813 442.346 283.794C441.758 284.771 441.03 285.501 440.16 285.986C439.297 286.466 438.369 286.688 437.375 286.654C436.671 286.629 436.086 286.493 435.621 286.244C435.161 285.996 434.796 285.691 434.527 285.331C434.258 284.965 434.063 284.598 433.943 284.232L433.832 284.228L432.979 291.181L429.35 291.054ZM434.298 279.809C434.203 280.582 434.228 281.26 434.373 281.842C434.518 282.425 434.776 282.884 435.145 283.22C435.515 283.55 435.993 283.725 436.577 283.746C437.168 283.767 437.687 283.623 438.136 283.316C438.585 283.003 438.95 282.563 439.23 281.995C439.517 281.422 439.707 280.757 439.8 280.001C439.892 279.251 439.868 278.588 439.728 278.011C439.588 277.434 439.333 276.978 438.964 276.642C438.594 276.306 438.112 276.128 437.515 276.107C436.925 276.087 436.406 276.224 435.959 276.52C435.518 276.816 435.154 277.245 434.869 277.807C434.583 278.369 434.393 279.037 434.298 279.809ZM453.753 287.013L449.801 286.875L457.95 269.761L462.702 269.927L466.589 287.461L462.637 287.323L459.908 273.805L459.772 273.801L453.753 287.013ZM454.342 280.195L463.677 280.521L463.326 283.38L453.991 283.054L454.342 280.195ZM472.806 287.891C471.812 287.856 470.943 287.571 470.199 287.035C469.462 286.494 468.918 285.719 468.569 284.71C468.226 283.696 468.143 282.464 468.321 281.014C468.504 279.526 468.897 278.296 469.501 277.326C470.106 276.35 470.838 275.631 471.699 275.169C472.567 274.7 473.48 274.483 474.44 274.517C475.172 274.542 475.767 274.688 476.225 274.953C476.689 275.213 477.05 275.531 477.306 275.908C477.568 276.28 477.757 276.643 477.873 276.998L477.984 277.002L478.784 270.489L482.404 270.615L480.276 287.939L476.699 287.815L476.954 285.734L476.801 285.728C476.587 286.083 476.301 286.433 475.945 286.777C475.596 287.116 475.16 287.393 474.637 287.607C474.121 287.821 473.51 287.916 472.806 287.891ZM474.308 285.063C474.893 285.084 475.406 284.943 475.848 284.642C476.297 284.334 476.664 283.897 476.95 283.329C477.242 282.762 477.436 282.092 477.531 281.319C477.626 280.546 477.6 279.872 477.454 279.294C477.308 278.717 477.05 278.267 476.679 277.942C476.309 277.618 475.831 277.445 475.246 277.425C474.65 277.404 474.127 277.547 473.679 277.854C473.231 278.162 472.867 278.596 472.587 279.158C472.307 279.721 472.121 280.377 472.028 281.127C471.936 281.883 471.959 282.555 472.097 283.143C472.243 283.726 472.497 284.187 472.86 284.529C473.229 284.864 473.712 285.043 474.308 285.063ZM495.285 279.136L491.939 279.223C491.917 278.939 491.826 278.681 491.666 278.448C491.507 278.211 491.282 278.019 490.992 277.873C490.709 277.721 490.357 277.638 489.937 277.624C489.375 277.604 488.886 277.706 488.471 277.929C488.056 278.147 487.825 278.45 487.777 278.839C487.739 279.15 487.832 279.416 488.055 279.639C488.279 279.862 488.686 280.049 489.278 280.2L491.588 280.757C492.828 281.06 493.725 281.511 494.279 282.108C494.833 282.705 495.052 283.471 494.938 284.408C494.833 285.259 494.489 285.998 493.904 286.623C493.326 287.248 492.577 287.726 491.658 288.057C490.746 288.382 489.722 288.524 488.586 288.485C486.854 288.424 485.518 288.018 484.578 287.266C483.645 286.508 483.166 285.506 483.143 284.259L486.734 284.198C486.778 284.726 486.99 285.135 487.37 285.426C487.752 285.711 488.266 285.865 488.913 285.888C489.549 285.91 490.075 285.807 490.491 285.578C490.913 285.343 491.151 285.031 491.205 284.643C491.239 284.315 491.133 284.043 490.886 283.824C490.64 283.601 490.24 283.422 489.686 283.29L487.475 282.762C486.229 282.464 485.332 281.991 484.784 281.343C484.242 280.695 484.03 279.887 484.149 278.917C484.252 278.082 484.567 277.371 485.096 276.783C485.63 276.196 486.331 275.753 487.2 275.455C488.075 275.157 489.072 275.028 490.191 275.067C491.843 275.124 493.101 275.517 493.964 276.243C494.833 276.97 495.273 277.934 495.285 279.136ZM498.822 288.808C498.26 288.788 497.801 288.574 497.447 288.165C497.098 287.751 496.958 287.265 497.027 286.706C497.095 286.154 497.352 285.687 497.798 285.306C498.249 284.925 498.756 284.745 499.318 284.764C499.863 284.784 500.316 284.998 500.677 285.407C501.037 285.816 501.183 286.296 501.115 286.849C501.07 287.221 500.931 287.559 500.7 287.863C500.475 288.161 500.198 288.397 499.869 288.573C499.54 288.742 499.191 288.821 498.822 288.808Z" fill="#EAE7ED"/>
<ellipse cx="7.7359" cy="2.76282" rx="7.7359" ry="2.76282" transform="matrix(0.996195 0.0871557 0.358368 0.93358 347.408 364.421)" fill="#4D1227"/>
<g filter="url(#filter1_df_122_394)">
<ellipse cx="7.7359" cy="2.76282" rx="7.7359" ry="2.76282" transform="matrix(0.996195 0.0871557 0.358368 0.93358 347.408 364.421)" fill="#4D1227"/>
</g>
<path d="M180.276 230.912C174.971 222.071 122.072 218.018 96.2859 217.098L267.581 222.623C212.877 220.859 185.801 224.281 180.276 230.912Z" fill="#272727"/>
<g style="mix-blend-mode:darken">
<rect width="351.698" height="63.6384" rx="31.8192" transform="matrix(0.999745 0.0225907 -0.186426 0.982469 78.8639 153)" fill="#161515"/>
</g>
<rect x="0.898822" y="1.11072" width="349.487" height="61.4282" rx="30.7141" transform="matrix(0.999745 0.0225907 -0.186426 0.982469 79.0712 154.104)" stroke="#282828" stroke-width="2.21026"/>
<rect x="0.898822" y="1.11072" width="349.487" height="61.4282" rx="30.7141" transform="matrix(0.999745 0.0225907 -0.186426 0.982469 79.0711 154.104)" stroke="#272727" stroke-width="2.21026"/>
<path d="M126.975 184.599C126.981 184.028 126.785 183.58 126.389 183.256C125.992 182.931 125.425 182.761 124.686 182.746C124.185 182.735 123.753 182.796 123.392 182.93C123.032 183.06 122.746 183.245 122.535 183.485C122.328 183.726 122.208 184.002 122.174 184.313C122.136 184.571 122.166 184.799 122.264 184.994C122.366 185.19 122.515 185.36 122.713 185.506C122.911 185.647 123.144 185.772 123.412 185.882C123.681 185.987 123.97 186.078 124.279 186.155L125.552 186.493C126.171 186.648 126.733 186.849 127.237 187.095C127.742 187.342 128.169 187.641 128.52 187.993C128.871 188.345 129.127 188.756 129.29 189.227C129.457 189.697 129.51 190.234 129.449 190.837C129.348 191.721 129.037 192.484 128.516 193.124C128.001 193.759 127.303 194.247 126.421 194.587C125.545 194.922 124.515 195.077 123.331 195.052C122.157 195.027 121.154 194.826 120.322 194.45C119.495 194.074 118.876 193.53 118.465 192.818C118.059 192.102 117.901 191.223 117.99 190.183L120.965 190.246C120.946 190.731 121.041 191.139 121.252 191.469C121.468 191.794 121.775 192.044 122.174 192.218C122.578 192.387 123.045 192.477 123.575 192.488C124.096 192.499 124.556 192.433 124.956 192.291C125.361 192.148 125.684 191.945 125.926 191.682C126.169 191.418 126.309 191.112 126.347 190.764C126.382 190.439 126.315 190.164 126.145 189.938C125.979 189.713 125.721 189.519 125.368 189.356C125.021 189.193 124.589 189.042 124.072 188.904L122.532 188.474C121.338 188.152 120.421 187.668 119.779 187.022C119.138 186.376 118.878 185.519 118.999 184.451C119.09 183.575 119.407 182.815 119.952 182.171C120.501 181.527 121.213 181.03 122.086 180.68C122.959 180.331 123.926 180.168 124.986 180.19C126.065 180.213 126.987 180.417 127.752 180.801C128.522 181.185 129.096 181.709 129.474 182.373C129.852 183.037 130.002 183.8 129.922 184.661L126.975 184.599ZM137.993 184.288L137.747 186.547L131.179 186.408L131.425 184.148L137.993 184.288ZM133.199 181.582L136.224 181.646L135.122 191.757C135.092 192.034 135.111 192.252 135.179 192.409C135.248 192.561 135.355 192.67 135.5 192.734C135.649 192.799 135.826 192.833 136.029 192.838C136.171 192.841 136.315 192.832 136.459 192.811C136.604 192.786 136.716 192.767 136.793 192.755L137.025 195.003C136.868 195.047 136.649 195.096 136.368 195.152C136.086 195.212 135.748 195.245 135.354 195.251C134.622 195.263 133.993 195.153 133.468 194.92C132.948 194.688 132.562 194.335 132.309 193.863C132.057 193.39 131.972 192.799 132.054 192.088L133.199 181.582ZM143.569 195.489C142.466 195.465 141.538 195.212 140.784 194.729C140.035 194.241 139.489 193.574 139.145 192.727C138.801 191.875 138.689 190.894 138.81 189.783C138.933 188.663 139.257 187.688 139.784 186.86C140.311 186.026 141 185.385 141.851 184.936C142.707 184.483 143.686 184.267 144.789 184.291C145.892 184.314 146.818 184.57 147.567 185.058C148.321 185.541 148.87 186.208 149.213 187.06C149.558 187.907 149.669 188.891 149.547 190.011C149.426 191.122 149.102 192.094 148.574 192.927C148.047 193.756 147.356 194.397 146.5 194.851C145.649 195.3 144.672 195.512 143.569 195.489ZM143.837 193.159C144.339 193.17 144.774 193.038 145.14 192.762C145.508 192.482 145.804 192.097 146.028 191.606C146.257 191.116 146.406 190.555 146.474 189.925C146.543 189.294 146.517 188.729 146.396 188.231C146.279 187.734 146.068 187.338 145.763 187.043C145.459 186.749 145.055 186.597 144.554 186.586C144.047 186.575 143.605 186.71 143.228 186.989C142.856 187.269 142.556 187.654 142.327 188.145C142.103 188.636 141.956 189.196 141.887 189.827C141.819 190.458 141.843 191.022 141.959 191.52C142.08 192.018 142.296 192.414 142.605 192.708C142.92 192.998 143.331 193.148 143.837 193.159ZM150.484 199.5L152.109 184.588L155.091 184.651L154.893 186.473L155.028 186.476C155.192 186.187 155.416 185.894 155.7 185.598C155.989 185.298 156.348 185.051 156.777 184.857C157.211 184.659 157.734 184.566 158.344 184.579C159.14 184.596 159.851 184.819 160.478 185.247C161.106 185.671 161.575 186.301 161.888 187.138C162.2 187.971 162.289 189.008 162.153 190.251C162.022 191.46 161.714 192.478 161.23 193.302C160.752 194.123 160.153 194.74 159.434 195.154C158.721 195.563 157.95 195.759 157.121 195.741C156.534 195.729 156.045 195.622 155.655 195.42C155.269 195.219 154.961 194.969 154.733 194.672C154.505 194.37 154.338 194.066 154.234 193.762L154.142 193.76L153.509 199.564L150.484 199.5ZM154.479 190.073C154.409 190.718 154.438 191.283 154.565 191.767C154.693 192.251 154.912 192.63 155.224 192.906C155.536 193.177 155.936 193.317 156.423 193.328C156.916 193.338 157.347 193.213 157.717 192.952C158.088 192.686 158.387 192.315 158.614 191.838C158.847 191.357 158.997 190.802 159.066 190.171C159.134 189.545 159.107 188.992 158.983 188.513C158.86 188.034 158.643 187.657 158.331 187.381C158.019 187.106 157.615 186.963 157.118 186.952C156.626 186.942 156.195 187.062 155.826 187.314C155.462 187.565 155.164 187.927 154.932 188.399C154.7 188.87 154.549 189.429 154.479 190.073ZM177.277 185.668C177.282 185.097 177.086 184.649 176.69 184.325C176.293 184 175.726 183.83 174.988 183.815C174.486 183.804 174.054 183.865 173.693 183.999C173.333 184.129 173.047 184.314 172.836 184.554C172.629 184.795 172.509 185.071 172.475 185.382C172.438 185.64 172.467 185.868 172.565 186.063C172.667 186.259 172.817 186.429 173.014 186.575C173.212 186.716 173.445 186.841 173.713 186.951C173.982 187.056 174.271 187.147 174.58 187.224L175.853 187.562C176.472 187.717 177.034 187.918 177.538 188.164C178.043 188.411 178.471 188.71 178.821 189.062C179.172 189.414 179.429 189.825 179.591 190.296C179.758 190.766 179.811 191.303 179.75 191.906C179.649 192.79 179.338 193.553 178.818 194.193C178.302 194.828 177.604 195.316 176.722 195.656C175.846 195.991 174.816 196.146 173.633 196.121C172.459 196.096 171.456 195.895 170.624 195.519C169.796 195.143 169.177 194.599 168.766 193.887C168.36 193.171 168.202 192.292 168.291 191.252L171.267 191.315C171.247 191.8 171.342 192.208 171.553 192.538C171.769 192.863 172.077 193.113 172.475 193.287C172.879 193.456 173.346 193.546 173.876 193.557C174.397 193.568 174.857 193.502 175.257 193.36C175.662 193.217 175.985 193.014 176.227 192.751C176.47 192.487 176.61 192.181 176.648 191.833C176.683 191.508 176.616 191.233 176.446 191.007C176.281 190.782 176.022 190.588 175.669 190.425C175.322 190.262 174.89 190.111 174.374 189.973L172.833 189.543C171.639 189.221 170.722 188.737 170.081 188.091C169.439 187.445 169.179 186.588 169.3 185.52C169.391 184.644 169.709 183.884 170.253 183.24C170.803 182.596 171.514 182.099 172.387 181.749C173.26 181.4 174.227 181.237 175.287 181.259C176.367 181.282 177.289 181.486 178.053 181.87C178.823 182.254 179.397 182.778 179.775 183.442C180.154 184.106 180.303 184.869 180.223 185.73L177.277 185.668ZM185.019 189.873L184.336 196.143L181.311 196.079L182.887 181.619L185.826 181.681L185.224 187.21L185.352 187.212C185.668 186.577 186.12 186.085 186.708 185.734C187.298 185.378 188.006 185.209 188.835 185.227C189.592 185.243 190.235 185.422 190.762 185.763C191.295 186.1 191.684 186.578 191.93 187.196C192.181 187.81 192.258 188.541 192.161 189.388L191.408 196.293L188.383 196.229L189.077 189.86C189.155 189.192 189.041 188.668 188.736 188.289C188.436 187.91 187.978 187.714 187.362 187.701C186.951 187.692 186.577 187.771 186.24 187.939C185.909 188.106 185.635 188.355 185.419 188.686C185.208 189.012 185.075 189.407 185.019 189.873ZM196.877 196.615C196.181 196.6 195.574 196.467 195.055 196.215C194.538 195.959 194.146 195.589 193.881 195.107C193.621 194.621 193.53 194.019 193.608 193.304C193.673 192.702 193.84 192.198 194.107 191.793C194.374 191.388 194.713 191.065 195.123 190.824C195.534 190.583 195.99 190.404 196.491 190.287C196.997 190.17 197.523 190.092 198.069 190.051C198.71 189.999 199.228 189.949 199.622 189.9C200.017 189.848 200.308 189.764 200.496 189.65C200.684 189.536 200.791 189.364 200.816 189.133L200.821 189.091C200.869 188.644 200.765 188.295 200.508 188.044C200.255 187.793 199.871 187.662 199.355 187.651C198.81 187.64 198.364 187.751 198.016 187.984C197.669 188.212 197.423 188.504 197.28 188.86L194.507 188.575C194.721 187.919 195.062 187.355 195.531 186.884C196.001 186.408 196.578 186.047 197.265 185.802C197.956 185.553 198.737 185.437 199.608 185.456C200.214 185.469 200.786 185.552 201.325 185.705C201.868 185.858 202.339 186.087 202.737 186.393C203.141 186.699 203.442 187.087 203.642 187.559C203.843 188.025 203.908 188.581 203.838 189.226L203.041 196.54L200.172 196.48L200.336 194.976L200.251 194.974C200.039 195.309 199.772 195.603 199.45 195.856C199.129 196.103 198.755 196.296 198.327 196.433C197.9 196.566 197.416 196.626 196.877 196.615ZM197.969 194.557C198.414 194.567 198.816 194.488 199.176 194.321C199.537 194.15 199.83 193.915 200.057 193.618C200.284 193.321 200.418 192.982 200.46 192.6L200.585 191.45C200.484 191.509 200.347 191.562 200.176 191.611C200.01 191.654 199.823 191.695 199.615 191.733C199.407 191.767 199.2 191.798 198.993 191.826C198.786 191.85 198.598 191.872 198.43 191.892C198.07 191.936 197.751 192.012 197.473 192.119C197.196 192.227 196.973 192.375 196.805 192.565C196.638 192.75 196.539 192.984 196.508 193.267C196.464 193.676 196.579 193.992 196.853 194.215C197.133 194.433 197.505 194.547 197.969 194.557ZM205.388 196.59L206.569 185.745L209.502 185.808L209.296 187.7L209.409 187.702C209.681 187.033 210.071 186.532 210.577 186.199C211.083 185.86 211.642 185.698 212.253 185.711C212.404 185.714 212.566 185.727 212.739 185.749C212.913 185.772 213.064 185.801 213.192 185.837L212.902 188.506C212.764 188.46 212.572 188.418 212.325 188.38C212.077 188.342 211.85 188.32 211.641 188.316C211.196 188.306 210.788 188.395 210.417 188.58C210.051 188.761 209.748 189.019 209.507 189.353C209.271 189.688 209.129 190.077 209.081 190.519L208.413 196.655L205.388 196.59ZM213.57 196.764L214.751 185.919L217.776 185.984L216.594 196.829L213.57 196.764ZM216.423 184.554C215.973 184.544 215.604 184.388 215.314 184.084C215.03 183.776 214.91 183.413 214.956 182.994C215.001 182.58 215.198 182.228 215.548 181.938C215.902 181.643 216.305 181.501 216.754 181.511C217.204 181.52 217.571 181.679 217.855 181.987C218.145 182.29 218.267 182.649 218.222 183.063C218.177 183.482 217.976 183.839 217.622 184.133C217.272 184.423 216.873 184.563 216.423 184.554ZM222.725 190.675L222.042 196.944L219.018 196.88L220.199 186.035L223.082 186.096L222.873 188.01L223.001 188.012C223.311 187.387 223.77 186.897 224.379 186.541C224.987 186.182 225.696 186.01 226.506 186.028C227.263 186.044 227.905 186.222 228.433 186.564C228.96 186.905 229.347 187.385 229.593 188.004C229.839 188.618 229.916 189.346 229.824 190.189L229.072 197.094L226.047 197.029L226.741 190.661C226.818 189.997 226.704 189.476 226.399 189.097C226.094 188.713 225.639 188.514 225.033 188.501C224.626 188.493 224.257 188.572 223.926 188.74C223.599 188.907 223.33 189.156 223.118 189.487C222.912 189.813 222.781 190.209 222.725 190.675ZM235.902 201.542C234.922 201.521 234.097 201.369 233.425 201.086C232.758 200.807 232.243 200.435 231.881 199.97C231.519 199.505 231.308 198.986 231.247 198.414L234.085 198.099C234.147 198.317 234.26 198.523 234.424 198.715C234.588 198.907 234.815 199.063 235.106 199.182C235.401 199.306 235.768 199.373 236.209 199.383C236.867 199.397 237.426 199.248 237.887 198.937C238.352 198.631 238.625 198.106 238.706 197.362L238.922 195.378L238.794 195.375C238.629 195.674 238.399 195.954 238.105 196.217C237.811 196.48 237.446 196.691 237.011 196.852C236.576 197.013 236.07 197.087 235.492 197.074C234.673 197.057 233.948 196.853 233.317 196.462C232.691 196.067 232.222 195.474 231.909 194.684C231.602 193.89 231.514 192.892 231.644 191.692C231.778 190.464 232.091 189.442 232.583 188.627C233.075 187.811 233.678 187.206 234.39 186.811C235.106 186.416 235.865 186.226 236.665 186.243C237.276 186.256 237.776 186.371 238.165 186.587C238.555 186.798 238.858 187.059 239.076 187.37C239.299 187.677 239.463 187.978 239.568 188.273L239.682 188.275L239.88 186.453L242.884 186.517L241.691 197.468C241.59 198.391 241.279 199.158 240.757 199.769C240.235 200.381 239.554 200.834 238.716 201.127C237.881 201.426 236.944 201.564 235.902 201.542ZM236.697 194.835C237.184 194.846 237.609 194.735 237.972 194.502C238.339 194.264 238.637 193.921 238.866 193.473C239.101 193.021 239.253 192.477 239.322 191.841C239.391 191.206 239.361 190.653 239.232 190.183C239.103 189.709 238.883 189.338 238.57 189.072C238.257 188.806 237.857 188.668 237.37 188.658C236.873 188.647 236.439 188.772 236.069 189.033C235.7 189.29 235.402 189.651 235.175 190.118C234.949 190.585 234.802 191.127 234.735 191.744C234.667 192.37 234.695 192.913 234.821 193.373C234.951 193.829 235.171 194.185 235.48 194.442C235.794 194.694 236.2 194.825 236.697 194.835ZM248.794 197.513L250.37 183.053L256.107 183.175C257.21 183.198 258.127 183.428 258.857 183.863C259.589 184.294 260.117 184.883 260.444 185.631C260.776 186.374 260.89 187.225 260.785 188.186C260.68 189.146 260.38 189.989 259.883 190.714C259.387 191.44 258.721 191.999 257.886 192.391C257.055 192.784 256.081 192.969 254.964 192.945L251.307 192.867L251.574 190.417L254.734 190.484C255.326 190.497 255.824 190.406 256.23 190.212C256.641 190.013 256.96 189.734 257.189 189.376C257.423 189.013 257.566 188.594 257.618 188.118C257.67 187.638 257.619 187.217 257.464 186.855C257.314 186.489 257.056 186.203 256.689 185.997C256.323 185.786 255.842 185.674 255.245 185.662L253.172 185.618L251.869 197.578L248.794 197.513ZM266.455 198.1C265.333 198.077 264.392 197.83 263.632 197.361C262.877 196.887 262.327 196.229 261.982 195.387C261.638 194.54 261.528 193.544 261.653 192.401C261.775 191.285 262.099 190.311 262.626 189.477C263.154 188.644 263.838 188 264.68 187.547C265.527 187.093 266.485 186.877 267.555 186.9C268.274 186.915 268.931 187.045 269.526 187.289C270.127 187.528 270.634 187.881 271.048 188.347C271.467 188.814 271.769 189.396 271.954 190.093C272.139 190.786 272.182 191.594 272.081 192.516L271.991 193.342L262.782 193.146L262.985 191.282L269.347 191.418C269.394 190.985 269.341 190.599 269.188 190.261C269.035 189.923 268.801 189.656 268.486 189.46C268.175 189.26 267.8 189.156 267.36 189.146C266.9 189.136 266.482 189.234 266.104 189.438C265.731 189.638 265.426 189.912 265.189 190.261C264.952 190.605 264.808 190.991 264.756 191.419L264.563 193.191C264.505 193.728 264.554 194.194 264.71 194.589C264.871 194.984 265.124 195.291 265.471 195.511C265.817 195.73 266.243 195.846 266.75 195.856C267.086 195.863 267.399 195.823 267.688 195.735C267.978 195.646 268.232 195.51 268.451 195.326C268.671 195.142 268.847 194.915 268.981 194.644L271.759 194.887C271.544 195.552 271.189 196.13 270.695 196.62C270.205 197.104 269.6 197.478 268.879 197.742C268.163 198 267.355 198.12 266.455 198.1ZM273.458 198.037L274.64 187.192L277.572 187.254L277.366 189.147L277.48 189.149C277.752 188.48 278.141 187.979 278.647 187.645C279.154 187.307 279.712 187.144 280.323 187.157C280.475 187.16 280.637 187.173 280.81 187.196C280.983 187.218 281.134 187.248 281.263 187.283L280.972 189.952C280.835 189.907 280.643 189.865 280.395 189.827C280.148 189.788 279.92 189.767 279.712 189.763C279.267 189.753 278.859 189.841 278.487 190.027C278.121 190.208 277.818 190.465 277.578 190.8C277.342 191.135 277.2 191.523 277.152 191.966L276.483 198.101L273.458 198.037ZM291.559 190.651L288.772 190.762C288.75 190.526 288.671 190.312 288.536 190.12C288.4 189.924 288.211 189.766 287.968 189.648C287.73 189.525 287.436 189.46 287.085 189.452C286.617 189.442 286.211 189.533 285.867 189.724C285.524 189.91 285.335 190.165 285.3 190.49C285.271 190.749 285.352 190.97 285.541 191.153C285.729 191.337 286.071 191.488 286.566 191.607L288.497 192.044C289.534 192.283 290.286 192.648 290.755 193.139C291.223 193.631 291.415 194.267 291.329 195.048C291.252 195.759 290.973 196.378 290.494 196.906C290.019 197.434 289.4 197.84 288.638 198.126C287.882 198.407 287.03 198.538 286.083 198.518C284.64 198.487 283.522 198.164 282.73 197.548C281.944 196.927 281.533 196.097 281.5 195.059L284.492 194.967C284.534 195.406 284.715 195.745 285.036 195.983C285.357 196.216 285.787 196.339 286.327 196.35C286.857 196.361 287.294 196.269 287.638 196.074C287.987 195.874 288.182 195.611 288.222 195.286C288.247 195.013 288.155 194.787 287.947 194.608C287.739 194.425 287.404 194.281 286.941 194.176L285.093 193.762C284.051 193.528 283.298 193.144 282.834 192.61C282.375 192.077 282.189 191.405 282.278 190.596C282.353 189.899 282.608 189.303 283.042 188.807C283.48 188.312 284.06 187.935 284.781 187.677C285.506 187.418 286.335 187.299 287.268 187.319C288.645 187.348 289.698 187.661 290.425 188.256C291.157 188.852 291.536 189.651 291.559 190.651ZM297.773 198.766C296.67 198.743 295.741 198.489 294.987 198.006C294.239 197.519 293.692 196.851 293.348 196.004C293.004 195.152 292.893 194.171 293.014 193.06C293.136 191.94 293.46 190.965 293.987 190.137C294.514 189.303 295.204 188.662 296.054 188.213C296.91 187.76 297.89 187.545 298.993 187.568C300.096 187.592 301.022 187.847 301.77 188.335C302.524 188.818 303.073 189.485 303.417 190.337C303.761 191.184 303.872 192.168 303.75 193.288C303.629 194.399 303.305 195.371 302.778 196.204C302.251 197.033 301.559 197.674 300.703 198.128C299.853 198.577 298.876 198.789 297.773 198.766ZM298.041 196.436C298.543 196.447 298.977 196.315 299.344 196.039C299.711 195.759 300.007 195.374 300.231 194.884C300.46 194.393 300.609 193.832 300.678 193.202C300.747 192.571 300.72 192.007 300.599 191.509C300.482 191.011 300.272 190.615 299.967 190.32C299.662 190.026 299.259 189.874 298.757 189.863C298.25 189.852 297.809 189.987 297.432 190.267C297.06 190.546 296.759 190.932 296.53 191.422C296.306 191.913 296.16 192.473 296.091 193.104C296.022 193.735 296.046 194.299 296.163 194.797C296.284 195.295 296.499 195.691 296.809 195.986C297.124 196.275 297.534 196.426 298.041 196.436ZM308.839 192.505L308.156 198.774L305.131 198.71L306.312 187.865L309.195 187.926L308.987 189.84L309.115 189.843C309.425 189.217 309.884 188.727 310.492 188.372C311.1 188.012 311.809 187.84 312.619 187.858C313.376 187.874 314.019 188.053 314.546 188.394C315.074 188.735 315.46 189.215 315.706 189.834C315.952 190.448 316.03 191.176 315.938 192.019L315.185 198.924L312.161 198.859L312.854 192.491C312.931 191.827 312.817 191.306 312.512 190.927C312.208 190.543 311.753 190.344 311.147 190.332C310.74 190.323 310.37 190.402 310.039 190.57C309.712 190.738 309.443 190.987 309.232 191.317C309.025 191.643 308.894 192.039 308.839 192.505ZM320.657 199.245C319.961 199.231 319.354 199.097 318.836 198.846C318.318 198.589 317.927 198.22 317.662 197.738C317.401 197.251 317.31 196.65 317.388 195.935C317.454 195.332 317.62 194.828 317.887 194.424C318.154 194.019 318.493 193.696 318.904 193.455C319.315 193.213 319.771 193.034 320.272 192.917C320.778 192.801 321.304 192.722 321.849 192.682C322.491 192.63 323.009 192.579 323.403 192.531C323.798 192.478 324.089 192.395 324.277 192.281C324.465 192.167 324.572 191.995 324.597 191.764L324.601 191.722C324.65 191.274 324.546 190.925 324.288 190.675C324.036 190.424 323.651 190.293 323.135 190.282C322.591 190.27 322.145 190.381 321.797 190.615C321.449 190.843 321.204 191.135 321.061 191.491L318.288 191.205C318.502 190.549 318.843 189.986 319.312 189.514C319.781 189.038 320.359 188.678 321.045 188.433C321.737 188.184 322.518 188.068 323.389 188.087C323.995 188.099 324.567 188.182 325.105 188.335C325.649 188.488 326.12 188.718 326.518 189.024C326.921 189.329 327.223 189.718 327.423 190.189C327.624 190.656 327.689 191.212 327.619 191.856L326.822 199.171L323.953 199.11L324.117 197.606L324.032 197.604C323.82 197.94 323.553 198.234 323.231 198.486C322.91 198.734 322.535 198.927 322.108 199.064C321.68 199.196 321.197 199.257 320.657 199.245ZM321.75 197.188C322.195 197.197 322.597 197.119 322.957 196.952C323.317 196.78 323.611 196.546 323.838 196.249C324.065 195.951 324.199 195.612 324.24 195.231L324.366 194.08C324.264 194.139 324.128 194.193 323.957 194.241C323.791 194.285 323.604 194.326 323.395 194.364C323.188 194.397 322.98 194.428 322.773 194.457C322.567 194.481 322.379 194.503 322.211 194.523C321.85 194.567 321.531 194.643 321.254 194.75C320.976 194.857 320.754 195.006 320.586 195.196C320.419 195.381 320.32 195.615 320.289 195.897C320.244 196.307 320.359 196.623 320.634 196.846C320.914 197.064 321.286 197.178 321.75 197.188ZM333.769 184.825L332.193 199.285L329.168 199.221L330.744 184.761L333.769 184.825ZM339.244 199.435L340.426 188.59L343.451 188.654L342.269 199.499L339.244 199.435ZM342.098 187.224C341.648 187.215 341.278 187.058 340.989 186.755C340.704 186.447 340.585 186.084 340.631 185.665C340.676 185.25 340.873 184.898 341.223 184.609C341.577 184.314 341.979 184.172 342.429 184.181C342.879 184.191 343.246 184.35 343.53 184.658C343.82 184.961 343.942 185.32 343.897 185.734C343.851 186.153 343.651 186.51 343.296 186.804C342.947 187.094 342.547 187.234 342.098 187.224ZM348.4 193.345L347.717 199.615L344.692 199.551L345.874 188.706L348.757 188.767L348.548 190.681L348.676 190.683C348.986 190.058 349.445 189.567 350.053 189.212C350.662 188.853 351.371 188.681 352.18 188.698C352.938 188.715 353.58 188.893 354.108 189.235C354.635 189.576 355.022 190.056 355.267 190.675C355.514 191.289 355.591 192.017 355.499 192.859L354.747 199.765L351.722 199.7L352.416 193.332C352.493 192.668 352.379 192.147 352.074 191.768C351.769 191.384 351.314 191.185 350.708 191.172C350.301 191.164 349.932 191.243 349.6 191.411C349.274 191.578 349.004 191.827 348.793 192.158C348.587 192.484 348.456 192.88 348.4 193.345ZM364.178 189.095L363.931 191.354L357.2 191.211L357.446 188.952L364.178 189.095ZM357.805 199.83L359.072 188.201C359.158 187.415 359.383 186.766 359.747 186.255C360.116 185.744 360.584 185.365 361.152 185.117C361.72 184.87 362.347 184.753 363.033 184.768C363.497 184.778 363.917 184.822 364.293 184.901C364.673 184.98 364.955 185.049 365.138 185.11L364.353 187.358C364.238 187.318 364.095 187.279 363.924 187.242C363.757 187.206 363.584 187.186 363.404 187.182C362.959 187.172 362.637 187.269 362.44 187.473C362.243 187.671 362.124 187.954 362.084 188.322L360.823 199.894L357.805 199.83ZM369.358 200.287C368.255 200.264 367.327 200.011 366.573 199.528C365.824 199.04 365.278 198.372 364.933 197.525C364.59 196.674 364.478 195.692 364.599 194.581C364.721 193.461 365.046 192.487 365.573 191.658C366.1 190.825 366.789 190.184 367.64 189.735C368.496 189.281 369.475 189.066 370.578 189.089C371.681 189.113 372.607 189.368 373.356 189.856C374.11 190.339 374.659 191.007 375.002 191.859C375.347 192.706 375.458 193.689 375.336 194.81C375.215 195.92 374.89 196.892 374.363 197.726C373.836 198.554 373.145 199.195 372.289 199.649C371.438 200.098 370.461 200.311 369.358 200.287ZM369.626 197.958C370.128 197.968 370.562 197.836 370.929 197.561C371.297 197.281 371.592 196.896 371.817 196.405C372.046 195.914 372.195 195.354 372.263 194.723C372.332 194.092 372.306 193.528 372.184 193.03C372.068 192.532 371.857 192.136 371.552 191.842C371.247 191.548 370.844 191.395 370.342 191.384C369.836 191.374 369.394 191.508 369.017 191.788C368.645 192.068 368.345 192.453 368.116 192.944C367.891 193.434 367.745 193.995 367.676 194.626C367.608 195.256 367.631 195.821 367.748 196.318C367.869 196.816 368.085 197.213 368.394 197.507C368.709 197.797 369.12 197.947 369.626 197.958ZM378.464 200.453C377.996 200.443 377.611 200.269 377.311 199.933C377.016 199.591 376.894 199.188 376.945 198.722C376.995 198.261 377.204 197.869 377.571 197.546C377.943 197.224 378.363 197.068 378.832 197.078C379.286 197.087 379.666 197.261 379.971 197.597C380.276 197.934 380.403 198.333 380.353 198.794C380.319 199.105 380.208 199.388 380.019 199.643C379.835 199.894 379.607 200.095 379.334 200.245C379.062 200.39 378.772 200.459 378.464 200.453Z" fill="#272727"/>
<path d="M242.873 62.3078C238.972 55.9423 200.066 53.0248 181.1 52.3617L307.085 56.3402C266.851 55.0696 246.937 57.5337 242.873 62.3078Z" fill="#272727"/>
<g style="mix-blend-mode:darken">
<rect width="167.917" height="46.4624" rx="23.2312" transform="matrix(0.999391 0.0348995 -0.121869 0.992546 164.66 5.94629)" fill="#161515"/>
</g>
<rect x="0.969774" y="1.13546" width="165.707" height="44.2522" rx="22.1261" transform="matrix(0.999391 0.0348995 -0.121869 0.992546 164.799 6.73597)" stroke="url(#paint3_linear_122_394)" stroke-width="2.21026"/>
<path d="M203.579 29.6203C203.59 29.1158 203.423 28.7177 203.076 28.426C202.73 28.1344 202.23 27.9771 201.578 27.9543C201.134 27.9389 200.752 27.9881 200.431 28.1021C200.111 28.2119 199.856 28.372 199.666 28.5824C199.481 28.7929 199.371 29.0352 199.338 29.3095C199.301 29.5377 199.325 29.7388 199.409 29.9128C199.496 30.0869 199.627 30.2396 199.8 30.3709C199.973 30.4979 200.178 30.6115 200.413 30.7115C200.649 30.8074 200.904 30.8914 201.177 30.9635L202.298 31.278C202.843 31.4222 203.337 31.6064 203.78 31.8305C204.223 32.0546 204.597 32.3243 204.903 32.6396C205.209 32.9549 205.431 33.3215 205.569 33.7394C205.711 34.1574 205.751 34.6325 205.69 35.1644C205.59 35.9454 205.306 36.6156 204.838 37.1751C204.375 37.7306 203.752 38.1532 202.968 38.443C202.189 38.7288 201.277 38.8534 200.231 38.8169C199.194 38.7806 198.309 38.5912 197.578 38.2485C196.852 37.906 196.311 37.4177 195.956 36.7836C195.606 36.1455 195.476 35.3669 195.568 34.4479L198.198 34.5398C198.174 34.9687 198.254 35.3304 198.436 35.6247C198.623 35.9149 198.892 36.1392 199.242 36.2975C199.597 36.4518 200.009 36.5371 200.478 36.5534C200.938 36.5695 201.345 36.517 201.701 36.3959C202.06 36.2749 202.348 36.0993 202.566 35.869C202.783 35.6388 202.911 35.3699 202.948 35.0624C202.984 34.7757 202.927 34.5318 202.78 34.3305C202.636 34.1294 202.41 33.9546 202.101 33.8061C201.795 33.6577 201.415 33.5192 200.96 33.3907L199.604 32.9928C198.552 32.6932 197.747 32.2541 197.188 31.6754C196.629 31.0967 196.409 30.3359 196.529 29.3929C196.62 28.6199 196.91 27.952 197.399 27.3891C197.893 26.8263 198.527 26.3957 199.304 26.0974C200.08 25.799 200.936 25.6662 201.873 25.6989C202.827 25.7322 203.64 25.9233 204.311 26.2722C204.987 26.6213 205.488 27.0915 205.814 27.6829C206.141 28.2744 206.264 28.9504 206.183 29.7112L203.579 29.6203ZM213.322 29.4786L213.077 31.4729L207.272 31.2702L207.517 29.2759L213.322 29.4786ZM209.117 27.0284L211.79 27.1218L210.694 36.0465C210.664 36.2916 210.678 36.484 210.737 36.6238C210.796 36.7594 210.889 36.8565 211.016 36.9152C211.148 36.974 211.303 37.0066 211.483 37.0129C211.609 37.0172 211.735 37.0112 211.863 36.9949C211.992 36.9743 212.091 36.959 212.159 36.9488L212.337 38.9392C212.198 38.976 212.004 39.0173 211.755 39.0628C211.505 39.1125 211.205 39.1375 210.857 39.1378C210.209 39.1403 209.655 39.0354 209.194 38.8232C208.737 38.6111 208.399 38.2947 208.182 37.874C207.965 37.4533 207.897 36.9294 207.978 36.3021L209.117 27.0284ZM218.117 39.4477C217.142 39.4137 216.324 39.1786 215.663 38.7424C215.007 38.3022 214.532 37.7056 214.238 36.9526C213.945 36.1954 213.858 35.3266 213.979 34.346C214.1 33.3572 214.399 32.4997 214.874 31.7735C215.35 31.0432 215.967 30.4848 216.725 30.0981C217.487 29.7075 218.355 29.5292 219.33 29.5632C220.305 29.5973 221.12 29.8344 221.776 30.2745C222.437 30.7107 222.914 31.3074 223.208 32.0645C223.502 32.8176 223.588 33.6885 223.467 34.6774C223.346 35.6579 223.048 36.5133 222.572 37.2436C222.096 37.9697 221.477 38.5281 220.715 38.9188C219.958 39.3054 219.091 39.4817 218.117 39.4477ZM218.382 37.3915C218.825 37.407 219.211 37.2952 219.538 37.0563C219.866 36.8132 220.133 36.4762 220.337 36.0452C220.545 35.6143 220.684 35.1205 220.752 34.5638C220.82 34.007 220.804 33.5078 220.703 33.0661C220.606 32.6246 220.424 32.2719 220.158 32.0081C219.892 31.7443 219.538 31.6046 219.094 31.5892C218.646 31.5735 218.254 31.6871 217.918 31.9299C217.586 32.1728 217.315 32.5097 217.107 32.9406C216.903 33.3716 216.766 33.8655 216.698 34.4222C216.63 34.979 216.644 35.4781 216.741 35.9196C216.842 36.3613 217.028 36.7141 217.298 36.9781C217.573 37.238 217.934 37.3758 218.382 37.3915ZM224.181 43.0769L225.797 29.9142L228.433 30.0063L228.236 31.6142L228.355 31.6184C228.504 31.3649 228.705 31.109 228.96 30.8509C229.219 30.5887 229.539 30.3745 229.921 30.2084C230.307 30.0383 230.77 29.9627 231.31 29.9816C232.013 30.0061 232.639 30.2116 233.188 30.5979C233.738 30.9802 234.145 31.5431 234.411 32.2868C234.677 33.0263 234.743 33.9445 234.609 35.0414C234.477 36.1092 234.193 37.0048 233.756 37.728C233.323 38.4473 232.786 38.9856 232.146 39.343C231.51 39.6963 230.826 39.8602 230.094 39.8347C229.575 39.8165 229.144 39.716 228.801 39.5329C228.462 39.35 228.193 39.1257 227.995 38.8601C227.797 38.5903 227.654 38.3203 227.565 38.0501L227.483 38.0473L226.854 43.1703L224.181 43.0769ZM227.826 34.792C227.757 35.3613 227.775 35.8606 227.882 36.2899C227.989 36.7193 228.179 37.0576 228.451 37.3049C228.723 37.5481 229.075 37.6773 229.506 37.6923C229.941 37.7075 230.324 37.6019 230.654 37.3756C230.985 37.1452 231.254 36.8207 231.46 36.4023C231.672 35.9799 231.812 35.4904 231.88 34.9336C231.948 34.381 231.93 33.8922 231.827 33.4671C231.724 33.0421 231.536 32.7059 231.264 32.4585C230.992 32.2112 230.636 32.0799 230.197 32.0645C229.762 32.0493 229.38 32.1507 229.05 32.3687C228.725 32.5869 228.458 32.903 228.247 33.3171C228.037 33.7312 227.896 34.2228 227.826 34.792ZM239.945 40.0222L241.512 27.2584L244.229 27.3532L242.935 37.8921L248.445 38.0845L248.172 40.3095L239.945 40.0222ZM254.253 40.7096C253.278 40.6756 252.46 40.4405 251.8 40.0043C251.144 39.5641 250.669 38.9675 250.375 38.2145C250.081 37.4573 249.995 36.5885 250.115 35.6079C250.236 34.6191 250.535 33.7616 251.011 33.0354C251.487 32.3052 252.104 31.7467 252.861 31.36C253.623 30.9694 254.492 30.7911 255.467 30.8251C256.441 30.8592 257.257 31.0963 257.913 31.5365C258.573 31.9726 259.051 32.5693 259.344 33.3265C259.638 34.0795 259.725 34.9504 259.603 35.9393C259.483 36.9198 259.184 37.7752 258.708 38.5055C258.233 39.2317 257.614 39.79 256.851 40.1807C256.094 40.5673 255.228 40.7436 254.253 40.7096ZM254.518 38.6534C254.962 38.6689 255.347 38.5571 255.675 38.3182C256.003 38.0751 256.269 37.7381 256.473 37.3071C256.682 36.8762 256.82 36.3824 256.888 35.8257C256.957 35.2689 256.94 34.7697 256.839 34.3281C256.742 33.8865 256.56 33.5339 256.295 33.27C256.029 33.0062 255.674 32.8666 255.23 32.8511C254.783 32.8354 254.391 32.949 254.054 33.1918C253.722 33.4347 253.452 33.7716 253.243 34.2025C253.039 34.6335 252.903 35.1274 252.834 35.6841C252.766 36.2409 252.78 36.74 252.877 37.1815C252.979 37.6232 253.164 37.976 253.434 38.24C253.709 38.5 254.07 38.6377 254.518 38.6534ZM264.636 44.6899C263.77 44.6597 263.042 44.5153 262.451 44.2569C261.865 44.0027 261.415 43.6678 261.1 43.2521C260.786 42.8363 260.605 42.3752 260.558 41.8686L263.071 41.6247C263.123 41.8184 263.22 42.0012 263.363 42.1731C263.506 42.345 263.705 42.4855 263.96 42.5946C264.219 42.7079 264.543 42.7714 264.933 42.785C265.514 42.8053 266.01 42.6808 266.422 42.4114C266.836 42.1463 267.084 41.6855 267.165 41.0291L267.38 39.2778L267.267 39.2738C267.117 39.5357 266.911 39.7809 266.647 40.0095C266.384 40.2382 266.059 40.4209 265.672 40.5576C265.286 40.6943 264.837 40.7538 264.327 40.7359C263.603 40.7107 262.965 40.5215 262.412 40.1683C261.863 39.8112 261.455 39.2816 261.189 38.5796C260.927 37.8736 260.861 36.9909 260.991 35.9314C261.124 34.847 261.413 33.9474 261.858 33.2327C262.303 32.518 262.842 31.9902 263.476 31.6494C264.115 31.3086 264.788 31.1506 265.495 31.1753C266.034 31.1942 266.475 31.3013 266.816 31.4969C267.158 31.6882 267.424 31.9228 267.612 32.2006C267.806 32.4744 267.947 32.7423 268.037 33.0041L268.137 33.0076L268.335 31.3997L270.989 31.4924L269.802 41.1587C269.702 41.9731 269.418 42.6475 268.949 43.1819C268.48 43.7163 267.873 44.1082 267.128 44.3576C266.387 44.6113 265.556 44.7221 264.636 44.6899ZM265.419 38.7712C265.85 38.7862 266.227 38.693 266.55 38.4914C266.878 38.2859 267.146 37.9865 267.354 37.5932C267.566 37.1958 267.707 36.7167 267.776 36.1558C267.845 35.5949 267.825 35.106 267.716 34.6891C267.608 34.2681 267.418 33.938 267.145 33.699C266.872 33.46 266.52 33.3329 266.089 33.3179C265.649 33.3025 265.265 33.408 264.934 33.6343C264.605 33.8565 264.337 34.1726 264.131 34.5827C263.925 34.9928 263.789 35.47 263.722 36.0143C263.654 36.5669 263.673 37.0474 263.778 37.4558C263.888 37.8602 264.078 38.1777 264.348 38.4083C264.623 38.6349 264.98 38.7558 265.419 38.7712ZM271.941 41.1395L273.116 31.5667L275.79 31.66L274.614 41.2329L271.941 41.1395ZM274.611 30.3795C274.213 30.3657 273.888 30.2229 273.636 29.9512C273.388 29.6755 273.287 29.3527 273.333 28.983C273.378 28.6173 273.556 28.3085 273.869 28.0566C274.186 27.8006 274.543 27.6795 274.941 27.6934C275.338 27.7073 275.661 27.8521 275.908 28.1278C276.161 28.3995 276.264 28.7181 276.219 29.0838C276.174 29.4535 275.993 29.7664 275.676 30.0224C275.363 30.2744 275.008 30.3934 274.611 30.3795ZM280.108 35.8667L279.429 41.401L276.756 41.3076L277.931 31.7348L280.479 31.8238L280.271 33.5127L280.384 33.5167C280.666 32.9674 281.078 32.5394 281.62 32.2329C282.162 31.9222 282.791 31.7793 283.506 31.8043C284.176 31.8277 284.741 31.9935 285.204 32.3017C285.666 32.6099 286.002 33.0389 286.211 33.5887C286.422 34.1343 286.481 34.779 286.39 35.5227L285.642 41.618L282.968 41.5246L283.658 35.903C283.735 35.3173 283.64 34.855 283.375 34.5161C283.11 34.1731 282.71 33.9922 282.175 33.9735C281.815 33.9609 281.488 34.0267 281.193 34.1708C280.902 34.315 280.661 34.5319 280.47 34.8215C280.284 35.1071 280.163 35.4555 280.108 35.8667ZM296.609 35.1285L294.143 35.1926C294.126 34.9834 294.059 34.7933 293.942 34.6223C293.825 34.4471 293.659 34.3057 293.446 34.1981C293.237 34.0865 292.977 34.0253 292.668 34.0145C292.254 34 291.894 34.075 291.588 34.2396C291.282 34.4 291.112 34.6236 291.077 34.9103C291.049 35.1388 291.117 35.3352 291.282 35.4995C291.446 35.6638 291.747 35.8016 292.183 35.9128L293.884 36.3227C294.798 36.5466 295.459 36.8784 295.867 37.3183C296.275 37.7582 296.437 38.323 296.352 39.0127C296.275 39.6401 296.021 40.1841 295.591 40.6447C295.165 41.1055 294.613 41.4576 293.936 41.7011C293.264 41.9405 292.509 42.0456 291.673 42.0163C290.397 41.9718 289.412 41.6724 288.72 41.1183C288.032 40.5602 287.68 39.8218 287.662 38.9032L290.308 38.8579C290.341 39.2471 290.497 39.5488 290.777 39.7631C291.058 39.9732 291.437 40.0866 291.914 40.1032C292.382 40.1196 292.77 40.0434 293.076 39.8747C293.387 39.7019 293.563 39.4723 293.602 39.1858C293.627 38.9446 293.549 38.7437 293.367 38.583C293.186 38.4181 292.891 38.2868 292.483 38.189L290.854 37.8004C289.936 37.5806 289.275 37.2321 288.871 36.7548C288.472 36.2777 288.316 35.6818 288.404 34.9672C288.479 34.3522 288.712 33.8283 289.101 33.3954C289.495 32.9627 290.011 32.6365 290.652 32.4168C291.296 32.1973 292.031 32.102 292.855 32.1308C294.072 32.1733 294.999 32.4623 295.635 32.9977C296.275 33.5333 296.6 34.2436 296.609 35.1285ZM299.214 42.2546C298.8 42.2402 298.462 42.0823 298.201 41.7811C297.944 41.4759 297.841 41.1176 297.892 40.7063C297.942 40.2991 298.131 39.9552 298.459 39.6746C298.792 39.3941 299.166 39.2611 299.58 39.2756C299.981 39.2896 300.315 39.4473 300.58 39.7487C300.846 40.05 300.954 40.4043 300.904 40.8115C300.87 41.0857 300.768 41.3346 300.598 41.5581C300.432 41.7777 300.228 41.9521 299.985 42.0813C299.743 42.2064 299.486 42.2641 299.214 42.2546Z" fill="#272727"/>
</g>
<defs>
<filter id="filter0_df_122_394" x="291.946" y="211.154" width="330.895" height="144.033" filterUnits="userSpaceOnUse" color-interpolation-filters="sRGB">
<feFlood flood-opacity="0" result="BackgroundImageFix"/>
<feColorMatrix in="SourceAlpha" type="matrix" values="0 0 0 0 0 0 0 0 0 0 0 0 0 0 0 0 0 0 127 0" result="hardAlpha"/>
<feOffset dy="4.42051"/>
<feGaussianBlur stdDeviation="16.0244"/>
<feComposite in2="hardAlpha" operator="out"/>
<feColorMatrix type="matrix" values="0 0 0 0 0.760784 0 0 0 0 0.278431 0 0 0 0 0.45098 0 0 0 1 0"/>
<feBlend mode="normal" in2="BackgroundImageFix" result="effect1_dropShadow_122_394"/>
<feBlend mode="normal" in="SourceGraphic" in2="effect1_dropShadow_122_394" result="shape"/>
<feGaussianBlur stdDeviation="7.18333" result="effect2_foregroundBlur_122_394"/>
</filter>
<filter id="filter1_df_122_394" x="316.285" y="337.379" width="79.6387" height="69.4307" filterUnits="userSpaceOnUse" color-interpolation-filters="sRGB">
<feFlood flood-opacity="0" result="BackgroundImageFix"/>
<feColorMatrix in="SourceAlpha" type="matrix" values="0 0 0 0 0 0 0 0 0 0 0 0 0 0 0 0 0 0 127 0" result="hardAlpha"/>
<feOffset dy="4.42051"/>
<feGaussianBlur stdDeviation="16.0244"/>
<feComposite in2="hardAlpha" operator="out"/>
<feColorMatrix type="matrix" values="0 0 0 0 0.760784 0 0 0 0 0.278431 0 0 0 0 0.45098 0 0 0 1 0"/>
<feBlend mode="normal" in2="BackgroundImageFix" result="effect1_dropShadow_122_394"/>
<feBlend mode="normal" in="SourceGraphic" in2="effect1_dropShadow_122_394" result="shape"/>
<feGaussianBlur stdDeviation="7.18333" result="effect2_foregroundBlur_122_394"/>
</filter>
<linearGradient id="paint0_linear_122_394" x1="270.5" y1="58" x2="270.5" y2="369" gradientUnits="userSpaceOnUse">
<stop offset="0.65625" stop-color="#272727"/>
<stop offset="0.84375" stop-color="#D1824B"/>
<stop offset="1" stop-color="#C34675"/>
</linearGradient>
<linearGradient id="paint1_linear_122_394" x1="133.203" y1="0" x2="133.203" y2="73.7144" gradientUnits="userSpaceOnUse">
<stop stop-color="#C44874"/>
<stop offset="1" stop-color="#500F26"/>
</linearGradient>
<linearGradient id="paint2_linear_122_394" x1="133.203" y1="0" x2="133.203" y2="73.7144" gradientUnits="userSpaceOnUse">
<stop stop-color="#C44874"/>
<stop offset="1" stop-color="#500F26"/>
</linearGradient>
<linearGradient id="paint3_linear_122_394" x1="83.9584" y1="0" x2="83.9584" y2="46.4624" gradientUnits="userSpaceOnUse">
<stop stop-color="#272727"/>
<stop offset="1" stop-color="#272727"/>
</linearGradient>
<clipPath id="clip0_122_394">
<rect width="635" height="410" fill="white"/>
</clipPath>
</defs>
</svg>
