<svg width="431" height="427" viewBox="0 0 431 427" fill="none" xmlns="http://www.w3.org/2000/svg">
<rect x="1.98621" y="0.722921" width="596.153" height="146.403" transform="matrix(0.99863 0.052336 0.798635 0.601815 -335.397 81.9874)" stroke="#EAE7ED" stroke-opacity="0.85" stroke-width="2.21026"/>
<rect x="1.98621" y="0.722921" width="596.153" height="146.403" transform="matrix(0.99863 0.052336 0.798635 0.601815 -274.948 126.706)" stroke="#EAE7ED" stroke-opacity="0.85" stroke-width="2.21026"/>
<rect x="1.98621" y="0.722921" width="596.153" height="146.403" transform="matrix(0.99863 0.052336 0.798635 0.601815 -215.604 171.425)" stroke="#EAE7ED" stroke-opacity="0.85" stroke-width="2.21026"/>
<rect x="1.98621" y="0.722921" width="596.153" height="146.403" transform="matrix(0.99863 0.052336 0.798635 0.601815 -152.945 216.144)" stroke="#EAE7ED" stroke-opacity="0.85" stroke-width="2.21026"/>
<rect x="1.98621" y="0.722921" width="596.153" height="146.403" transform="matrix(0.99863 0.052336 0.798635 0.601815 -93.6012 260.863)" stroke="#EAE7ED" stroke-opacity="0.85" stroke-width="2.21026"/>
<rect x="0.221019" y="-0.607245" width="596.153" height="146.403" transform="matrix(-0.798635 -0.601815 0.99863 0.052336 87.0501 395.177)" stroke="#EAE7ED" stroke-opacity="0.85" stroke-width="2.21026"/>
<rect x="0.221019" y="-0.607245" width="596.153" height="146.403" transform="matrix(-0.798635 -0.601815 0.99863 0.052336 235.46 402.955)" stroke="#EAE7ED" stroke-opacity="0.85" stroke-width="2.21026"/>
<mask id="path-8-inside-1_21_184" fill="white">
<path d="M382.865 411.175L-95.0093 51.0711L53.4002 58.8489L531.274 418.953L382.865 411.175Z"/>
</mask>
<path d="M51.193 58.7333L529.067 418.837L533.482 419.069L55.6074 58.9646L51.193 58.7333Z" fill="#EAE7ED" fill-opacity="0.85" mask="url(#path-8-inside-1_21_184)"/>
<rect x="0.221019" y="-0.607245" width="596.153" height="146.403" transform="matrix(-0.798635 -0.601815 0.99863 0.052336 532.279 418.511)" stroke="#EAE7ED" stroke-opacity="0.85" stroke-width="2.21026"/>
<path d="M272.906 386.394L219.308 339.426L369.053 346.057L248.594 257.094L96.0859 249.91L1.59741 163.158L282.853 175.314L158.526 79.1682" stroke="url(#paint0_linear_21_184)" stroke-width="2.21026"/>
<path d="M367.365 344.951C361.171 334.342 299.399 329.48 269.287 328.375L469.315 335.005C405.435 332.888 373.818 336.995 367.365 344.951Z" fill="#521027"/>
<g style="mix-blend-mode:darken">
<rect width="266.406" height="73.7144" rx="36.8572" transform="matrix(0.999391 0.0348995 -0.121869 0.992546 243.763 253.226)" fill="#161515"/>
</g>
<rect x="0.969774" y="1.13546" width="264.196" height="71.5041" rx="35.7521" transform="matrix(0.999391 0.0348995 -0.121869 0.992546 243.902 254.494)" stroke="url(#paint1_linear_21_184)" stroke-width="2.21026"/>
<g filter="url(#filter0_df_21_184)">
<rect x="0.969774" y="1.13546" width="264.196" height="71.5041" rx="35.7521" transform="matrix(0.999391 0.0348995 -0.121869 0.992546 243.902 254.494)" stroke="url(#paint2_linear_21_184)" stroke-width="2.21026" shape-rendering="crispEdges"/>
</g>
<path d="M293.13 288.676C293.146 287.991 292.919 287.451 292.448 287.055C291.978 286.659 291.3 286.446 290.414 286.415C289.812 286.394 289.294 286.461 288.858 286.615C288.424 286.764 288.078 286.982 287.82 287.267C287.568 287.553 287.42 287.882 287.374 288.254C287.324 288.564 287.357 288.837 287.47 289.073C287.589 289.309 287.766 289.517 288.001 289.695C288.237 289.867 288.514 290.021 288.834 290.157C289.154 290.287 289.5 290.401 289.87 290.499L291.391 290.926C292.131 291.122 292.802 291.372 293.404 291.676C294.005 291.98 294.513 292.346 294.928 292.774C295.343 293.202 295.644 293.7 295.831 294.267C296.024 294.834 296.079 295.479 295.996 296.201C295.86 297.261 295.475 298.171 294.84 298.93C294.211 299.684 293.365 300.258 292.302 300.651C291.245 301.039 290.006 301.208 288.587 301.159C287.178 301.109 285.978 300.852 284.986 300.387C283.999 299.922 283.265 299.26 282.784 298.399C282.308 297.533 282.133 296.476 282.258 295.229L285.826 295.353C285.795 295.936 285.903 296.426 286.15 296.826C286.404 297.22 286.769 297.524 287.244 297.739C287.726 297.948 288.285 298.064 288.921 298.086C289.546 298.108 290.099 298.037 290.581 297.873C291.069 297.708 291.46 297.47 291.755 297.157C292.05 296.845 292.223 296.48 292.275 296.063C292.322 295.674 292.246 295.342 292.046 295.069C291.851 294.796 291.544 294.559 291.124 294.357C290.71 294.156 290.194 293.968 289.576 293.794L287.735 293.254C286.308 292.847 285.215 292.251 284.456 291.465C283.697 290.68 283.399 289.647 283.562 288.367C283.685 287.318 284.079 286.412 284.743 285.648C285.413 284.884 286.274 284.299 287.328 283.894C288.381 283.489 289.544 283.309 290.816 283.353C292.11 283.399 293.213 283.658 294.125 284.132C295.042 284.605 295.722 285.244 296.165 286.046C296.608 286.849 296.775 287.767 296.665 288.799L293.13 288.676ZM301.501 301.61C300.667 301.58 299.94 301.411 299.323 301.1C298.706 300.784 298.242 300.335 297.931 299.752C297.627 299.164 297.528 298.441 297.633 297.584C297.722 296.862 297.93 296.26 298.257 295.779C298.584 295.298 298.996 294.915 299.492 294.633C299.989 294.35 300.539 294.142 301.143 294.011C301.752 293.879 302.384 293.793 303.039 293.754C303.81 293.702 304.432 293.65 304.906 293.598C305.38 293.541 305.731 293.446 305.959 293.312C306.186 293.179 306.317 292.974 306.351 292.697L306.357 292.647C306.423 292.111 306.303 291.69 305.999 291.385C305.7 291.08 305.241 290.917 304.622 290.895C303.969 290.873 303.432 290.998 303.01 291.272C302.589 291.541 302.29 291.887 302.113 292.311L298.79 291.924C299.057 291.14 299.476 290.469 300.046 289.912C300.617 289.348 301.317 288.925 302.144 288.642C302.978 288.354 303.917 288.229 304.962 288.265C305.689 288.291 306.374 288.399 307.017 288.592C307.667 288.784 308.228 289.067 308.701 289.441C309.18 289.814 309.535 290.285 309.768 290.854C310.001 291.417 310.07 292.085 309.975 292.858L308.899 301.622L305.458 301.501L305.679 299.7L305.577 299.696C305.317 300.095 304.992 300.443 304.602 300.741C304.212 301.033 303.76 301.258 303.245 301.416C302.73 301.568 302.149 301.632 301.501 301.61ZM302.846 299.159C303.38 299.178 303.864 299.09 304.298 298.895C304.733 298.695 305.089 298.419 305.367 298.066C305.644 297.713 305.81 297.308 305.866 296.852L306.036 295.473C305.913 295.542 305.749 295.604 305.542 295.659C305.342 295.709 305.117 295.755 304.867 295.797C304.617 295.834 304.368 295.868 304.119 295.899C303.87 295.924 303.645 295.947 303.443 295.968C303.009 296.016 302.625 296.101 302.291 296.226C301.956 296.35 301.687 296.524 301.482 296.75C301.278 296.969 301.156 297.248 301.114 297.586C301.054 298.077 301.187 298.458 301.513 298.73C301.845 298.997 302.289 299.139 302.846 299.159ZM320.345 288.972L320.013 291.679L311.938 291.397L312.27 288.69L320.345 288.972ZM312.523 301.748L314.234 287.816C314.35 286.874 314.63 286.099 315.075 285.492C315.526 284.885 316.094 284.437 316.78 284.15C317.465 283.862 318.22 283.733 319.043 283.762C319.6 283.781 320.103 283.841 320.552 283.942C321.007 284.042 321.344 284.131 321.563 284.206L320.584 286.891C320.447 286.841 320.276 286.792 320.071 286.745C319.871 286.699 319.664 286.672 319.448 286.664C318.914 286.645 318.527 286.757 318.286 286.997C318.047 287.233 317.9 287.57 317.846 288.01L316.143 301.875L312.523 301.748ZM326.429 302.489C325.083 302.442 323.958 302.13 323.054 301.555C322.155 300.974 321.506 300.176 321.107 299.159C320.707 298.137 320.592 296.941 320.76 295.571C320.924 294.234 321.33 293.07 321.976 292.079C322.622 291.088 323.454 290.327 324.472 289.796C325.495 289.265 326.648 289.022 327.932 289.067C328.795 289.097 329.581 289.264 330.291 289.566C331.007 289.863 331.61 290.294 332.1 290.861C332.595 291.428 332.947 292.131 333.158 292.971C333.369 293.805 333.407 294.775 333.271 295.88L333.15 296.87L322.102 296.484L322.376 294.251L330.008 294.517C330.072 293.999 330.015 293.535 329.837 293.127C329.659 292.718 329.382 292.394 329.007 292.155C328.638 291.91 328.189 291.778 327.661 291.759C327.11 291.74 326.606 291.85 326.149 292.089C325.698 292.322 325.328 292.646 325.037 293.061C324.748 293.47 324.569 293.931 324.5 294.444L324.239 296.567C324.16 297.21 324.211 297.77 324.392 298.246C324.579 298.723 324.878 299.096 325.29 299.365C325.702 299.634 326.211 299.779 326.819 299.801C327.222 299.815 327.598 299.771 327.947 299.67C328.296 299.569 328.603 299.41 328.87 299.193C329.136 298.975 329.351 298.705 329.516 298.383L332.845 298.72C332.577 299.515 332.142 300.202 331.54 300.781C330.945 301.355 330.213 301.794 329.343 302.098C328.479 302.396 327.508 302.526 326.429 302.489ZM346.636 302.939L340.452 302.723L342.58 285.399L348.814 285.617C350.569 285.678 352.037 286.078 353.218 286.815C354.4 287.548 355.252 288.571 355.775 289.887C356.303 291.202 356.457 292.759 356.236 294.558C356.015 296.363 355.481 297.902 354.634 299.175C353.794 300.448 352.692 301.409 351.329 302.058C349.972 302.708 348.408 303.001 346.636 302.939ZM344.526 299.714L346.868 299.796C347.958 299.834 348.899 299.674 349.69 299.317C350.487 298.954 351.123 298.373 351.598 297.574C352.078 296.769 352.398 295.721 352.557 294.43C352.714 293.15 352.652 292.097 352.371 291.271C352.096 290.446 351.61 289.829 350.914 289.42C350.217 289.01 349.323 288.786 348.233 288.748L345.882 288.666L344.526 299.714ZM361.535 303.706C360.7 303.677 359.974 303.507 359.356 303.197C358.739 302.881 358.276 302.431 357.965 301.848C357.661 301.26 357.562 300.537 357.667 299.68C357.755 298.958 357.963 298.357 358.29 297.875C358.618 297.394 359.029 297.012 359.526 296.729C360.023 296.446 360.573 296.239 361.176 296.107C361.786 295.975 362.418 295.89 363.073 295.85C363.843 295.798 364.466 295.746 364.94 295.695C365.414 295.638 365.765 295.542 365.993 295.409C366.22 295.275 366.351 295.07 366.385 294.794L366.391 294.743C366.457 294.207 366.337 293.787 366.032 293.482C365.733 293.177 365.274 293.013 364.656 292.992C364.003 292.969 363.465 293.095 363.044 293.369C362.623 293.637 362.324 293.984 362.146 294.408L358.824 294.02C359.091 293.236 359.51 292.566 360.08 292.008C360.651 291.445 361.35 291.021 362.178 290.739C363.011 290.451 363.951 290.325 364.996 290.362C365.722 290.387 366.408 290.496 367.051 290.688C367.7 290.881 368.262 291.164 368.735 291.537C369.214 291.911 369.569 292.382 369.802 292.951C370.035 293.514 370.104 294.182 370.009 294.954L368.933 303.718L365.492 303.598L365.713 301.796L365.611 301.792C365.351 302.191 365.026 302.539 364.636 302.837C364.246 303.13 363.794 303.354 363.278 303.512C362.763 303.664 362.182 303.729 361.535 303.706ZM362.88 301.255C363.413 301.274 363.897 301.186 364.332 300.992C364.767 300.792 365.123 300.515 365.4 300.162C365.677 299.81 365.844 299.405 365.9 298.948L366.069 297.569C365.947 297.639 365.782 297.701 365.576 297.756C365.376 297.806 365.151 297.851 364.9 297.894C364.651 297.93 364.401 297.964 364.152 297.995C363.904 298.02 363.679 298.044 363.477 298.065C363.043 298.112 362.659 298.198 362.324 298.322C361.99 298.446 361.72 298.621 361.516 298.846C361.312 299.065 361.19 299.344 361.148 299.683C361.088 300.173 361.221 300.555 361.546 300.826C361.879 301.093 362.323 301.236 362.88 301.255ZM380.302 291.066L379.97 293.773L372.091 293.498L372.423 290.791L380.302 291.066ZM374.594 287.74L378.223 287.867L376.735 299.981C376.695 300.313 376.714 300.575 376.793 300.764C376.873 300.948 377 301.08 377.172 301.16C377.351 301.24 377.562 301.284 377.806 301.292C377.976 301.298 378.149 301.29 378.322 301.268C378.497 301.24 378.631 301.219 378.724 301.205L378.965 303.907C378.776 303.957 378.513 304.013 378.174 304.075C377.835 304.142 377.429 304.176 376.956 304.177C376.077 304.18 375.325 304.037 374.699 303.749C374.078 303.462 373.621 303.032 373.326 302.461C373.031 301.89 372.939 301.179 373.049 300.328L374.594 287.74ZM384.771 304.517C383.936 304.488 383.21 304.319 382.592 304.008C381.975 303.692 381.512 303.243 381.201 302.66C380.897 302.071 380.797 301.349 380.903 300.491C380.991 299.77 381.199 299.168 381.526 298.687C381.853 298.205 382.265 297.823 382.762 297.54C383.259 297.258 383.809 297.05 384.412 296.918C385.022 296.787 385.654 296.701 386.309 296.662C387.079 296.609 387.701 296.558 388.175 296.506C388.65 296.449 389.001 296.354 389.228 296.22C389.456 296.086 389.586 295.881 389.62 295.605L389.627 295.554C389.692 295.019 389.573 294.598 389.268 294.293C388.969 293.988 388.51 293.825 387.891 293.803C387.238 293.78 386.701 293.906 386.28 294.18C385.859 294.449 385.56 294.795 385.382 295.219L382.06 294.831C382.327 294.048 382.746 293.377 383.316 292.819C383.887 292.256 384.586 291.833 385.414 291.55C386.247 291.262 387.187 291.136 388.231 291.173C388.958 291.198 389.643 291.307 390.287 291.5C390.936 291.692 391.498 291.975 391.971 292.348C392.449 292.722 392.805 293.193 393.037 293.762C393.27 294.325 393.34 294.993 393.245 295.766L392.169 304.529L388.728 304.409L388.949 302.607L388.847 302.604C388.587 303.003 388.262 303.351 387.871 303.649C387.482 303.941 387.03 304.166 386.514 304.323C385.999 304.475 385.418 304.54 384.771 304.517ZM386.115 302.067C386.649 302.085 387.133 301.997 387.568 301.803C388.003 301.603 388.359 301.327 388.636 300.974C388.913 300.621 389.08 300.216 389.136 299.759L389.305 298.381C389.183 298.45 389.018 298.512 388.812 298.567C388.612 298.617 388.387 298.663 388.136 298.705C387.887 298.742 387.637 298.775 387.388 298.806C387.14 298.832 386.915 298.855 386.712 298.876C386.279 298.923 385.895 299.009 385.56 299.133C385.226 299.258 384.956 299.432 384.752 299.657C384.548 299.877 384.425 300.156 384.384 300.494C384.324 300.985 384.456 301.366 384.782 301.638C385.115 301.904 385.559 302.047 386.115 302.067ZM397.078 304.922C396.515 304.902 396.057 304.688 395.702 304.279C395.354 303.865 395.214 303.378 395.283 302.82C395.351 302.267 395.607 301.801 396.053 301.42C396.505 301.039 397.012 300.859 397.574 300.878C398.119 300.897 398.572 301.111 398.932 301.52C399.293 301.929 399.439 302.41 399.371 302.963C399.325 303.335 399.187 303.673 398.956 303.976C398.731 304.274 398.454 304.511 398.124 304.686C397.796 304.856 397.447 304.935 397.078 304.922Z" fill="#EAE7ED"/>
<path d="M96.5577 249.173C91.2531 240.332 38.3543 236.28 12.568 235.359L183.863 240.885C129.159 239.12 102.083 242.543 96.5577 249.173Z" fill="#4E191A"/>
<g style="mix-blend-mode:darken">
<rect width="351.698" height="63.6384" rx="31.8192" transform="matrix(0.999745 0.0225907 -0.186426 0.982469 -4.85406 171.262)" fill="#161515"/>
</g>
<rect x="0.898822" y="1.11072" width="349.487" height="61.4282" rx="30.7141" transform="matrix(0.999745 0.0225907 -0.186426 0.982469 -4.64677 172.366)" stroke="url(#paint3_linear_21_184)" stroke-width="2.21026"/>
<g filter="url(#filter1_df_21_184)">
<rect x="0.898822" y="1.11072" width="349.487" height="61.4282" rx="30.7141" transform="matrix(0.999745 0.0225907 -0.186426 0.982469 -4.64683 172.366)" stroke="url(#paint4_linear_21_184)" stroke-width="2.21026" shape-rendering="crispEdges"/>
</g>
<path d="M43.2575 202.861C43.2628 202.29 43.0672 201.842 42.6708 201.518C42.2744 201.193 41.7069 201.023 40.9684 201.007C40.4667 200.997 40.0353 201.058 39.6743 201.192C39.3139 201.321 39.028 201.506 38.8168 201.747C38.6102 201.988 38.49 202.264 38.4562 202.574C38.4185 202.833 38.4483 203.06 38.5456 203.256C38.6477 203.451 38.7975 203.622 38.9952 203.768C39.1933 203.909 39.4264 204.034 39.6944 204.144C39.9629 204.248 40.2519 204.339 40.5614 204.417L41.8341 204.755C42.453 204.91 43.0148 205.111 43.5193 205.357C44.0239 205.604 44.4515 205.903 44.8022 206.255C45.153 206.607 45.4095 207.018 45.5717 207.488C45.7387 207.959 45.7918 208.496 45.7309 209.098C45.6297 209.983 45.3189 210.745 44.7984 211.385C44.2832 212.021 43.5848 212.508 42.7032 212.848C41.8269 213.184 40.797 213.339 39.6135 213.313C38.4396 213.288 37.4365 213.088 36.6045 212.712C35.7772 212.335 35.158 211.792 34.7468 211.08C34.3409 210.364 34.1827 209.485 34.2724 208.444L37.2476 208.507C37.2279 208.993 37.3234 209.401 37.5342 209.731C37.7502 210.056 38.0575 210.306 38.4562 210.479C38.86 210.648 39.3271 210.738 39.8572 210.75C40.378 210.761 40.8382 210.695 41.2381 210.553C41.6427 210.41 41.9661 210.207 42.2083 209.943C42.4506 209.68 42.5907 209.374 42.6286 209.025C42.664 208.7 42.5967 208.425 42.4267 208.2C42.2615 207.975 42.0027 207.781 41.6504 207.617C41.3028 207.454 40.8708 207.304 40.3545 207.165L38.8141 206.736C37.6204 206.414 36.7028 205.929 36.0615 205.284C35.4201 204.638 35.16 203.781 35.2812 202.712C35.3718 201.837 35.6895 201.077 36.2341 200.433C36.7835 199.788 37.4948 199.292 38.3679 198.942C39.2411 198.593 40.2078 198.429 41.2682 198.452C42.3475 198.475 43.2695 198.678 44.0343 199.063C44.8037 199.447 45.3777 199.971 45.7561 200.635C46.1346 201.299 46.284 202.061 46.2043 202.923L43.2575 202.861ZM54.2749 202.55L54.0287 204.809L47.4606 204.67L47.7067 202.41L54.2749 202.55ZM49.481 199.844L52.5058 199.908L51.4044 210.018C51.3741 210.296 51.3931 210.514 51.4614 210.671C51.5302 210.823 51.637 210.932 51.7818 210.996C51.9314 211.061 52.1079 211.095 52.3115 211.099C52.4535 211.102 52.5968 211.094 52.7414 211.073C52.8864 211.048 52.9976 211.029 53.0749 211.016L53.3068 213.265C53.1502 213.309 52.9313 213.358 52.6501 213.414C52.3683 213.474 52.0302 213.507 51.6358 213.512C50.9037 213.525 50.2752 213.415 49.7502 213.182C49.2299 212.949 48.8436 212.597 48.5914 212.124C48.3392 211.652 48.2542 211.06 48.3364 210.35L49.481 199.844ZM59.8514 213.751C58.7485 213.727 57.82 213.474 57.066 212.991C56.3173 212.503 55.7708 211.836 55.4266 210.989C55.0829 210.137 54.9715 209.155 55.0925 208.045C55.2146 206.924 55.539 205.95 56.0658 205.121C56.5931 204.288 57.2821 203.647 58.1329 203.198C58.9889 202.744 59.9684 202.529 61.0714 202.553C62.1744 202.576 63.1002 202.832 63.8489 203.319C64.6029 203.802 65.1518 204.47 65.4955 205.322C65.8397 206.169 65.9508 207.152 65.8288 208.273C65.7077 209.384 65.3836 210.356 64.8563 211.189C64.3295 212.018 63.6381 212.659 62.7821 213.112C61.9313 213.561 60.9544 213.774 59.8514 213.751ZM60.1195 211.421C60.6213 211.432 61.0556 211.299 61.4225 211.024C61.7898 210.744 62.0857 210.359 62.3099 209.868C62.5389 209.378 62.6878 208.817 62.7565 208.186C62.8252 207.555 62.7989 206.991 62.6776 206.493C62.561 205.995 62.3503 205.599 62.0455 205.305C61.7407 205.011 61.3374 204.858 60.8356 204.848C60.3291 204.837 59.8874 204.971 59.5106 205.251C59.1385 205.531 58.8379 205.916 58.6089 206.407C58.3846 206.897 58.2382 207.458 58.1694 208.089C58.1007 208.719 58.1247 209.284 58.2412 209.782C58.3625 210.28 58.578 210.676 58.8875 210.97C59.2023 211.26 59.613 211.41 60.1195 211.421ZM66.7665 217.762L68.391 202.85L71.3733 202.913L71.1748 204.735L71.3097 204.738C71.4741 204.449 71.6981 204.156 71.9818 203.86C72.2708 203.56 72.6298 203.313 73.059 203.119C73.4934 202.92 74.0159 202.828 74.6266 202.841C75.4218 202.858 76.133 203.08 76.7601 203.509C77.3877 203.933 77.8575 204.563 78.1696 205.4C78.4823 206.232 78.5709 207.27 78.4355 208.512C78.3037 209.722 77.996 210.739 77.5123 211.564C77.0339 212.384 76.4353 213.001 75.7164 213.415C75.0028 213.825 74.2318 214.021 73.4034 214.003C72.8164 213.991 72.3275 213.884 71.9367 213.682C71.5506 213.48 71.2433 213.231 71.0147 212.933C70.7866 212.631 70.6204 212.328 70.5159 212.024L70.4236 212.022L69.7913 217.826L66.7665 217.762ZM70.7612 208.335C70.691 208.98 70.7196 209.544 70.8472 210.028C70.9748 210.512 71.1944 210.892 71.506 211.168C71.8181 211.438 72.218 211.579 72.7055 211.589C73.1979 211.6 73.629 211.474 73.9991 211.213C74.3697 210.948 74.6687 210.577 74.8961 210.1C75.1288 209.619 75.2796 209.063 75.3483 208.433C75.4165 207.807 75.3889 207.254 75.2655 206.775C75.1422 206.296 74.9247 205.918 74.6131 205.643C74.3015 205.367 73.8972 205.224 73.4001 205.214C72.9078 205.203 72.4771 205.324 72.1081 205.575C71.7438 205.827 71.4458 206.189 71.2141 206.66C70.9825 207.132 70.8315 207.69 70.7612 208.335ZM93.5587 203.93C93.5639 203.359 93.3683 202.911 92.9719 202.587C92.5755 202.262 92.0081 202.092 91.2696 202.076C90.7678 202.066 90.3364 202.127 89.9755 202.261C89.6151 202.39 89.3292 202.575 89.1179 202.816C88.9114 203.057 88.7912 203.333 88.7573 203.643C88.7196 203.902 88.7495 204.129 88.8468 204.325C88.9488 204.52 89.0987 204.691 89.2963 204.837C89.4945 204.978 89.7276 205.103 89.9956 205.213C90.2641 205.317 90.5531 205.408 90.8626 205.486L92.1352 205.824C92.7542 205.979 93.3159 206.18 93.8205 206.426C94.325 206.673 94.7527 206.972 95.1034 207.324C95.4541 207.676 95.7106 208.087 95.8729 208.557C96.0399 209.028 96.0929 209.565 96.032 210.167C95.9309 211.052 95.62 211.814 95.0996 212.454C94.5843 213.09 93.8859 213.577 93.0044 213.917C92.128 214.253 91.0981 214.408 89.9147 214.382C88.7407 214.357 87.7377 214.157 86.9056 213.781C86.0783 213.404 85.4591 212.861 85.0479 212.149C84.642 211.433 84.4839 210.554 84.5735 209.513L87.5487 209.576C87.529 210.062 87.6246 210.47 87.8353 210.8C88.0514 211.125 88.3587 211.375 88.7573 211.548C89.1612 211.717 89.6282 211.807 90.1584 211.819C90.6791 211.83 91.1394 211.764 91.5392 211.622C91.9438 211.479 92.2672 211.276 92.5095 211.012C92.7517 210.749 92.8918 210.443 92.9298 210.094C92.9652 209.769 92.8979 209.494 92.7279 209.269C92.5626 209.044 92.3038 208.85 91.9515 208.686C91.6039 208.523 91.172 208.373 90.6557 208.234L89.1153 207.805C87.9215 207.483 87.004 206.998 86.3626 206.353C85.7213 205.707 85.4612 204.85 85.5823 203.781C85.673 202.906 85.9906 202.146 86.5353 201.502C87.0847 200.857 87.7959 200.361 88.6691 200.011C89.5422 199.662 90.509 199.498 91.5693 199.521C92.6486 199.544 93.5707 199.747 94.3354 200.132C95.1049 200.516 95.6788 201.04 96.0573 201.704C96.4357 202.368 96.5851 203.13 96.5055 203.992L93.5587 203.93ZM101.301 208.135L100.618 214.405L97.5933 214.34L99.1686 199.88L102.108 199.943L101.506 205.471L101.634 205.474C101.95 204.839 102.402 204.346 102.991 203.996C103.58 203.64 104.288 203.471 105.117 203.489C105.874 203.505 106.517 203.684 107.044 204.025C107.577 204.362 107.966 204.84 108.212 205.458C108.463 206.072 108.54 206.803 108.443 207.65L107.69 214.555L104.666 214.491L105.359 208.122C105.437 207.454 105.323 206.93 105.018 206.551C104.718 206.172 104.26 205.976 103.645 205.963C103.233 205.954 102.859 206.033 102.523 206.201C102.191 206.368 101.917 206.617 101.701 206.947C101.49 207.273 101.357 207.669 101.301 208.135ZM113.159 214.876C112.463 214.862 111.856 214.728 111.338 214.477C110.82 214.22 110.428 213.851 110.163 213.369C109.903 212.882 109.812 212.281 109.89 211.566C109.955 210.963 110.122 210.46 110.389 210.055C110.656 209.65 110.995 209.327 111.405 209.086C111.816 208.844 112.272 208.665 112.773 208.549C113.28 208.432 113.805 208.354 114.351 208.313C114.992 208.261 115.51 208.21 115.904 208.162C116.299 208.109 116.591 208.026 116.779 207.912C116.967 207.798 117.073 207.626 117.098 207.395L117.103 207.353C117.152 206.905 117.047 206.556 116.79 206.306C116.537 206.055 116.153 205.924 115.637 205.913C115.093 205.902 114.646 206.012 114.298 206.246C113.951 206.474 113.705 206.766 113.562 207.122L110.789 206.836C111.003 206.18 111.344 205.617 111.813 205.145C112.283 204.669 112.86 204.309 113.547 204.064C114.238 203.815 115.019 203.699 115.89 203.718C116.496 203.731 117.068 203.813 117.607 203.966C118.15 204.12 118.621 204.349 119.019 204.655C119.423 204.96 119.724 205.349 119.924 205.82C120.125 206.287 120.19 206.843 120.12 207.488L119.323 214.802L116.454 214.741L116.618 213.237L116.533 213.236C116.321 213.571 116.054 213.865 115.732 214.117C115.411 214.365 115.037 214.558 114.609 214.695C114.182 214.827 113.698 214.888 113.159 214.876ZM114.251 212.819C114.696 212.828 115.099 212.75 115.458 212.583C115.819 212.411 116.112 212.177 116.339 211.88C116.566 211.583 116.7 211.243 116.742 210.862L116.867 209.711C116.766 209.77 116.63 209.824 116.458 209.872C116.292 209.916 116.105 209.957 115.897 209.995C115.689 210.028 115.482 210.059 115.275 210.088C115.068 210.112 114.881 210.134 114.712 210.154C114.352 210.198 114.033 210.274 113.755 210.381C113.478 210.488 113.255 210.637 113.087 210.827C112.92 211.012 112.821 211.246 112.79 211.528C112.746 211.938 112.861 212.254 113.135 212.477C113.415 212.695 113.787 212.809 114.251 212.819ZM121.67 214.852L122.851 204.007L125.784 204.069L125.578 205.962L125.691 205.964C125.964 205.295 126.353 204.794 126.859 204.46C127.365 204.122 127.924 203.959 128.535 203.972C128.686 203.975 128.848 203.988 129.021 204.011C129.195 204.033 129.346 204.063 129.475 204.098L129.184 206.767C129.046 206.722 128.854 206.68 128.607 206.642C128.359 206.603 128.132 206.582 127.923 206.578C127.478 206.568 127.07 206.656 126.699 206.842C126.333 207.023 126.03 207.28 125.789 207.615C125.553 207.95 125.411 208.338 125.363 208.781L124.695 214.916L121.67 214.852ZM129.852 215.026L131.033 204.181L134.058 204.245L132.877 215.09L129.852 215.026ZM132.705 202.815C132.255 202.806 131.886 202.649 131.596 202.346C131.312 202.038 131.192 201.674 131.238 201.256C131.283 200.841 131.48 200.489 131.83 200.2C132.185 199.905 132.587 199.763 133.036 199.772C133.486 199.782 133.853 199.941 134.138 200.249C134.427 200.552 134.549 200.911 134.504 201.325C134.459 201.744 134.258 202.101 133.904 202.395C133.554 202.685 133.155 202.825 132.705 202.815ZM139.008 208.936L138.324 215.206L135.3 215.142L136.481 204.297L139.364 204.358L139.156 206.271L139.283 206.274C139.593 205.649 140.053 205.158 140.661 204.803C141.269 204.443 141.978 204.272 142.788 204.289C143.545 204.305 144.187 204.484 144.715 204.826C145.242 205.167 145.629 205.647 145.875 206.266C146.121 206.879 146.198 207.608 146.106 208.45L145.354 215.355L142.329 215.291L143.023 208.923C143.1 208.259 142.986 207.738 142.681 207.358C142.377 206.974 141.921 206.776 141.315 206.763C140.908 206.755 140.539 206.834 140.208 207.002C139.881 207.169 139.612 207.418 139.4 207.749C139.194 208.075 139.063 208.47 139.008 208.936ZM152.184 219.803C151.204 219.782 150.379 219.63 149.707 219.347C149.04 219.069 148.526 218.697 148.163 218.232C147.801 217.766 147.59 217.248 147.529 216.675L150.367 216.361C150.429 216.579 150.542 216.784 150.706 216.977C150.87 217.169 151.097 217.325 151.388 217.444C151.683 217.568 152.05 217.635 152.491 217.644C153.149 217.658 153.708 217.51 154.169 217.199C154.634 216.893 154.907 216.368 154.988 215.624L155.204 213.64L155.077 213.637C154.911 213.936 154.681 214.216 154.387 214.479C154.093 214.741 153.728 214.953 153.293 215.114C152.858 215.274 152.352 215.348 151.774 215.336C150.955 215.319 150.23 215.115 149.599 214.724C148.973 214.328 148.504 213.736 148.191 212.946C147.884 212.151 147.796 211.154 147.927 209.954C148.06 208.725 148.373 207.703 148.865 206.888C149.358 206.073 149.96 205.468 150.672 205.073C151.389 204.677 152.147 204.488 152.947 204.505C153.558 204.518 154.058 204.633 154.447 204.848C154.837 205.06 155.14 205.321 155.358 205.632C155.581 205.939 155.745 206.24 155.85 206.534L155.964 206.537L156.162 204.715L159.166 204.779L157.973 215.73C157.872 216.652 157.561 217.419 157.039 218.031C156.517 218.643 155.836 219.095 154.998 219.389C154.164 219.687 153.226 219.825 152.184 219.803ZM152.979 213.097C153.466 213.108 153.891 212.996 154.254 212.763C154.621 212.526 154.919 212.183 155.149 211.735C155.383 211.282 155.535 210.738 155.604 210.103C155.673 209.467 155.643 208.915 155.514 208.445C155.385 207.97 155.165 207.6 154.852 207.334C154.54 207.068 154.139 206.93 153.652 206.919C153.155 206.909 152.721 207.034 152.351 207.295C151.982 207.551 151.684 207.913 151.457 208.38C151.231 208.847 151.084 209.389 151.017 210.005C150.949 210.631 150.977 211.175 151.103 211.635C151.233 212.091 151.453 212.447 151.762 212.703C152.076 212.955 152.482 213.087 152.979 213.097ZM165.076 215.775L166.652 201.315L172.389 201.437C173.492 201.46 174.409 201.689 175.139 202.125C175.871 202.556 176.4 203.145 176.726 203.892C177.058 204.635 177.172 205.487 177.067 206.447C176.962 207.408 176.662 208.25 176.165 208.976C175.669 209.701 175.003 210.26 174.168 210.653C173.337 211.046 172.363 211.23 171.246 211.207L167.589 211.129L167.856 208.679L171.016 208.746C171.608 208.759 172.106 208.668 172.512 208.474C172.923 208.275 173.242 207.996 173.471 207.638C173.705 207.275 173.848 206.855 173.9 206.38C173.952 205.9 173.901 205.479 173.746 205.117C173.596 204.751 173.338 204.464 172.971 204.258C172.605 204.048 172.124 203.936 171.527 203.923L169.454 203.879L168.151 215.84L165.076 215.775ZM182.737 216.362C181.616 216.338 180.674 216.092 179.914 215.623C179.159 215.149 178.609 214.491 178.265 213.649C177.92 212.802 177.811 211.806 177.935 210.662C178.057 209.547 178.381 208.572 178.908 207.739C179.436 206.906 180.12 206.262 180.962 205.808C181.809 205.354 182.767 205.139 183.837 205.162C184.556 205.177 185.213 205.307 185.808 205.55C186.409 205.79 186.916 206.142 187.33 206.609C187.749 207.075 188.051 207.657 188.236 208.355C188.421 209.048 188.464 209.855 188.363 210.778L188.273 211.604L179.064 211.408L179.267 209.544L185.629 209.679C185.676 209.246 185.623 208.861 185.47 208.523C185.317 208.184 185.083 207.917 184.768 207.722C184.457 207.522 184.082 207.417 183.642 207.408C183.183 207.398 182.764 207.495 182.386 207.7C182.013 207.899 181.708 208.174 181.471 208.522C181.234 208.867 181.09 209.253 181.038 209.681L180.845 211.453C180.787 211.99 180.836 212.455 180.992 212.85C181.153 213.245 181.407 213.553 181.753 213.772C182.099 213.992 182.525 214.107 183.032 214.118C183.368 214.125 183.681 214.085 183.97 213.996C184.26 213.908 184.514 213.772 184.734 213.588C184.953 213.404 185.129 213.177 185.263 212.906L188.041 213.149C187.826 213.814 187.471 214.392 186.977 214.881C186.488 215.366 185.882 215.74 185.161 216.003C184.445 216.262 183.637 216.381 182.737 216.362ZM189.74 216.299L190.922 205.454L193.855 205.516L193.648 207.408L193.762 207.411C194.034 206.742 194.423 206.241 194.929 205.907C195.436 205.569 195.995 205.406 196.605 205.419C196.757 205.422 196.919 205.435 197.092 205.458C197.265 205.48 197.416 205.509 197.545 205.545L197.254 208.214C197.117 208.168 196.925 208.127 196.677 208.088C196.43 208.05 196.202 208.029 195.994 208.024C195.549 208.015 195.141 208.103 194.77 208.288C194.403 208.469 194.1 208.727 193.86 209.062C193.624 209.396 193.482 209.785 193.434 210.227L192.765 216.363L189.74 216.299ZM207.841 208.913L205.054 209.024C205.032 208.787 204.953 208.573 204.818 208.382C204.682 208.185 204.493 208.028 204.25 207.91C204.012 207.787 203.718 207.721 203.367 207.714C202.899 207.704 202.493 207.794 202.149 207.985C201.806 208.171 201.617 208.427 201.582 208.752C201.554 209.011 201.634 209.232 201.823 209.415C202.011 209.598 202.353 209.749 202.848 209.868L204.779 210.306C205.816 210.545 206.568 210.91 207.037 211.401C207.505 211.892 207.697 212.529 207.612 213.31C207.534 214.021 207.255 214.64 206.776 215.168C206.301 215.695 205.682 216.102 204.92 216.388C204.164 216.669 203.312 216.799 202.365 216.779C200.922 216.749 199.804 216.425 199.012 215.809C198.226 215.189 197.816 214.359 197.782 213.32L200.774 213.228C200.816 213.668 200.997 214.007 201.318 214.245C201.639 214.478 202.069 214.6 202.609 214.612C203.139 214.623 203.576 214.531 203.92 214.335C204.269 214.135 204.464 213.873 204.504 213.548C204.529 213.275 204.437 213.049 204.229 212.87C204.021 212.686 203.686 212.542 203.223 212.438L201.375 212.024C200.333 211.789 199.58 211.405 199.116 210.872C198.657 210.338 198.471 209.667 198.56 208.857C198.636 208.161 198.89 207.565 199.324 207.069C199.762 206.573 200.342 206.197 201.063 205.938C201.788 205.68 202.617 205.561 203.55 205.581C204.927 205.61 205.98 205.922 206.707 206.518C207.44 207.114 207.818 207.912 207.841 208.913ZM214.055 217.028C212.952 217.004 212.023 216.751 211.269 216.268C210.521 215.78 209.974 215.113 209.63 214.266C209.286 213.414 209.175 212.433 209.296 211.322C209.418 210.201 209.742 209.227 210.269 208.398C210.797 207.565 211.486 206.924 212.336 206.475C213.192 206.021 214.172 205.806 215.275 205.83C216.378 205.853 217.304 206.109 218.052 206.597C218.806 207.08 219.355 207.747 219.699 208.599C220.043 209.446 220.154 210.43 220.032 211.55C219.911 212.661 219.587 213.633 219.06 214.466C218.533 215.295 217.842 215.936 216.986 216.389C216.135 216.838 215.158 217.051 214.055 217.028ZM214.323 214.698C214.825 214.709 215.259 214.576 215.626 214.301C215.993 214.021 216.289 213.636 216.513 213.145C216.742 212.655 216.891 212.094 216.96 211.463C217.029 210.833 217.002 210.268 216.881 209.77C216.764 209.273 216.554 208.876 216.249 208.582C215.944 208.288 215.541 208.135 215.039 208.125C214.533 208.114 214.091 208.249 213.714 208.528C213.342 208.808 213.041 209.193 212.812 209.684C212.588 210.175 212.442 210.735 212.373 211.366C212.304 211.997 212.328 212.561 212.445 213.059C212.566 213.557 212.781 213.953 213.091 214.247C213.406 214.537 213.816 214.687 214.323 214.698ZM225.121 210.766L224.438 217.036L221.413 216.972L222.594 206.127L225.477 206.188L225.269 208.102L225.397 208.104C225.707 207.479 226.166 206.988 226.774 206.633C227.383 206.273 228.092 206.102 228.901 206.119C229.658 206.135 230.301 206.314 230.828 206.656C231.356 206.997 231.742 207.477 231.988 208.096C232.234 208.71 232.312 209.438 232.22 210.28L231.468 217.186L228.443 217.121L229.136 210.753C229.213 210.089 229.099 209.568 228.794 209.188C228.49 208.805 228.035 208.606 227.429 208.593C227.022 208.585 226.652 208.664 226.321 208.832C225.994 208.999 225.725 209.248 225.514 209.579C225.307 209.905 225.176 210.3 225.121 210.766ZM236.939 217.507C236.244 217.492 235.636 217.359 235.118 217.107C234.601 216.851 234.209 216.482 233.944 216C233.683 215.513 233.592 214.912 233.67 214.196C233.736 213.594 233.902 213.09 234.169 212.685C234.437 212.281 234.775 211.958 235.186 211.716C235.597 211.475 236.053 211.296 236.554 211.179C237.06 211.063 237.586 210.984 238.131 210.944C238.773 210.891 239.291 210.841 239.685 210.793C240.08 210.74 240.371 210.656 240.559 210.542C240.747 210.429 240.854 210.256 240.879 210.026L240.883 209.983C240.932 209.536 240.828 209.187 240.57 208.936C240.318 208.686 239.934 208.555 239.418 208.544C238.873 208.532 238.427 208.643 238.079 208.876C237.731 209.105 237.486 209.397 237.343 209.752L234.57 209.467C234.784 208.811 235.125 208.247 235.594 207.776C236.063 207.3 236.641 206.94 237.327 206.695C238.019 206.445 238.8 206.33 239.671 206.348C240.277 206.361 240.849 206.444 241.388 206.597C241.931 206.75 242.402 206.98 242.8 207.285C243.203 207.591 243.505 207.98 243.705 208.451C243.906 208.918 243.971 209.473 243.901 210.118L243.104 217.433L240.235 217.372L240.399 215.868L240.314 215.866C240.102 216.201 239.835 216.495 239.513 216.748C239.192 216.996 238.817 217.188 238.39 217.326C237.962 217.458 237.479 217.518 236.939 217.507ZM238.032 215.45C238.477 215.459 238.879 215.38 239.239 215.213C239.599 215.042 239.893 214.807 240.12 214.51C240.347 214.213 240.481 213.874 240.522 213.493L240.648 212.342C240.546 212.401 240.41 212.455 240.239 212.503C240.073 212.547 239.886 212.588 239.677 212.626C239.47 212.659 239.262 212.69 239.055 212.719C238.849 212.742 238.661 212.764 238.493 212.784C238.132 212.829 237.813 212.904 237.536 213.012C237.258 213.119 237.036 213.268 236.868 213.458C236.701 213.643 236.602 213.877 236.571 214.159C236.526 214.568 236.641 214.885 236.916 215.107C237.196 215.326 237.568 215.44 238.032 215.45ZM250.051 203.087L248.475 217.547L245.451 217.483L247.026 203.023L250.051 203.087ZM255.526 217.697L256.708 206.852L259.733 206.916L258.551 217.761L255.526 217.697ZM258.38 205.486C257.93 205.477 257.56 205.32 257.271 205.017C256.986 204.709 256.867 204.345 256.913 203.926C256.958 203.512 257.155 203.16 257.505 202.87C257.859 202.576 258.262 202.434 258.711 202.443C259.161 202.453 259.528 202.611 259.812 202.919C260.102 203.223 260.224 203.582 260.179 203.996C260.133 204.415 259.933 204.771 259.578 205.066C259.229 205.356 258.829 205.496 258.38 205.486ZM264.682 211.607L263.999 217.877L260.974 217.813L262.156 206.968L265.039 207.029L264.83 208.942L264.958 208.945C265.268 208.319 265.727 207.829 266.335 207.474C266.944 207.114 267.653 206.943 268.462 206.96C269.22 206.976 269.862 207.155 270.39 207.496C270.917 207.838 271.304 208.318 271.549 208.937C271.796 209.55 271.873 210.279 271.781 211.121L271.029 218.026L268.004 217.962L268.698 211.593C268.775 210.93 268.661 210.408 268.356 210.029C268.051 209.645 267.596 209.447 266.99 209.434C266.583 209.425 266.214 209.505 265.882 209.672C265.556 209.84 265.287 210.089 265.075 210.42C264.869 210.745 264.738 211.141 264.682 211.607ZM280.46 207.357L280.213 209.616L273.482 209.473L273.728 207.214L280.46 207.357ZM274.088 218.091L275.354 206.463C275.44 205.677 275.665 205.028 276.029 204.517C276.398 204.006 276.866 203.626 277.434 203.379C278.002 203.131 278.629 203.015 279.315 203.03C279.779 203.039 280.199 203.084 280.575 203.163C280.955 203.241 281.237 203.311 281.42 203.372L280.635 205.619C280.52 205.579 280.377 205.541 280.206 205.504C280.039 205.468 279.866 205.447 279.686 205.444C279.241 205.434 278.92 205.531 278.722 205.735C278.525 205.933 278.406 206.216 278.366 206.583L277.105 218.155L274.088 218.091ZM285.64 218.549C284.537 218.526 283.609 218.272 282.855 217.789C282.106 217.302 281.56 216.634 281.215 215.787C280.872 214.935 280.76 213.954 280.881 212.843C281.003 211.723 281.328 210.748 281.855 209.92C282.382 209.087 283.071 208.445 283.922 207.996C284.778 207.543 285.757 207.328 286.86 207.351C287.963 207.375 288.889 207.63 289.638 208.118C290.392 208.601 290.941 209.268 291.284 210.12C291.629 210.967 291.74 211.951 291.618 213.071C291.497 214.182 291.172 215.154 290.645 215.987C290.118 216.816 289.427 217.457 288.571 217.911C287.72 218.36 286.743 218.573 285.64 218.549ZM285.908 216.219C286.41 216.23 286.844 216.098 287.211 215.823C287.579 215.543 287.875 215.157 288.099 214.667C288.328 214.176 288.477 213.615 288.545 212.985C288.614 212.354 288.588 211.79 288.466 211.292C288.35 210.794 288.139 210.398 287.834 210.104C287.53 209.809 287.126 209.657 286.624 209.646C286.118 209.635 285.676 209.77 285.299 210.05C284.927 210.33 284.627 210.715 284.398 211.205C284.174 211.696 284.027 212.257 283.958 212.887C283.89 213.518 283.914 214.082 284.03 214.58C284.151 215.078 284.367 215.474 284.676 215.769C284.991 216.058 285.402 216.209 285.908 216.219ZM294.746 218.714C294.278 218.704 293.893 218.531 293.593 218.194C293.298 217.853 293.176 217.45 293.227 216.984C293.277 216.522 293.486 216.13 293.853 215.808C294.225 215.486 294.645 215.329 295.114 215.339C295.569 215.349 295.948 215.522 296.253 215.859C296.558 216.196 296.685 216.595 296.635 217.056C296.601 217.367 296.49 217.65 296.301 217.905C296.117 218.156 295.889 218.356 295.616 218.506C295.344 218.652 295.054 218.721 294.746 218.714Z" fill="#EAE7ED"/>
<path d="M162.832 83.0361C158.931 76.6706 120.024 73.753 101.059 73.0899L227.044 77.0684C186.81 75.7979 166.896 78.2619 162.832 83.0361Z" fill="#593218"/>
<g style="mix-blend-mode:darken">
<rect width="167.917" height="46.4624" rx="23.2312" transform="matrix(0.999391 0.0348995 -0.121869 0.992546 84.6188 26.6746)" fill="#161515"/>
</g>
<rect x="0.969774" y="1.13546" width="165.707" height="44.2522" rx="22.1261" transform="matrix(0.999391 0.0348995 -0.121869 0.992546 84.7577 27.4642)" stroke="url(#paint5_linear_21_184)" stroke-width="2.21026"/>
<g filter="url(#filter2_df_21_184)">
<rect x="0.969774" y="1.13546" width="165.707" height="44.2522" rx="22.1261" transform="matrix(0.999391 0.0348995 -0.121869 0.992546 84.7577 27.4642)" stroke="url(#paint6_linear_21_184)" stroke-width="2.21026" shape-rendering="crispEdges"/>
</g>
<path d="M116.875 48.7288C116.886 48.2243 116.719 47.8262 116.372 47.5346C116.026 47.2429 115.526 47.0857 114.873 47.0629C114.43 47.0474 114.048 47.0966 113.727 47.2106C113.407 47.3204 113.152 47.4805 112.962 47.6909C112.777 47.9014 112.667 48.1438 112.634 48.418C112.597 48.6462 112.621 48.8473 112.705 49.0213C112.792 49.1955 112.923 49.3482 113.096 49.4794C113.269 49.6064 113.474 49.72 113.709 49.82C113.945 49.9159 114.2 49.9999 114.473 50.072L115.593 50.3865C116.139 50.5308 116.633 50.7149 117.076 50.939C117.519 51.1631 117.893 51.4328 118.199 51.7481C118.505 52.0634 118.727 52.43 118.865 52.8479C119.007 53.266 119.047 53.741 118.986 54.273C118.886 55.0539 118.602 55.7242 118.134 56.2837C117.671 56.8391 117.048 57.2618 116.264 57.5515C115.485 57.8373 114.573 57.9619 113.527 57.9254C112.49 57.8892 111.605 57.6997 110.874 57.3571C110.148 57.0146 109.607 56.5262 109.252 55.8921C108.902 55.254 108.772 54.4754 108.864 53.5565L111.494 53.6483C111.47 54.0773 111.55 54.4389 111.732 54.7332C111.919 55.0235 112.188 55.2477 112.538 55.406C112.893 55.5603 113.305 55.6456 113.774 55.662C114.234 55.678 114.641 55.6255 114.997 55.5044C115.356 55.3834 115.644 55.2078 115.862 54.9775C116.079 54.7473 116.207 54.4784 116.244 54.171C116.28 53.8843 116.223 53.6403 116.076 53.439C115.932 53.2379 115.706 53.0631 115.397 52.9146C115.091 52.7662 114.711 52.6278 114.256 52.4992L112.9 52.1013C111.848 51.8017 111.043 51.3626 110.484 50.7839C109.925 50.2053 109.705 49.4444 109.825 48.5014C109.916 47.7285 110.206 47.0605 110.695 46.4976C111.189 45.9348 111.823 45.5043 112.6 45.2059C113.376 44.9075 114.232 44.7747 115.169 44.8074C116.123 44.8407 116.936 45.0319 117.607 45.3808C118.283 45.7298 118.784 46.2001 119.11 46.7915C119.437 47.3829 119.56 48.059 119.479 48.8198L116.875 48.7288ZM124.685 58.3213C123.694 58.2867 122.865 58.0574 122.199 57.6336C121.537 57.2057 121.059 56.6174 120.764 55.8685C120.47 55.1155 120.385 54.2342 120.509 53.2246C120.63 52.2398 120.928 51.3823 121.405 50.6521C121.881 49.9218 122.494 49.3611 123.243 48.97C123.997 48.5791 124.847 48.4001 125.792 48.4331C126.428 48.4553 127.008 48.5778 127.531 48.8005C128.059 49.0192 128.503 49.3373 128.863 49.7546C129.228 50.1721 129.488 50.6902 129.643 51.309C129.798 51.9237 129.826 52.6382 129.726 53.4525L129.637 54.1817L121.498 53.8975L121.7 52.2522L127.322 52.4485C127.369 52.0663 127.327 51.7247 127.196 51.4239C127.065 51.123 126.861 50.8843 126.585 50.7078C126.313 50.5272 125.982 50.4301 125.593 50.4165C125.187 50.4023 124.816 50.4833 124.479 50.6593C124.147 50.8313 123.874 51.07 123.66 51.3755C123.447 51.6768 123.315 52.0165 123.264 52.3944L123.072 53.9587C123.014 54.4324 123.051 54.8447 123.185 55.1957C123.322 55.5468 123.543 55.8216 123.846 56.02C124.15 56.2183 124.525 56.3253 124.973 56.341C125.27 56.3513 125.547 56.3193 125.804 56.2448C126.061 56.1703 126.287 56.0531 126.484 55.893C126.68 55.7329 126.839 55.534 126.96 55.2963L129.413 55.5446C129.215 56.1302 128.894 56.6365 128.451 57.0633C128.013 57.4861 127.473 57.8094 126.832 58.0332C126.196 58.253 125.48 58.3491 124.685 58.3213ZM135.209 58.6888C134.222 58.6543 133.398 58.4169 132.738 57.9766C132.082 57.5323 131.61 56.9316 131.321 56.1746C131.035 55.4177 130.952 54.5552 131.071 53.5871C131.191 52.6066 131.487 51.7532 131.959 51.0269C132.435 50.2966 133.052 49.7361 133.81 49.3453C134.569 48.9503 135.435 48.7698 136.41 48.8039C137.251 48.8333 137.969 49.0106 138.563 49.336C139.158 49.6614 139.605 50.1047 139.906 50.666C140.207 51.2273 140.331 51.8784 140.278 52.6193L137.755 52.5312C137.743 52.0509 137.602 51.66 137.332 51.3585C137.067 51.053 136.69 50.8916 136.2 50.8746C135.786 50.8601 135.41 50.9596 135.073 51.1732C134.741 51.3827 134.463 51.6964 134.239 52.1142C134.016 52.532 133.867 53.0422 133.793 53.6446C133.718 54.2554 133.738 54.7777 133.853 55.2115C133.972 55.6454 134.172 55.98 134.454 56.2151C134.736 56.4503 135.084 56.5751 135.498 56.5896C135.804 56.6003 136.085 56.5475 136.343 56.4313C136.606 56.3153 136.831 56.1417 137.019 55.9104C137.211 55.6751 137.354 55.3901 137.445 55.0553L139.968 55.1434C139.836 55.8732 139.556 56.5102 139.128 57.0543C138.705 57.5945 138.16 58.0095 137.494 58.2992C136.828 58.5889 136.067 58.7188 135.209 58.6888ZM147.93 54.8518L148.605 49.3549L151.278 49.4483L150.103 59.0211L147.536 58.9315L147.75 57.1927L147.65 57.1892C147.363 57.7425 146.946 58.1807 146.398 58.5037C145.854 58.8269 145.22 58.9758 144.496 58.9505C143.852 58.928 143.303 58.7628 142.849 58.4549C142.396 58.1469 142.064 57.7202 141.853 57.1745C141.647 56.6291 141.588 55.9823 141.676 55.2343L142.424 49.1391L145.097 49.2324L144.407 54.854C144.342 55.4192 144.44 55.8712 144.701 56.2099C144.961 56.5487 145.345 56.7269 145.851 56.7446C146.173 56.7558 146.484 56.6936 146.782 56.558C147.08 56.4182 147.333 56.2059 147.541 55.921C147.752 55.6363 147.882 55.2799 147.93 54.8518ZM152.241 59.0958L153.417 49.5229L156.008 49.6135L155.803 51.2837L155.904 51.2872C156.152 50.6992 156.502 50.2608 156.954 49.9719C157.406 49.6789 157.902 49.5419 158.441 49.5607C158.575 49.5654 158.718 49.5787 158.871 49.6008C159.024 49.6228 159.157 49.6504 159.271 49.6836L158.981 52.0394C158.861 51.9976 158.691 51.9583 158.473 51.9215C158.255 51.8846 158.054 51.863 157.869 51.8566C157.476 51.8429 157.114 51.9158 156.784 52.0753C156.458 52.2308 156.187 52.455 155.97 52.7479C155.758 53.0409 155.628 53.3827 155.58 53.7733L154.915 59.1892L152.241 59.0958ZM163.393 59.673C162.402 59.6384 161.573 59.4092 160.906 58.9853C160.245 58.5574 159.766 57.9691 159.472 57.2202C159.178 56.4672 159.093 55.5859 159.217 54.5763C159.338 53.5915 159.636 52.734 160.112 52.0038C160.589 51.2735 161.201 50.7128 161.951 50.3217C162.705 49.9308 163.555 49.7518 164.5 49.7848C165.136 49.807 165.715 49.9295 166.239 50.1522C166.766 50.3709 167.21 50.689 167.571 51.1063C167.936 51.5238 168.195 52.0419 168.351 52.6607C168.506 53.2754 168.534 53.9899 168.434 54.8042L168.344 55.5334L160.205 55.2492L160.407 53.6039L166.03 53.8002C166.077 53.418 166.035 53.0764 165.904 52.7756C165.773 52.4747 165.569 52.236 165.292 52.0595C165.02 51.8789 164.69 51.7818 164.301 51.7682C163.895 51.7541 163.524 51.835 163.187 52.011C162.855 52.183 162.582 52.4217 162.368 52.7272C162.154 53.0285 162.022 53.3682 161.972 53.7461L161.78 55.3104C161.722 55.7841 161.759 56.1964 161.893 56.5474C162.03 56.8986 162.251 57.1733 162.554 57.3717C162.857 57.57 163.233 57.677 163.68 57.6927C163.977 57.703 164.254 57.671 164.512 57.5965C164.769 57.522 164.995 57.4048 165.191 57.2447C165.387 57.0846 165.546 56.8857 165.668 56.648L168.12 56.8963C167.922 57.4819 167.602 57.9882 167.159 58.415C166.72 58.8378 166.181 59.1611 165.54 59.3849C164.904 59.6047 164.188 59.7008 163.393 59.673ZM173.725 59.846L175.292 47.0822L178.009 47.1771L176.715 57.716L182.225 57.9084L181.952 60.1333L173.725 59.846ZM188.033 60.5335C187.058 60.4994 186.241 60.2643 185.58 59.8281C184.924 59.388 184.449 58.7914 184.155 58.0384C183.861 57.2812 183.775 56.4123 183.895 55.4318C184.016 54.4429 184.315 53.5854 184.791 52.8593C185.267 52.129 185.884 51.5705 186.641 51.1839C187.404 50.7932 188.272 50.6149 189.247 50.649C190.222 50.683 191.037 50.9201 191.693 51.3603C192.354 51.7965 192.831 52.3931 193.124 53.1503C193.418 53.9033 193.505 54.7743 193.383 55.7631C193.263 56.7437 192.965 57.5991 192.488 58.3294C192.013 59.0555 191.394 59.6139 190.632 60.0046C189.874 60.3912 189.008 60.5675 188.033 60.5335ZM188.298 58.4772C188.742 58.4927 189.127 58.381 189.455 58.1421C189.783 57.899 190.049 57.562 190.253 57.131C190.462 56.7001 190.6 56.2063 190.668 55.6495C190.737 55.0928 190.72 54.5936 190.619 54.1519C190.522 53.7104 190.341 53.3577 190.075 53.0939C189.809 52.8301 189.454 52.6904 189.011 52.6749C188.563 52.6593 188.171 52.7729 187.834 53.0157C187.502 53.2586 187.232 53.5955 187.023 54.0263C186.819 54.4573 186.683 54.9512 186.615 55.508C186.546 56.0647 186.561 56.5639 186.658 57.0054C186.759 57.4471 186.944 57.7999 187.215 58.0638C187.489 58.3238 187.851 58.4616 188.298 58.4772ZM198.416 64.5138C197.55 64.4835 196.822 64.3392 196.232 64.0807C195.645 63.8266 195.195 63.4916 194.88 63.0759C194.566 62.6602 194.385 62.199 194.338 61.6925L196.851 61.4485C196.903 61.6423 197 61.8251 197.143 61.997C197.286 62.1689 197.485 62.3094 197.74 62.4184C197.999 62.5318 198.324 62.5953 198.713 62.6089C199.294 62.6292 199.791 62.5046 200.202 62.2352C200.617 61.9702 200.864 61.5094 200.945 60.8529L201.16 59.1016L201.047 59.0977C200.897 59.3595 200.691 59.6047 200.427 59.8334C200.164 60.062 199.839 60.2447 199.453 60.3814C199.066 60.5182 198.618 60.5776 198.107 60.5598C197.383 60.5345 196.745 60.3453 196.192 59.9922C195.643 59.635 195.235 59.1055 194.969 58.4035C194.707 57.6975 194.641 56.8147 194.771 55.7552C194.904 54.6708 195.193 53.7713 195.638 53.0566C196.083 52.3419 196.622 51.8141 197.257 51.4732C197.895 51.1325 198.568 50.9745 199.275 50.9992C199.814 51.018 200.255 51.1252 200.597 51.3207C200.939 51.5121 201.204 51.7467 201.392 52.0245C201.586 52.2983 201.727 52.5661 201.817 52.828L201.917 52.8315L202.115 51.2235L204.769 51.3162L203.582 60.9826C203.482 61.7969 203.198 62.4713 202.729 63.0057C202.26 63.5402 201.653 63.9321 200.908 64.1814C200.167 64.4351 199.336 64.5459 198.416 64.5138ZM199.199 58.595C199.63 58.6101 200.007 58.5168 200.33 58.3153C200.658 58.1098 200.926 57.8103 201.134 57.417C201.346 57.0197 201.487 56.5406 201.556 55.9797C201.625 55.4188 201.605 54.9299 201.497 54.513C201.389 54.0919 201.198 53.7619 200.925 53.5229C200.652 53.2838 200.3 53.1568 199.869 53.1417C199.43 53.1264 199.045 53.2319 198.714 53.4582C198.385 53.6803 198.117 53.9965 197.911 54.4065C197.705 54.8166 197.569 55.2938 197.502 55.8381C197.434 56.3907 197.453 56.8712 197.558 57.2796C197.668 57.6841 197.858 58.0016 198.128 58.2322C198.403 58.4587 198.76 58.5797 199.199 58.595ZM205.721 60.9634L206.897 51.3905L209.57 51.4839L208.394 61.0567L205.721 60.9634ZM208.391 50.2034C207.994 50.1895 207.669 50.0467 207.416 49.775C207.169 49.4993 207.068 49.1766 207.113 48.8068C207.158 48.4412 207.336 48.1324 207.649 47.8804C207.966 47.6244 208.323 47.5034 208.721 47.5173C209.118 47.5311 209.441 47.6759 209.688 47.9516C209.941 48.2233 210.044 48.542 210 48.9076C209.954 49.2774 209.773 49.5903 209.456 49.8463C209.143 50.0982 208.788 50.2173 208.391 50.2034ZM213.889 55.6905L213.209 61.2249L210.536 61.1315L211.711 51.5586L214.259 51.6476L214.052 53.3366L214.165 53.3405C214.446 52.7912 214.858 52.3633 215.4 52.0567C215.942 51.746 216.571 51.6032 217.286 51.6281C217.956 51.6515 218.522 51.8173 218.984 52.1255C219.446 52.4338 219.782 52.8628 219.992 53.4126C220.202 53.9582 220.261 54.6029 220.17 55.3466L219.422 61.4418L216.748 61.3484L217.439 55.7269C217.515 55.1412 217.42 54.6789 217.155 54.34C216.891 53.9969 216.491 53.8161 215.955 53.7974C215.595 53.7848 215.268 53.8506 214.973 53.9946C214.682 54.1389 214.441 54.3558 214.25 54.6454C214.064 54.931 213.943 55.2794 213.889 55.6905ZM223.071 61.732C222.657 61.7175 222.319 61.5597 222.058 61.2585C221.801 60.9532 221.698 60.595 221.749 60.1836C221.799 59.7765 221.988 59.4326 222.317 59.1519C222.649 58.8715 223.023 58.7385 223.437 58.7529C223.839 58.767 224.172 58.9246 224.438 59.226C224.703 59.5274 224.811 59.8816 224.761 60.2888C224.727 60.563 224.625 60.8119 224.455 61.0355C224.289 61.255 224.085 61.4294 223.843 61.5586C223.6 61.6837 223.343 61.7415 223.071 61.732Z" fill="#EAE7ED"/>
<ellipse cx="7.7359" cy="2.76282" rx="7.7359" ry="2.76282" transform="matrix(0.996195 0.0871557 0.358368 0.93358 262.408 381.421)" fill="#4D1227"/>
<g filter="url(#filter3_df_21_184)">
<ellipse cx="7.7359" cy="2.76282" rx="7.7359" ry="2.76282" transform="matrix(0.996195 0.0871557 0.358368 0.93358 262.408 381.421)" fill="#4D1227"/>
</g>
<defs>
<filter id="filter0_df_21_184" x="206.946" y="228.154" width="330.895" height="144.033" filterUnits="userSpaceOnUse" color-interpolation-filters="sRGB">
<feFlood flood-opacity="0" result="BackgroundImageFix"/>
<feColorMatrix in="SourceAlpha" type="matrix" values="0 0 0 0 0 0 0 0 0 0 0 0 0 0 0 0 0 0 127 0" result="hardAlpha"/>
<feOffset dy="4.42051"/>
<feGaussianBlur stdDeviation="16.0244"/>
<feComposite in2="hardAlpha" operator="out"/>
<feColorMatrix type="matrix" values="0 0 0 0 0.760784 0 0 0 0 0.278431 0 0 0 0 0.45098 0 0 0 1 0"/>
<feBlend mode="normal" in2="BackgroundImageFix" result="effect1_dropShadow_21_184"/>
<feBlend mode="normal" in="SourceGraphic" in2="effect1_dropShadow_21_184" result="shape"/>
<feGaussianBlur stdDeviation="7.18333" result="effect2_foregroundBlur_21_184"/>
</filter>
<filter id="filter1_df_21_184" x="-43.3889" y="145.449" width="416.814" height="133.145" filterUnits="userSpaceOnUse" color-interpolation-filters="sRGB">
<feFlood flood-opacity="0" result="BackgroundImageFix"/>
<feColorMatrix in="SourceAlpha" type="matrix" values="0 0 0 0 0 0 0 0 0 0 0 0 0 0 0 0 0 0 127 0" result="hardAlpha"/>
<feOffset dy="4.42051"/>
<feGaussianBlur stdDeviation="16.0244"/>
<feComposite in2="hardAlpha" operator="out"/>
<feColorMatrix type="matrix" values="0 0 0 0 0.760784 0 0 0 0 0.278431 0 0 0 0 0.45098 0 0 0 1 0"/>
<feBlend mode="normal" in2="BackgroundImageFix" result="effect1_dropShadow_21_184"/>
<feBlend mode="normal" in="SourceGraphic" in2="effect1_dropShadow_21_184" result="shape"/>
<feGaussianBlur stdDeviation="7.18333" result="effect2_foregroundBlur_21_184"/>
</filter>
<filter id="filter2_df_21_184" x="49.5645" y="0.657623" width="232.261" height="114.481" filterUnits="userSpaceOnUse" color-interpolation-filters="sRGB">
<feFlood flood-opacity="0" result="BackgroundImageFix"/>
<feColorMatrix in="SourceAlpha" type="matrix" values="0 0 0 0 0 0 0 0 0 0 0 0 0 0 0 0 0 0 127 0" result="hardAlpha"/>
<feOffset dy="4.42051"/>
<feGaussianBlur stdDeviation="16.0244"/>
<feComposite in2="hardAlpha" operator="out"/>
<feColorMatrix type="matrix" values="0 0 0 0 0.760784 0 0 0 0 0.278431 0 0 0 0 0.45098 0 0 0 1 0"/>
<feBlend mode="normal" in2="BackgroundImageFix" result="effect1_dropShadow_21_184"/>
<feBlend mode="normal" in="SourceGraphic" in2="effect1_dropShadow_21_184" result="shape"/>
<feGaussianBlur stdDeviation="7.18333" result="effect2_foregroundBlur_21_184"/>
</filter>
<filter id="filter3_df_21_184" x="231.285" y="354.379" width="79.6387" height="69.4307" filterUnits="userSpaceOnUse" color-interpolation-filters="sRGB">
<feFlood flood-opacity="0" result="BackgroundImageFix"/>
<feColorMatrix in="SourceAlpha" type="matrix" values="0 0 0 0 0 0 0 0 0 0 0 0 0 0 0 0 0 0 127 0" result="hardAlpha"/>
<feOffset dy="4.42051"/>
<feGaussianBlur stdDeviation="16.0244"/>
<feComposite in2="hardAlpha" operator="out"/>
<feColorMatrix type="matrix" values="0 0 0 0 0.760784 0 0 0 0 0.278431 0 0 0 0 0.45098 0 0 0 1 0"/>
<feBlend mode="normal" in2="BackgroundImageFix" result="effect1_dropShadow_21_184"/>
<feBlend mode="normal" in="SourceGraphic" in2="effect1_dropShadow_21_184" result="shape"/>
<feGaussianBlur stdDeviation="7.18333" result="effect2_foregroundBlur_21_184"/>
</filter>
<linearGradient id="paint0_linear_21_184" x1="185.325" y1="79.1682" x2="185.325" y2="386.394" gradientUnits="userSpaceOnUse">
<stop stop-color="#D1824B"/>
<stop offset="1" stop-color="#C34675"/>
</linearGradient>
<linearGradient id="paint1_linear_21_184" x1="133.203" y1="0" x2="133.203" y2="73.7144" gradientUnits="userSpaceOnUse">
<stop stop-color="#C44874"/>
<stop offset="1" stop-color="#500F26"/>
</linearGradient>
<linearGradient id="paint2_linear_21_184" x1="133.203" y1="0" x2="133.203" y2="73.7144" gradientUnits="userSpaceOnUse">
<stop stop-color="#C44874"/>
<stop offset="1" stop-color="#500F26"/>
</linearGradient>
<linearGradient id="paint3_linear_21_184" x1="175.849" y1="0" x2="175.849" y2="63.6384" gradientUnits="userSpaceOnUse">
<stop stop-color="#C96163"/>
<stop offset="1" stop-color="#4A1617"/>
</linearGradient>
<linearGradient id="paint4_linear_21_184" x1="175.849" y1="0" x2="175.849" y2="63.6384" gradientUnits="userSpaceOnUse">
<stop stop-color="#C96163"/>
<stop offset="1" stop-color="#4A1617"/>
</linearGradient>
<linearGradient id="paint5_linear_21_184" x1="83.9584" y1="0" x2="83.9584" y2="46.4624" gradientUnits="userSpaceOnUse">
<stop stop-color="#D1814C"/>
<stop offset="1" stop-color="#553017"/>
</linearGradient>
<linearGradient id="paint6_linear_21_184" x1="83.9584" y1="0" x2="83.9584" y2="46.4624" gradientUnits="userSpaceOnUse">
<stop stop-color="#D1814C"/>
<stop offset="1" stop-color="#553017"/>
</linearGradient>
</defs>
</svg>
