<svg width="130" height="40" viewBox="0 0 130 40" fill="none" xmlns="http://www.w3.org/2000/svg">
<path d="M55.8857 15.3659C55.0459 14.1815 53.9799 13.5893 52.6878 13.5893C51.8695 13.5893 51.1804 13.8369 50.6205 14.3322C50.0606 14.8275 49.7807 15.4951 49.7807 16.3349C49.7807 17.1533 50.7928 18.1331 52.8171 19.2744C54.8628 20.4157 55.8965 20.9864 55.918 20.9864C57.3609 22.0631 58.0823 23.3337 58.0823 24.798C58.0823 26.8008 57.5008 28.4266 56.338 29.6756C55.1966 30.9031 53.6246 31.5168 51.6219 31.5168C49.0808 31.5168 47.0781 30.2463 45.6137 27.7052L47.7134 25.6379C47.9933 26.3916 48.5101 27.0807 49.2638 27.7052C50.0176 28.3297 50.7928 28.642 51.5896 28.642C52.5371 28.642 53.2801 28.3189 53.8184 27.6729C54.3783 27.0269 54.6583 26.2409 54.6583 25.3149C54.6583 24.6473 54.4537 24.0659 54.0445 23.5706C53.6354 23.0537 52.2464 22.2785 49.8776 21.2448C47.5303 20.1896 46.3567 18.693 46.3567 16.7549C46.3567 15.0967 46.895 13.7077 47.9718 12.5879C49.07 11.4466 50.4375 10.8759 52.0741 10.8759C54.3352 10.8759 56.1226 11.6081 57.4362 13.0725L55.8857 15.3659ZM60.0479 10.8759H62.5674L73.647 25.6379L73.7116 11.3928H77.0064V31.3876H74.5191L63.4073 16.658L63.375 31H60.0479V10.8759ZM83.122 14.203V19.3067H89.7116V22.117H83.122V28.1897H89.9377V31H79.7949V11.3928H89.9377V14.203H83.122ZM96.1261 26.6069L94.3818 31H90.8609L98.4841 10.8759H101.456L108.885 31H105.332L103.685 26.6069H96.1261ZM99.7762 15.6889L96.9336 23.9905H102.78L99.7762 15.6889ZM120.544 11.3928H124.743L117.281 20.4373L125.163 31H120.738L113.663 21.2771L113.631 31H110.304V11.3928H113.631V20.5665L120.544 11.3928Z" fill="white"/>
<g filter="url(#filter0_d_21_44)">
<path d="M23.2238 1.1012C23.5063 0.611779 24.2128 0.611778 24.4953 1.1012L33.0783 15.9674C33.3609 16.4568 33.0077 17.0686 32.4426 17.0686H15.2765C14.7114 17.0686 14.3582 16.4568 14.6408 15.9674L23.2238 1.1012Z" fill="#FF6500"/>
</g>
<g filter="url(#filter1_d_21_44)">
<path d="M12.0145 35.2384C11.7319 35.7278 11.0255 35.7278 10.743 35.2384L2.15995 20.3722C1.87738 19.8828 2.23059 19.271 2.79573 19.271L19.9617 19.271C20.5269 19.271 20.8801 19.8828 20.5975 20.3722L12.0145 35.2384Z" fill="#FF6500"/>
</g>
<defs>
<filter id="filter0_d_21_44" x="12.5226" y="0.183531" width="22.674" height="20.3722" filterUnits="userSpaceOnUse" color-interpolation-filters="sRGB">
<feFlood flood-opacity="0" result="BackgroundImageFix"/>
<feColorMatrix in="SourceAlpha" type="matrix" values="0 0 0 0 0 0 0 0 0 0 0 0 0 0 0 0 0 0 127 0" result="hardAlpha"/>
<feOffset dy="1.46827"/>
<feGaussianBlur stdDeviation="1.00943"/>
<feComposite in2="hardAlpha" operator="out"/>
<feColorMatrix type="matrix" values="0 0 0 0 0 0 0 0 0 0 0 0 0 0 0 0 0 0 0.25 0"/>
<feBlend mode="normal" in2="BackgroundImageFix" result="effect1_dropShadow_21_44"/>
<feBlend mode="normal" in="SourceGraphic" in2="effect1_dropShadow_21_44" result="shape"/>
</filter>
<filter id="filter1_d_21_44" x="0.0416789" y="18.7204" width="22.674" height="20.3722" filterUnits="userSpaceOnUse" color-interpolation-filters="sRGB">
<feFlood flood-opacity="0" result="BackgroundImageFix"/>
<feColorMatrix in="SourceAlpha" type="matrix" values="0 0 0 0 0 0 0 0 0 0 0 0 0 0 0 0 0 0 127 0" result="hardAlpha"/>
<feOffset dy="1.46827"/>
<feGaussianBlur stdDeviation="1.00943"/>
<feComposite in2="hardAlpha" operator="out"/>
<feColorMatrix type="matrix" values="0 0 0 0 0 0 0 0 0 0 0 0 0 0 0 0 0 0 0.25 0"/>
<feBlend mode="normal" in2="BackgroundImageFix" result="effect1_dropShadow_21_44"/>
<feBlend mode="normal" in="SourceGraphic" in2="effect1_dropShadow_21_44" result="shape"/>
</filter>
</defs>
</svg>
